<?xml version="1.0" encoding="iso-8859-1" ?>
<!-- Generator: Adobe Illustrator 19.0.0, SVG Export Plug-In . SVG Version: 6.00 Build 0)  -->
<svg
  version="1.1"
  id="Layer_1"
  xmlns="http://www.w3.org/2000/svg"
  xmlns:xlink="http://www.w3.org/1999/xlink"
  width="20px"
  height="20px"
>
<g>
	<g>
		<g>
			<path
          d="M480,112.5H275V92.338c12.622-9.474,20-23.983,20-39.838c0-27.57-22.43-50-50-50s-50,22.43-50,50
				c0,15.852,7.378,30.361,20,39.837V112.5H10c-5.523,0-10,4.478-10,10v30c0,5.523,4.477,10,10,10h75.841l-47.903,135H20
				c-5.523,0-10,4.478-10,10c0,49.626,40.374,90,90,90c49.626,0,90-40.374,90-90c0-5.522-4.477-10-10-10h-22.718l-43.548-135H215
				v270h-35c-11.028,0-20,8.972-20,20v25c0,5.522,4.477,10,10,10h150c5.523,0,10-4.478,10-10v-25c0-11.028-8.972-20-20-20h-35v-270
				h100.841l-47.903,135H310c-5.523,0-10,4.478-10,10c0,49.626,40.374,90,90,90c49.626,0,90-40.374,90-90c0-5.522-4.477-10-10-10
				h-22.718l-43.548-135H480c5.523,0,10-4.477,10-10v-30C490,116.978,485.523,112.5,480,112.5z M169.288,317.5
				c-4.867,33.878-34.085,60-69.288,60c-21.473,0-40.706-9.73-53.557-25H125v-20H34.619c-1.831-4.773-3.159-9.794-3.907-15H169.288z
				 M136.267,297.5H59.159l40.39-113.825L136.267,297.5z M310,452.5v15H180v-15H310z M459.288,317.5
				c-4.867,33.878-34.085,60-69.288,60c-21.473,0-40.706-9.73-53.557-25H415v-20h-90.381c-1.832-4.773-3.159-9.794-3.907-15H459.288
				z M426.267,297.5h-77.108l40.39-113.825L426.267,297.5z M470,142.5H265c-5.523,0-10,4.477-10,10v280h-20v-280
				c0-5.523-4.477-10-10-10H20v-10h205c5.523,0,10-4.477,10-10V87.002c0-3.543-1.875-6.822-4.929-8.619
				C220.634,72.83,215,63.154,215,52.5c0-16.542,13.458-30,30-30s30,13.458,30,30c0,10.656-5.634,20.332-15.07,25.883
				c-3.055,1.796-4.93,5.075-4.93,8.619V122.5c0,5.523,4.477,10,10,10h205V142.5z"
        />
			<rect x="235" y="42.5" width="20" height="20" />
		</g>
	</g>
</g>
<g>
</g>
<g>
</g>
<g>
</g>
<g>
</g>
<g>
</g>
<g>
</g>
<g>
</g>
<g>
</g>
<g>
</g>
<g>
</g>
<g>
</g>
<g>
</g>
<g>
</g>
<g>
</g>
<g>
</g>
</svg>
