<svg id="Layer_1" data-name="Layer 1" xmlns="http://www.w3.org/2000/svg" viewBox="0 0 849.43 1062.08"><defs><style
    >.cls-1{fill:#224fd4;}.cls-2{fill:#0a1844;}.cls-3{fill:#0c1a45;}.cls-4{fill:#1034a0;}.cls-5{fill:#416ef5;}.cls-6{fill:#0b2470;}.cls-7{fill:#d8d8d8;}.cls-8{fill:#b0b0b0;}.cls-9{fill:#3c3c3c;}.cls-10{fill:#777;}.cls-11{fill:#878787;}.cls-12{fill:#fefefe;}.cls-13{fill:#04174b;}.cls-14{fill:#c7c6c6;}.cls-15{fill:#606161;}.cls-16{fill:#1f1f1f;}</style></defs><path
    class="cls-1"
    d="M1178.25,610.68c-1,2.76-3.13,5-3.76,7.89-3.79,3.47-5.55,8.3-8.19,12.52-6,9.54-11.72,19.23-17.56,28.86a42.12,42.12,0,0,1-4.18-.94q-19.89-6.6-39.77-13.26c-.29-8.9-.59-17.8-1.19-26.69-.73-11-1.08-22-1.36-33-.09-3.4-.63-6.69-.92-10.23a5.24,5.24,0,0,0-1.4.52c-6.41,5.36-13.05,10.41-19.64,15.53-11.62,9-23.06,18.31-34.58,27.47-9,7.18-17.93,14.54-27.17,21.44-4.37,3.27-8.06,7.5-13.19,9.73.2-8.59,2.27-17,3.16-25.48.68-6.43,1.93-12.79,2.8-19.21,1.06-7.83,1.92-15.68,3-23.51.9-6.63,2-13.23,3-19.85a2.76,2.76,0,0,0-.47-2.61c-6.25,5.75-12.32,11.49-18.56,17-11,9.8-22,19.62-32.68,29.81h-1.27q-10.32-9.5-20.64-19-11.7-10.72-23.43-21.42c-2.39-2.17-4.89-4.23-7.86-6.79.89,6.89,1.66,13.09,2.5,19.27,1,7.07,2,14.13,3,21.19,1,7.39,2,14.78,3,22.17,1.17,8.37,2.4,16.73,3.53,25.11.12.91.54,2.2-.38,2.78s-1.83-.57-2.52-1.11q-9.81-7.55-19.47-15.27c-11.44-9.12-22.82-18.32-34.28-27.41-10.94-8.67-21.91-17.31-33-25.81-2-1.52-3.5-3.91-6.19-4.47-1.2,5.65-.6,11.2-1.06,16.67-.51,6.06-.08,12.15-.7,18.16-1.18,11.63-1.33,23.29-1.79,34.94-9.58,3.26-19.1,6.72-28.77,9.69-5,1.55-9.89,3.79-15.18,4.51-10.07-16-19.61-32.26-29.21-48.52.81-1.51,2.41-1.89,3.77-2.54q15.11-7.12,30.26-14.15c9.09-4.24,18.23-8.38,27.29-12.69,4.7-2.24,9.67-4,14.56-7.27l-68.49-21.13,0-1.37a16.38,16.38,0,0,0,2-1.69Q779.15,529.8,797,509q12.1-14.19,24.13-28.45l1.23,1.29c-.12,5.07.73,10.08.79,15.16.08,6.57.79,13.14,1.27,19.71.85,11.6,1.91,23.19,2.5,34.81.29,5.71.79,11.41.91,17.14.14,6.62.48,6.62,6.9,5.1.21-.06.43-.1.64-.14q17.28-3.27,34.55-6.54c9.91-1.86,19.88-3.47,29.71-5.66,4.11-.91,8.52-.84,12.3-3.1H1018a4,4,0,0,0,2.6,1.27c17,3.27,34,6.5,51,9.86,8.92,1.76,17.93,3.05,26.77,5.27,1.38.35,3.09.78,3.25-1.83.82-13.37,1.65-26.74,2.69-40.1.36-4.61.2-9.27.75-13.83,1.47-12.34,1.61-24.75,2.52-37.12l1.23-1.29c.91,1.24,1.75,2.53,2.76,3.69,6.4,7.38,12.91,14.66,19.26,22.09,11,12.84,21.77,25.85,32.86,38.59,2.26,2.6,4.09,5.78,7.37,7.41-.11.45-.23.89-.35,1.33l-68.93,21.25c2.18,1.12,3.52,1.87,4.9,2.52l47.65,22.16Q1166.26,605.14,1178.25,610.68Z"
    transform="translate(-533.78 -9.5)"
  /><path
    class="cls-2"
    d="M1277.29,897.62a38,38,0,0,1-13.52-16.69c-3.21-7.65-4.6-15.53-3.19-23.84a24.7,24.7,0,0,0,.24-5.85c-1.81-22.82,11.51-39.11,30.37-48.08,13-6.2,26.86-6.78,40.75-5.81,13,.91,25.33,4.49,35.65,13.09a78.84,78.84,0,0,1,12.77,13.37c1.76,2.36,1.21,4.7-1,6.68-2.45,2.22-4.74,4.62-7.14,6.91-1,1-1.12,1.91,0,2.74,2.68,1.92,1.44,3.12-.42,4.89-5.62,5.31-11,10.87-16.49,16.33a8.8,8.8,0,0,1-3.27,2.54c1.93,1.74,4.24,2.42,6.28,3.55,12,6.64,21.42,15.85,23.7,29.7,2.05,12.44,1.93,25.22-5.46,36.47-3.45,5.27-4.77,11.51-8.48,16.68-6,8.4-14,13.74-23.46,17.59-12.31,5-25.17,5.18-38,4.37a68.85,68.85,0,0,1-35.86-12.37,92.44,92.44,0,0,1-17.41-16.28c-.9-1.08-1-1.89.06-2.81.33-.3.62-.63.93-.94,4.67-4.83,4.68-4.84.33-10.07-1.79-2.16-2.07-4.57-.26-6.64C1262,914.62,1269.59,906.22,1277.29,897.62Zm9.27,5.77-.54-.51c0,.16-.07.33-.11.49l.7-.06c-.27.22-.4.43-.13.76,10.46,12.88,24.09,18.34,40.46,17.17a10.75,10.75,0,0,0,6.26-2.14,49.46,49.46,0,0,0-5.4-3.17c-6.24-3.08-13-4-19.71-5.53A133.32,133.32,0,0,1,1286.56,903.39Zm34.61,53.08a69.26,69.26,0,0,0,21.13-2.54c10.67-2.94,19.81-7.9,27.27-16.33,10.13-11.46,11.31-25.11,9.48-39-1.38-10.46-8-18.47-16.67-24.57-9.71-6.8-20.71-10.41-32.06-13-7.56-1.74-15.22-3-22.15-6.75-4.3-2.32-6.18-5.87-5.77-10.75.35-4.27,2.61-6.93,6.43-8.57a34,34,0,0,1,21.35-1.66,39.68,39.68,0,0,1,23.45,15.22c.53.69.65,1.48,2.07.23,6.47-5.69,12.26-12.05,18.42-18,4.45-4.32,4.38-4.35.16-9-9.81-11-21.54-18-36.47-19.94-11.72-1.52-23.28-2-34.72.9-14.61,3.76-26.67,11.53-34.25,24.92-4.43,7.84-5.53,16.44-4.29,25.53s4.57,17.12,11,23.64c10.49,10.69,24.15,15,38.25,18.05,7.66,1.68,15.5,3,22.07,7.48s9.09,10.77,3.75,17.12c-2.95,3.5-7.45,4.83-11.79,5.23-18.31,1.68-33.23-5-44.86-19.15-1.22-1.49-2.15-4.06-3.56-4.34-1.94-.38-2.6,2.54-3.91,3.94-6.1,6.52-12,13.24-18,19.87-.77.84-1.11,1.56-.28,2.56a82,82,0,0,0,22.86,19.82C1292.61,954.35,1306.14,956.82,1321.17,956.47ZM1348,862.92c-10.3-13.87-31.69-17.48-39.81-12.63C1320.33,857.66,1334.83,856.76,1348,862.92Z"
    transform="translate(-533.78 -9.5)"
  /><path
    class="cls-2"
    d="M751.88,611.43C761.48,627.69,771,644,781.09,660c2.72,1.84,5.36,3.8,8.16,5.5q19,11.47,38,22.81c5.81,3.46,11.39,7.36,17.64,10.06,1.77,2.26,3.89,1.1,5.94.61,1,1.12,2.27.68,3.42.68q110.65,0,221.31,0c1.15,0,2.46.44,3.42-.68,2.08.77,4.13,1.2,5.94-.61,13.81-8.18,27.68-16.24,41.38-24.6,7.48-4.57,15.34-8.56,22.43-13.77,5.84-9.63,11.58-19.32,17.56-28.86,2.64-4.22,4.4-9.05,8.19-12.52,2.26,4.35-1.3,7.09-3,10.16-4.17,7.39-8.68,14.59-13,21.87-4,6.62-7.86,13.31-12,19.83-1.63,2.56-4.75,3.56-7.27,5.09-15.93,9.68-32,19.2-48,28.78-2.72,1.62-5.36,3.36-8.1,4.93a12.46,12.46,0,0,1-6.45,1.8q-111.55-.1-223.13.07A31.73,31.73,0,0,1,836,706.33C817.65,695,799.14,684,780.67,673a11,11,0,0,1-3.85-4q-13.34-22.34-26.77-44.62a6.29,6.29,0,0,1-1-5c.77-3.53,1.12-7.16,1.64-10.74h.7C751.49,609.62,751.09,610.63,751.88,611.43Z"
    transform="translate(-533.78 -9.5)"
  /><path
    class="cls-3"
    d="M1240.81,853.19q0,21.73,0,43.47a60.94,60.94,0,0,1-8.79,32.12c-2.74,4.54-4.19,9.7-7,14.26-9,14.43-22,22.85-38.28,26.78a76.72,76.72,0,0,1-21.8,1.88c-18.7-.89-34.88-7.68-47.19-22.09a53.37,53.37,0,0,1-12.91-30.92c-1.12-13.57-.37-27.15-.5-40.72-.17-17-.09-34.06,0-51.09,0-7.26.91-14.49.7-21.77-.1-3.36,1.82-5.14,5.16-5.16q17.25-.09,34.48,0c3.59,0,5.22,1.91,5.23,5.8,0,11.17,0,22.34,0,33.51,0,19-.09,38.05.05,57.07A23,23,0,0,0,1174,919.2a23.57,23.57,0,0,0,23.12-23.64c-.45-22.33-.1-44.68-.15-67,0-7.93,1-15.81.74-23.76-.13-3.43,1.41-4.81,4.89-4.83q16.58-.09,33.16,0c3.79,0,5,1.52,5,5.8Q1240.83,829.46,1240.81,853.19Zm-3.33,0c0-15.6-.07-31.2.07-46.79,0-2.72-.82-3.26-3.34-3.22-10,.14-19.9.17-29.84,0-2.8-.05-3.43.76-3.42,3.47q.15,43,0,86a40,40,0,0,1-.91,8.81,27.35,27.35,0,0,1-32.81,20.51c-11.63-2.57-20.57-12.81-20.64-24.88-.18-30.09-.12-60.18,0-90.27,0-2.73-.71-3.62-3.52-3.58q-15.75.24-31.5,0c-2.71,0-3.34.87-3.34,3.44.09,30.41,0,60.84.12,91.25a53.27,53.27,0,0,0,4.88,22.13c7.89,17.18,21.31,27.92,39.24,33.09,9.62,2.77,19.44,3.07,29.48,2.16a61.62,61.62,0,0,0,37.61-16.53c12.06-11.26,17.88-25.51,17.93-42C1237.51,882.21,1237.48,867.72,1237.48,853.23Z"
    transform="translate(-533.78 -9.5)"
  /><path
    class="cls-2"
    d="M937.06,853.51c0,14.6,0,29.2,0,43.8a60.33,60.33,0,0,1-9,32.33c-2.85,4.66-4.28,10-7.39,14.71a60.06,60.06,0,0,1-19.21,18.27c-8.44,5.11-17.6,7.61-27.45,8.6-11.45,1.15-22.6.44-33.36-3.51-20.43-7.5-33.62-21.77-38.75-43.11a36.84,36.84,0,0,1-.74-8.47c0-27,.1-54-.1-81-.07-10.15,1.05-20.25.77-30.39-.09-3.55,1.31-4.85,4.81-4.87q17.24-.07,34.48,0c4,0,5.1,1.37,5.1,6,0,29.31.07,58.62,0,87.93a26.26,26.26,0,0,0,5,16.1c7.74,10.75,24.87,12.38,34.53,3.31a22.78,22.78,0,0,0,7.73-17.84q-.36-35.67,0-71.34c0-6.48.66-12.95.63-19.44,0-3.45,1.4-4.69,5-4.7q16.41-.07,32.82,0c4,0,5.23,1.28,5.23,5.49Q937.1,829.45,937.06,853.51Zm-132,0c0,8.18-.15,16.37,0,24.55.2,9.14-.4,18.26.52,27.41,1.19,11.92,6.54,21.75,14.32,30.26,11.84,13,27.14,18.95,44.4,20a75.22,75.22,0,0,0,29.3-3.56,60.4,60.4,0,0,0,28.06-19.77c7.48-9.3,11.73-19.92,11.88-31.61.4-31.62.11-63.26.18-94.9,0-2.16-.56-2.77-2.74-2.75-10,.12-20.12.21-30.17,0-3.21-.08-3.68,1-3.67,3.87q.15,44.81,0,89.6a24.8,24.8,0,0,1-3.46,11.93A27.5,27.5,0,0,1,863.9,922c-12-2.73-20.7-12.18-20.88-24.81-.42-30.19-.18-60.39-.07-90.58,0-2.81-.75-3.45-3.47-3.41q-15.59.26-31.16,0c-2.53,0-3.32.54-3.3,3.22C805.16,822.08,805.09,837.79,805.09,853.5Z"
    transform="translate(-533.78 -9.5)"
  /><path
    class="cls-4"
    d="M818,86.78q7.17-21.65,14.37-43.29c.34-1,.86-2,1.29-3,1,.71,2,1.36,2.94,2.14Q864,65.94,891.39,89.27a4.83,4.83,0,0,1-1,2.39Q876.19,114.32,862,137l-1.53.5v-.07a5.09,5.09,0,0,0-.6-1.16c-8.35-9.76-16.84-19.41-25-29.29C829.23,100.25,823.07,94,818,86.78Z"
    transform="translate(-533.78 -9.5)"
  /><path
    class="cls-4"
    d="M1096.19,40.51c3.81,9.38,6.5,19.16,9.84,28.7,2,5.82,3.89,11.71,5.82,17.57-9.2,11.9-19.45,22.93-29,34.53-4.46,5.42-9.4,10.43-13.51,16.14v.07l-1.53-.5c-7.12-11.41-14.21-22.84-21.5-34.16-2.82-4.38-6-8.6-7.87-13.59q16.47-14,32.94-28C1079.61,54.3,1087.92,47.43,1096.19,40.51Z"
    transform="translate(-533.78 -9.5)"
  /><path
    class="cls-3"
    d="M1021,800.51h60.67c5,0,5.92.89,5.92,6q0,14.1,0,28.2c0,4.55-.77,5.43-5.34,5.56-1.64.05-2,.55-2,2.09.11,2.76-.09,5.54.08,8.29.12,2-.63,2.34-2.43,2.33-10.83-.08-21.66.06-32.49-.11-2.73,0-3.44.61-3.43,3.4.11,31.63.07,63.26.07,94.89,0,5.62-.28,6-5.73,6.6-1.35.15-1.61.66-1.59,1.84.06,3,0,6,0,9,0,1.43-.44,1.89-1.89,1.89q-16.91-.09-33.81,0c-1.28,0-1.83-.39-1.7-1.69.07-.77,0-1.55,0-2.32,0-36.72,0-73.44.07-110.16,0-2.76-.65-3.44-3.4-3.4-12.6.16-25.2,0-37.8.13-2.48,0-3.21-.65-3.17-3.14.14-9.07-.32-18.16.19-27.2.32-5.72.35-11.43.55-17.15.13-3.75,1.68-5,5.84-5Zm.13,3.32c-20.33,0-40.66,0-61-.05-2.32,0-3,.63-3,3q.19,13.59,0,27.2c-.05,2.51.67,3.16,3.16,3.13,12.48-.13,25,.07,37.45-.15,3.19-.06,3.65,1,3.65,3.83-.1,36.72,0,73.43-.13,110.15,0,2.75.42,3.75,3.51,3.68,10.16-.24,20.33-.2,30.5,0,2.75.05,3.44-.63,3.43-3.41-.11-37,0-74.09-.13-111.14,0-2.38.37-3.1,2.93-3.07,13,.15,26.08,0,39.12.13,2.72,0,3.78-.37,3.69-3.49-.27-8.84-.19-17.69,0-26.54,0-2.52-.53-3.29-3.2-3.27C1061.15,803.89,1041.15,803.83,1021.15,803.83Z"
    transform="translate(-533.78 -9.5)"
  /><path
    class="cls-4"
    d="M1200.1,221.81c-3.25,16.45-6.79,32.84-10.95,49.08-5-4.64-11.11-7.8-16.72-11.62q-13.48-9.18-27.24-18c-4.7-3-9.09-6.53-14.19-8.9-.08-.46-.17-.91-.25-1.36a5,5,0,0,0,.65-1.11c3.31-11.5,6.56-23,9.92-34.52,1.32-4.51,2-9.21,4-13.5a4.37,4.37,0,0,1,1.23.43c14.42,10.83,28.78,21.72,43.25,32.48C1193.16,217.29,1196.09,220.35,1200.1,221.81Z"
    transform="translate(-533.78 -9.5)"
  /><path
    class="cls-1"
    d="M882,29.85c14-6.89,28.12-13.72,42.46-20C930.7,23.56,937.07,37.2,943.16,51c1.85,4.19,4.19,8.21,5.19,12.76a9,9,0,0,1-1.57,1.14c-8.65,3.86-17.32,7.65-25.95,11.52-9.44,4.23-18.86,8.52-28.28,12.78a2.53,2.53,0,0,1-.55-.09c0-4.43-1.25-8.66-2-13-1.63-8.94-3.41-17.85-4.85-26.82C884.06,42.82,882.35,36.44,882,29.85Z"
    transform="translate(-533.78 -9.5)"
  /><path
    class="cls-1"
    d="M1005.4,9.87c10.5,4.32,20.57,9.59,30.89,14.33,3.9,1.79,7.72,3.76,11.58,5.65,0,4.44-1.33,8.65-2.06,13-1.5,8.85-3.33,17.65-4.72,26.52-1,6.59-3.08,13-3.26,19.74a2.53,2.53,0,0,1-.55.09c-2.48-1.17-5-2.4-7.46-3.51-11.06-4.92-22.19-9.68-33.18-14.76-5.07-2.34-10.45-4.05-15.16-7.17a15,15,0,0,1,.65-2.52Q993.74,35.53,1005.4,9.87Z"
    transform="translate(-533.78 -9.5)"
  /><path
    class="cls-2"
    d="M675.1,894.91q0-34,0-68c0-7.25.91-14.48.7-21.76-.09-3.35,1.45-4.61,5.07-4.62q16.9-.07,33.81,0c4.22,0,5.48,1.33,5.49,5.64q0,25.55,0,51.08c0,19.24,0,38.48-.06,57.72,0,2.42.49,3.11,3,3.1,19.22-.13,38.44-.08,57.66-.07,4.8,0,5.94,1.09,6,5.79q0,14.26,0,28.52c0,4.22-1,5.34-5.23,5.45-1.95,0-2.12.87-2.07,2.39.07,2.54-.13,5.1.06,7.63.17,2.26-.71,2.71-2.81,2.7-16.46-.08-32.92,0-49.38,0s-32.93,0-49.39.05c-2.34,0-2.92-.61-2.91-2.93C675.14,943.34,675.1,919.12,675.1,894.91Zm4-15.89c0,24,.06,48-.09,72,0,3,.85,3.57,3.68,3.56q48.7-.15,97.43,0c2.45,0,3.43-.37,3.36-3.17-.21-9-.19-17.91,0-26.86,0-2.64-.7-3.27-3.28-3.26-20,.11-40,0-60,.13-2.68,0-3.44-.53-3.43-3.36.11-36.93,0-73.85.13-110.78,0-2.74-.65-3.53-3.43-3.48-10.39.18-20.77.16-31.15,0-2.62,0-3.3.65-3.29,3.28C679.15,831,679.11,855,679.11,879Z"
    transform="translate(-533.78 -9.5)"
  /><path
    class="cls-5"
    d="M1005.4,9.87q-11.65,25.67-23.27,51.34a15,15,0,0,0-.65,2.52H948.35c-1-4.55-3.34-8.57-5.19-12.76-6.09-13.77-12.46-27.41-18.73-41.1A4.18,4.18,0,0,1,927,9.54h75.81A4.19,4.19,0,0,1,1005.4,9.87Z"
    transform="translate(-533.78 -9.5)"
  /><path
    class="cls-2"
    d="M533.84,895.11c0-23.11-.15-46.22.09-69.32.08-7,.64-14,.59-21.08,0-2.86,1.58-4.2,4.39-4.2,23.53,0,47.12-1,70.57.31,20,1.14,34.72,12.56,42.43,31.17,7.25,17.5,5.61,34.91-4,51.4-3.09,5.29-4.72,11.29-8.4,16.37-7.66,10.57-17.56,17.15-30.44,19.66-9,1.75-17.94,1-26.91,1.15-2.44,0-3.37.42-3.32,3.17.2,9.5.09,19,.07,28.52,0,4.25-1,5.39-5.16,5.49-1.8,0-2.25.6-2.16,2.27.13,2.32-.14,4.66.08,7,.25,2.63-.39,3.58-3.31,3.53-10.49-.21-21-.18-31.48,0-2.51,0-3.06-.63-3.05-3.08C533.88,943.31,533.84,919.21,533.84,895.11ZM575,904.69c9.73,0,19.12,0,28.5,0a47.85,47.85,0,0,0,12.26-1.62A47.24,47.24,0,0,0,641.8,886c11.28-14.67,13.36-31,8.67-48.4-2.81-10.39-9.32-18.55-18-24.87-7.2-5.26-15.37-8.63-24.23-8.77-22.65-.36-45.31-.09-68-.17-2.13,0-2.51.62-2.51,2.59q.09,72.84,0,145.67c0,2.14.65,2.52,2.61,2.5,10.71-.1,21.44-.13,32.15,0,2.51,0,3.1-.63,3.08-3.1-.13-14.38-.06-28.76-.07-43.14A6.43,6.43,0,0,0,575,904.69Z"
    transform="translate(-533.78 -9.5)"
  /><path
    class="cls-6"
    d="M1169.8,469.33c-.46,1.44.44,2.55,1,3.72q5.85,13.08,11.74,26.14a17.81,17.81,0,0,1-1.94-.31c-13.68-3.73-27.33-7.52-41-11.2-10-2.71-20.18-5.1-30.08-8.36a18,18,0,0,1,.94-1.73q17.47-25.87,35-51.7a7.34,7.34,0,0,0,1.46-3.6c1.38.24,1.35,1.51,1.81,2.44q2.89,5.79,5.81,11.56c3.62,9.52,8.23,18.59,12.69,27.72A7,7,0,0,0,1169.8,469.33Z"
    transform="translate(-533.78 -9.5)"
  /><path
    class="cls-6"
    d="M747.32,499.19c3.32-7.4,6.65-14.79,9.93-22.2.52-1.16,1.48-2.25.86-3.69,3-2.34,3.54-5.94,4.54-9.29,3.18-6.6,6.49-13.15,9.45-19.85,1.14-2.58,2.83-5,3.24-7.87,1.11-.86,1.38-2.19,2-3.35,1.73-3.38,2.77-7.12,5.25-10.1l16.88,25.22,20.91,31.26c-.17.14-.31.35-.51.41l-43.27,11.59Z"
    transform="translate(-533.78 -9.5)"
  /><path
    class="cls-6"
    d="M1131,232.4c5.1,2.37,9.49,5.9,14.19,8.9q13.75,8.77,27.24,18c5.61,3.82,11.68,7,16.72,11.62l-.2.68-.48,1.4.06-.09c-1.13.28-1.38,1.33-1.88,2.17-8.7,14.65-16.88,29.61-26.05,44-1.52,2.38-3.19,4.74-4,7.53-1.14.33-1.19,2-2.57,2q-3.33-13.93-6.65-27.88c-3.57-14.85-7-29.72-10.79-44.52-1.59-6.26-2.41-12.74-5.07-18.71-.29-1.49-.58-3-.86-4.47l0-.66Z"
    transform="translate(-533.78 -9.5)"
  /><path
    class="cls-5"
    d="M818,86.78c5.09,7.18,11.25,13.47,16.86,20.22,8.21,9.88,16.7,19.53,25,29.29a5.09,5.09,0,0,1,.6,1.16,1.15,1.15,0,0,1-.31.11c-7.08-.92-14.17-1.72-21.22-2.8-8.78-1.35-17.62-2.19-26.39-3.64-5.5-.91-11.09-1.44-16.63-2.24-8-1.16-16.12-1.95-24.14-3.14-6.08-.9-12.15-1.69-18.28-2.06l-.19-.19q18.38-10.45,36.75-20.9Q804,94.67,818,86.78Z"
    transform="translate(-533.78 -9.5)"
  /><path
    class="cls-5"
    d="M1069.34,137.45c4.11-5.71,9.05-10.72,13.51-16.14,9.55-11.6,19.8-22.63,29-34.53q29.81,16.81,59.6,33.64c1.72,1,3.37,2,5.06,3.07l-.2.19a9.68,9.68,0,0,0-3.26.14c-7.6,1.07-15.22,2-22.83,3-7,.91-13.92,1.82-20.88,2.78-5.86.8-11.71,1.72-17.57,2.5-6.31.85-12.63,1.58-18.94,2.4q-11.6,1.5-23.17,3.05A1.21,1.21,0,0,1,1069.34,137.45Z"
    transform="translate(-533.78 -9.5)"
  /><path
    class="cls-4"
    d="M1109.47,479.32c9.9,3.26,20,5.65,30.08,8.36,13.69,3.68,27.34,7.47,41,11.2a17.81,17.81,0,0,0,1.94.31c-1,8.18-3.23,16.12-4.94,24.16-2.07,9.68-4.37,19.3-6.57,28.95-3.28-1.63-5.11-4.81-7.37-7.41-11.09-12.74-21.88-25.75-32.86-38.59-6.35-7.43-12.86-14.71-19.26-22.09-1-1.16-1.85-2.45-2.76-3.69Z"
    transform="translate(-533.78 -9.5)"
  /><path
    class="cls-4"
    d="M747.32,499.19l29.26-7.87,43.27-11.59c.2-.06.34-.27.51-.41l.72,1.2Q809,494.76,797,509q-17.79,20.84-35.65,41.62a16.38,16.38,0,0,1-2,1.69c-.19-.27-.49-.51-.55-.8-2.27-10.07-4.4-20.17-6.79-30.21-1.39-5.84-2-11.9-4.41-17.48C747.47,502.26,747.4,500.72,747.32,499.19Z"
    transform="translate(-533.78 -9.5)"
  /><path
    class="cls-7"
    d="M759.9,1038.43c-.2-14.51,5.11-25,17.14-31.54a33.5,33.5,0,0,1,37.08,4c14.44,12.51,15.42,35.9,3,49.8-8.62,9.65-19.89,12.39-32.52,9.7C771.14,1067.49,758.92,1053.9,759.9,1038.43Zm53.16-1.57a17.29,17.29,0,0,0-.8-6.74c-2.43-8.22-7.72-13.56-16.22-15.11a19.81,19.81,0,0,0-20.59,9.59,26.12,26.12,0,0,0-2.9,17.51A20.31,20.31,0,0,0,797.33,1059C807.19,1056.55,813.05,1048.48,813.06,1036.86Z"
    transform="translate(-533.78 -9.5)"
  /><path
    class="cls-7"
    d="M980.07,1038.27c-.14-14.65,5.32-25.14,17.38-31.52a33.33,33.33,0,0,1,36.8,4.08c14.47,12.47,15.49,35.84,3.09,49.78-8.6,9.67-19.89,12.42-32.5,9.76C991.44,1067.55,979,1054,980.07,1038.27Zm53.17-1.45a17.12,17.12,0,0,0-.82-6.74c-2.43-8.22-7.74-13.55-16.25-15.08a19.83,19.83,0,0,0-20.57,9.63,26.19,26.19,0,0,0-2.87,17.53,20.3,20.3,0,0,0,24.82,16.78C1027.39,1056.53,1033.23,1048.46,1033.24,1036.82Z"
    transform="translate(-533.78 -9.5)"
  /><path
    class="cls-7"
    d="M1213.52,1038.44c-.2-14.51,5.1-25,17.14-31.55a33.51,33.51,0,0,1,37.08,4c14.44,12.5,15.42,35.89,3,49.79-8.62,9.66-19.9,12.39-32.52,9.71C1224.76,1067.49,1212.54,1053.91,1213.52,1038.44Zm53.16-1.61a17.29,17.29,0,0,0-.81-6.74c-2.44-8.22-7.74-13.55-16.24-15.08a19.82,19.82,0,0,0-20.58,9.61,26.1,26.1,0,0,0-2.87,17.52,20.29,20.29,0,0,0,24.8,16.8C1260.83,1056.54,1266.67,1048.47,1266.68,1036.83Z"
    transform="translate(-533.78 -9.5)"
  /><path
    class="cls-7"
    d="M651.91,1037.53c0-9.84.1-19.67,0-29.5-.05-2.93.93-3.84,3.81-3.78,7.94.16,15.89,0,23.84.07,11.67.1,20.53,7.51,22.49,17.21a20.9,20.9,0,0,1-9.08,21.19c-2.6,1.7-2.65,2.88-1.06,5.42,4.09,6.54,7.73,13.35,11.65,20,1.16,2,.66,2.59-1.42,2.52h-.33c-7.71,1.27-13.45-.48-16.34-8.82-1.6-4.6-4.85-8.61-7.21-13a3.49,3.49,0,0,0-3.64-2.17,31.61,31.61,0,0,1-7.6-.11c-2.88-.58-3.16.64-3.14,2.92.08,6-.11,11.93.09,17.89.09,2.72-.87,3.33-3.4,3.31-8.61-.06-8.61,0-8.61-8.65Zm21.87-2c2.55,0,5.09,0,7.63,0a7.91,7.91,0,0,0,5.17-1.83c3.74-3.07,3.77-7.2,2.76-11.22-1.15-4.54-5-6.42-9.29-6.76-4.61-.36-9.27,0-13.92-.12-1.74,0-2.31.68-2.29,2.36.06,5.09.07,10.18,0,15.26,0,1.71.59,2.4,2.32,2.34C668.7,1035.42,671.24,1035.48,673.78,1035.48Z"
    transform="translate(-533.78 -9.5)"
  /><path
    class="cls-4"
    d="M1178.25,610.68q-12-5.56-24-11.12l-47.65-22.16c-1.38-.65-2.72-1.4-4.9-2.52l68.93-21.25q3.87,28.2,7.74,56.41A2,2,0,0,1,1178.25,610.68Z"
    transform="translate(-533.78 -9.5)"
  /><path
    class="cls-7"
    d="M544.48,1037.8c0-10,.07-19.9-.05-29.85,0-2.68.72-3.75,3.55-3.7,7.62.16,15.25,0,22.87.07,9.8.1,18.13,5.95,20.5,14.29,2.86,10-.76,19.78-9.13,25.14-4.15,2.66-8.84,2.42-13.39,2.91a50.4,50.4,0,0,1-8.6,0c-2.43-.15-3.32.59-3.25,3.14.18,6,0,11.94.11,17.91.06,2.37-.78,3.12-3.06,3a44.33,44.33,0,0,0-6.62,0c-2.37.19-3-.76-3-3C544.54,1057.7,544.48,1047.75,544.48,1037.8ZM557,1025.45c0,2.32.05,4.64,0,7,0,1.59.38,2.48,2.21,2.45,4.42-.08,8.84.11,13.26-.08s7.19-4.37,7.15-9.92c0-4.67-3.2-8.5-7.35-8.63-4.31-.14-8.62,0-12.93-.06-1.7,0-2.41.57-2.34,2.31C557.11,1020.8,557,1023.12,557,1025.45Z"
    transform="translate(-533.78 -9.5)"
  /><path
    class="cls-5"
    d="M724.78,180.57c.32-2.13,1.62-3.84,2.55-5.7q12.43-24.9,24.94-49.76a16.67,16.67,0,0,1,1.06-1.62l.19.19a3.32,3.32,0,0,0,.68,2.8l30.55,53.69a3.45,3.45,0,0,1-.25.41Z"
    transform="translate(-533.78 -9.5)"
  /><path
    class="cls-5"
    d="M1176.51,123.49c5.94,11.69,12,23.35,17.81,35.1,3.63,7.3,7.73,14.37,10.73,22h-59.72a1,1,0,0,1-.25-.43q14.57-25.72,29.12-51.45c.88-1.57,2.6-2.86,2.11-5Z"
    transform="translate(-533.78 -9.5)"
  /><path
    class="cls-7"
    d="M1101.6,1037.48c-1.2-18.77,15-34.41,33.57-33.8a32.55,32.55,0,0,1,20.78,8.23c2.35,2,2.22,3.78.14,5.75l-.46.48c-4.64,4.82-4.64,4.82-10,1.22-12.46-8.4-28.69-1.7-31.42,13.15-1.65,9,.08,17.1,7.71,23.07,6.84,5.34,19.21,5.33,26.1.06,3.61-2.77,3.61-2.77,5.93,1.21l.32.58c3.46,6,3.62,6.35-2.72,9.64-19.68,10.2-45.43,3.36-49.92-23.3A37.7,37.7,0,0,1,1101.6,1037.48Z"
    transform="translate(-533.78 -9.5)"
  /><path
    class="cls-5"
    d="M882,29.85c.38,6.59,2.09,13,3.14,19.45,1.44,9,3.22,17.88,4.85,26.82.79,4.3,2.06,8.53,2,13a3.31,3.31,0,0,0-.61.19Q864,66,836.58,42.65c-.92-.78-2-1.43-2.94-2.14,5.52-2.16,11.4-2.76,17.13-4C861.14,34.17,871.56,32.05,882,29.85Z"
    transform="translate(-533.78 -9.5)"
  /><path
    class="cls-5"
    d="M1037.83,89.08c.18-6.73,2.23-13.15,3.26-19.74,1.39-8.87,3.22-17.67,4.72-26.52.73-4.32,2.1-8.53,2.06-13q23.64,5,47.28,10a4.07,4.07,0,0,1,1,.63c-8.27,6.92-16.58,13.79-24.81,20.75q-16.52,14-32.94,28A3.31,3.31,0,0,0,1037.83,89.08Z"
    transform="translate(-533.78 -9.5)"
  /><path
    class="cls-7"
    d="M908.52,1043.43c0,8.07-.07,16.14,0,24.21,0,2.26-.6,3-3,3.06-9.63.09-9.63.16-9.63-9.28,0-13.93-.07-27.86.06-41.79,0-2.79-.82-3.63-3.55-3.5-4.19.21-8.4,0-12.59.09-1.83,0-2.47-.57-2.56-2.46-.44-9.46-.5-9.45,8.8-9.45,12.81,0,25.63.05,38.44,0,2.38,0,3.27.52,3.27,3.1,0,8.83.09,8.83-8.78,8.83-2.54,0-5.09.14-7.61,0s-3,.83-3,3.07C908.58,1027.29,908.52,1035.36,908.52,1043.43Z"
    transform="translate(-533.78 -9.5)"
  /><path
    class="cls-1"
    d="M1145.33,180.58h59.72c0,6.08-1.23,12-1.94,18-.91,7.75-2,15.48-3,23.21-4-1.46-6.94-4.52-10.26-7-14.47-10.76-28.83-21.65-43.25-32.48a4.37,4.37,0,0,0-1.23-.43Z"
    transform="translate(-533.78 -9.5)"
  /><path
    class="cls-1"
    d="M724.78,180.57H784.5l0,1.33a4.3,4.3,0,0,0-1.22.43c-15.27,11.46-30.49,23-45.82,34.36-2.48,1.85-4.46,4.61-7.88,5-1-8.27-1.86-16.57-3-24.82-.5-3.55-.27-7.24-1.73-10.64C724.79,184.35,724.79,182.46,724.78,180.57Z"
    transform="translate(-533.78 -9.5)"
  /><path
    class="cls-7"
    d="M1351.54,1032.13c0,8,.09,15.92,0,23.88,0,2.55.58,3.48,3.3,3.42,8.06-.18,16.13,0,24.2-.11,2.2,0,3.09.5,3.11,2.93.05,8.4.15,8.4-8.21,8.4-10.5,0-21-.06-31.5,0-2.42,0-3.5-.4-3.48-3.22q.18-29.87,0-59.72c0-2.57.79-3.48,3.42-3.5,9.19,0,9.19-.14,9.19,9Z"
    transform="translate(-533.78 -9.5)"
  /><path
    class="cls-8"
    d="M1211.83,334.49c-1,12.4-1.91,24.81-2.93,37.21q-2,23.69-4,47.37a3.41,3.41,0,0,1-.56,1.13l-14.09.18.06-3.47a21.71,21.71,0,0,0,.78-4.18c.77-8.15,2-16.27,2.4-24.43.25-5.58,2.22-11,1.31-16.64a3.16,3.16,0,0,0,.2-.54c.23-.23.56-.42.68-.69,3.34-7.65,6.6-15.33,10-22.94C1207.65,343.12,1209,338.47,1211.83,334.49Z"
    transform="translate(-533.78 -9.5)"
  /><path
    class="cls-8"
    d="M718.21,338.53l-.21-4a5.45,5.45,0,0,1,1,1.22c2.65,6,5.15,12.12,7.9,18.1,2.64,5.77,4.71,11.8,7.89,17.31a3.16,3.16,0,0,0,.2.54,13.79,13.79,0,0,0-.07,4.92c1.53,9.6,2,19.33,3.2,29,.49,3.79.16,7.67,1.36,11.37,0,1.16,0,2.32.05,3.48l-14.15.14a9.8,9.8,0,0,1-.51-1.87q-2-23.58-3.94-47.16Q719.6,355,718.21,338.53Z"
    transform="translate(-533.78 -9.5)"
  /><path
    class="cls-9"
    d="M1190.24,420.39l14.09-.19c.26,1.28-1,1.74-1.42,2.7-1.84,1-2.66,2.89-3.94,4.37-6.22,7.22-12.2,14.65-18.58,21.72-4.47,4.95-8.32,10.44-13.21,15-4.46-9.13-9.07-18.2-12.69-27.72,7.24-3.21,14.51-6.36,21.7-9.67,3.73-1.73,7.81-2.8,11-5.59Z"
    transform="translate(-533.78 -9.5)"
  /><path
    class="cls-3"
    d="M718.21,338.53q1.38,16.49,2.77,33,2,23.58,3.94,47.16a9.8,9.8,0,0,0,.51,1.87c1.79,2.21,3.54,4.46,5.37,6.63,6.17,7.29,12.33,14.59,18.57,21.83,4.36,5.06,8.85,10,13.28,15-1,3.35-1.49,6.95-4.54,9.29-11.68-13.55-23.45-27-34.94-40.72-2.22-2.66-1.27-6.6-1.57-9.93-1.61-17.56-3-35.14-4.47-52.72-.69-8.23-1.46-16.47-2-24.71C715,342.61,716.66,340.53,718.21,338.53Z"
    transform="translate(-533.78 -9.5)"
  /><path
    class="cls-8"
    d="M1175.31,301.4c2.44-1,4.68.38,7,.66,4.53.56,9,1.42,13.54,2.06,1.58.23,1.92,1.2,2,2.51a6.12,6.12,0,0,0-.69,1.47q-2.07,12.57-4.08,25.15a9,9,0,0,0-3.24.53c-7.51,2-15,4-22.57,6,2.07-8.4,4.25-16.78,6.14-25.23.89-3.93,2.49-7.74,2.4-11.87a1,1,0,0,0,.25-.06s0-.12.07-.18l-.29.28-1.55.71A2.66,2.66,0,0,1,1175.31,301.4Z"
    transform="translate(-533.78 -9.5)"
  /><path
    class="cls-8"
    d="M732,306.63c0-1.81.94-2.36,2.67-2.59,4.34-.56,8.66-1.34,13-2.1.49-.08.91-.53,1.37-.81,1.47,1.08,4.05-1.24,4.94,1.61a35,35,0,0,0,.5,3.56q4,16.79,8.08,33.56l-4.13-1.06c-7.21-1.83-14.29-4.21-21.63-5.55-.7-4.41-1.22-8.86-2.16-13.22S733.59,311,732,306.63Z"
    transform="translate(-533.78 -9.5)"
  /><path
    class="cls-3"
    d="M754,302.74c-.89-2.85-3.47-.53-4.94-1.61-10.83-14.39-14-31.53-17.95-48.54-4.52-19.4-6.4-39.13-9.05-58.78-.41-3,1.37-5.22,2.77-7.56,1.46,3.39,1.23,7.08,1.73,10.63,1.17,8.25,2,16.55,3,24.82,2.18,9.72,4.34,19.44,6.57,29.14,1.5,6.48,2.44,13.08,4.61,19.4a7.84,7.84,0,0,0,.52,1.55c9.36,15.67,18.11,31.7,27.89,47.13,1.49,2.36,3.49,4.58,3.48,7.67-2.2-1.89-3.54-4.47-5.33-6.68C762.74,314.27,759,308,754,302.74Z"
    transform="translate(-533.78 -9.5)"
  /><path
    class="cls-7"
    d="M1193.06,333.25q2-12.58,4.08-25.15a6.12,6.12,0,0,1,.69-1.47c1.19.2,1.42,1.27,1.87,2.12,4,7.67,8,15.36,12.06,23,.49.92.86,1.79.07,2.71-2.8,4-4.18,8.63-6.14,13-3.42,7.61-6.68,15.29-10,22.94-.12.27-.45.46-.68.69-.19-1.41-.49-2.82-.57-4.24C1193.77,355.68,1194.2,344.43,1193.06,333.25Z"
    transform="translate(-533.78 -9.5)"
  /><path
    class="cls-7"
    d="M732,306.63c1.59,4.32,1.67,8.95,2.62,13.4s1.46,8.81,2.16,13.22c-.17,3.19-.55,6.35-.68,9.56-.37,9.44.06,18.91-1.26,28.31-3.18-5.51-5.25-11.54-7.89-17.31-2.75-6-5.25-12.07-7.9-18.1a5.45,5.45,0,0,0-1-1.22,1.94,1.94,0,0,1-.1-2.43q6.33-12.1,12.68-24.2A2,2,0,0,1,732,306.63Z"
    transform="translate(-533.78 -9.5)"
  /><path
    class="cls-3"
    d="M747.55,503.79c2.43,5.58,3,11.64,4.41,17.48,2.39,10,4.52,20.14,6.79,30.21.06.29.36.53.55.8l0,1.37c-.56,3.81-1.14,7.6-1.66,11.41-1.22,8.93-2.37,17.87-3.63,26.8-.79,5.62-1.24,11.3-2.58,16.84h-.7c1.62-12.54,2.84-25.15,5-37.59,1.37-7.73-1.25-14.6-2.7-21.73-2.49-12.18-5.39-24.29-8.24-36.4C743.92,509.28,746.49,506.8,747.55,503.79Z"
    transform="translate(-533.78 -9.5)"
  /><path
    class="cls-3"
    d="M1167.18,464c4.89-4.58,8.74-10.07,13.21-15,6.38-7.07,12.36-14.5,18.58-21.72,1.28-1.48,2.1-3.4,3.94-4.37,0,.22,0,.44,0,.65.42,6.44-2.84,11-7,15.58-9,9.86-17.47,20.11-26.17,30.2A7,7,0,0,1,1167.18,464Z"
    transform="translate(-533.78 -9.5)"
  /><path
    class="cls-3"
    d="M1175.31,301.4a2.66,2.66,0,0,0-1,2.05c-1,1.48-2.1,2.95-3.11,4.46a202.2,202.2,0,0,1-14.59,19.49l0-.84c.81-2.79,2.48-5.15,4-7.53,9.17-14.37,17.35-29.33,26.05-44,.5-.84.75-1.89,1.88-2.17-.62,4.57-1.54,9-4.1,13C1181.21,290.94,1178.33,296.21,1175.31,301.4Z"
    transform="translate(-533.78 -9.5)"
  /><path
    class="cls-3"
    d="M1188.47,273l.48-1.4A1.27,1.27,0,0,1,1188.47,273Z"
    transform="translate(-533.78 -9.5)"
  /><path
    class="cls-5"
    d="M825,645.75c.46-11.65.61-23.31,1.79-34.94.62-6,.19-12.1.7-18.16.46-5.47-.14-11,1.06-16.67,2.69.56,4.2,2.95,6.19,4.47,11.08,8.5,22.05,17.14,33,25.81,11.46,9.09,22.84,18.29,34.28,27.41q9.68,7.71,19.47,15.27c.69.54,1.49,1.76,2.52,1.11s.5-1.87.38-2.78c-1.13-8.38-2.36-16.74-3.53-25.11-1-7.39-2-14.78-3-22.17-1-7.06-2-14.12-3-21.19-.84-6.18-1.61-12.38-2.5-19.27,3,2.56,5.47,4.62,7.86,6.79Q932,577,943.64,587.74q10.33,9.48,20.64,19c-4.55,6.18-10.16,11.45-15.08,17.32s-10,11.65-15.3,17.21c-3.29,3.46-5.69,7.85-10.16,10.12L825,645.93Z"
    transform="translate(-533.78 -9.5)"
  /><path
    class="cls-4"
    d="M1107.52,481.81c-.91,12.37-1,24.78-2.52,37.12-.55,4.56-.39,9.22-.75,13.83-1,13.36-1.87,26.73-2.69,40.1-.16,2.61-1.87,2.18-3.25,1.83-8.84-2.22-17.85-3.51-26.77-5.27-17-3.36-34-6.59-51-9.86a4,4,0,0,1-2.6-1.27c3.92-3.86,8.47-7,12.14-11.16,7.88-5.54,14.85-12.13,21.8-18.74a3.62,3.62,0,0,0,1.22-.44c5.39-4.66,10.76-9.36,16.13-14q9.81-8.53,19.62-17.07c5.85-5.12,11.84-10.09,17.35-15.6l.32.05h.32Z"
    transform="translate(-533.78 -9.5)"
  /><path
    class="cls-4"
    d="M911.88,558.29c-3.78,2.26-8.19,2.19-12.3,3.1-9.83,2.19-19.8,3.8-29.71,5.66q-17.28,3.26-34.55,6.54c-.21,0-.43.08-.64.14-6.42,1.52-6.76,1.52-6.9-5.1-.12-5.73-.62-11.43-.91-17.14-.59-11.62-1.65-23.21-2.5-34.81-.48-6.57-1.19-13.14-1.27-19.71-.06-5.08-.91-10.09-.79-15.16l.29,0h.3a11.13,11.13,0,0,1,2,1.09c6.18,5.25,12.37,10.48,18.46,15.83,8.4,7.39,16.58,15,25.12,22.24,3,2.59,5.85,5.59,9.48,7.46,2.19,2.93,5.19,5,7.94,7.3,4.59,3.85,8.59,8.42,13.86,11.44C903.42,551.25,908,554.43,911.88,558.29Z"
    transform="translate(-533.78 -9.5)"
  /><path
    class="cls-5"
    d="M1005.34,650.54c5.13-2.23,8.82-6.46,13.19-9.73,9.24-6.9,18.14-14.26,27.17-21.44,11.52-9.16,23-18.43,34.58-27.47,6.59-5.12,13.23-10.17,19.64-15.53a5.24,5.24,0,0,1,1.4-.52c.29,3.54.83,6.83.92,10.23.28,11,.63,22,1.36,33,.6,8.89.9,17.79,1.19,26.69l.07.18c-8.67.65-17.34,1.08-26,1.44-14,.57-28.06,1.82-42.11,2.36-10.22.4-20.42,1.23-30.64,1.65l-.78-.8Z"
    transform="translate(-533.78 -9.5)"
  /><path
    class="cls-5"
    d="M965.55,606.73c10.66-10.19,21.66-20,32.68-29.81,6.24-5.55,12.31-11.29,18.56-17a2.76,2.76,0,0,1,.47,2.61c-1,6.62-2.07,13.22-3,19.85-1.07,7.83-1.93,15.68-3,23.51-.87,6.42-2.12,12.78-2.8,19.21-.89,8.52-3,16.89-3.16,25.48l0,0c-3-.77-4.32-3.64-6.17-5.65-7.5-8.13-14.72-16.51-22-24.87C973.32,615.6,969,611.58,965.55,606.73Z"
    transform="translate(-533.78 -9.5)"
  /><path
    class="cls-4"
    d="M751.4,608.7c1.34-5.54,1.79-11.22,2.58-16.84,1.26-8.93,2.41-17.87,3.63-26.8.52-3.81,1.1-7.6,1.66-11.41l68.49,21.13c-4.89,3.27-9.86,5-14.56,7.27-9.06,4.31-18.2,8.45-27.29,12.69q-15.15,7.05-30.26,14.15c-1.36.65-3,1-3.77,2.54C751.09,610.63,751.49,609.62,751.4,608.7Z"
    transform="translate(-533.78 -9.5)"
  /><path
    class="cls-4"
    d="M965.55,606.73c3.41,4.85,7.77,8.87,11.63,13.33,7.24,8.36,14.46,16.74,22,24.87,1.85,2,3.13,4.88,6.17,5.65l.78.8-.06.56c-2.07.82-4.11-.11-6.17-.1q-35,.09-69.89,0c-2.06,0-4.1.92-6.17.1l-.06-.56c4.47-2.27,6.87-6.66,10.16-10.12,5.29-5.56,10.36-11.34,15.3-17.21s10.53-11.14,15.08-17.32Z"
    transform="translate(-533.78 -9.5)"
  /><path
    class="cls-10"
    d="M911.88,558.29c-3.92-3.86-8.46-7-12.14-11.16,1.1-.06,2.2-.18,3.3-.18H1026.8c1.1,0,2.19.12,3.29.18-3.67,4.12-8.22,7.3-12.14,11.16Z"
    transform="translate(-533.78 -9.5)"
  /><path
    class="cls-4"
    d="M844.9,698.32c-6.25-2.7-11.83-6.6-17.64-10.06q-19.07-11.31-38-22.81c-2.8-1.7-5.44-3.66-8.16-5.5,5.29-.72,10.14-3,15.18-4.51,9.67-3,19.19-6.43,28.77-9.69l-.07.18a7.56,7.56,0,0,0,.75,3.84c4.82,11.76,9.78,23.46,14.44,35.28C841.88,689.41,844.18,693.6,844.9,698.32Z"
    transform="translate(-533.78 -9.5)"
  /><path
    class="cls-4"
    d="M1148.74,660c-7.09,5.21-15,9.2-22.43,13.77-13.7,8.36-27.57,16.42-41.38,24.6a21,21,0,0,1,.75-3.18q8.57-21.35,17.22-42.66c.87-2.13,2.09-4.13,2-6.55l-.07-.18q19.89,6.63,39.77,13.26A42.12,42.12,0,0,0,1148.74,660Z"
    transform="translate(-533.78 -9.5)"
  /><path
    class="cls-11"
    d="M1107.52,481.81l-.67-.52c.48-8.46,1.36-16.89,1.3-25.37-.06-9.6,1.08-19.17.72-28.77a3.71,3.71,0,0,1,.77-2.8c6.54-.28,13.13-.21,19.63-1,5.76-.66,11.59.07,17.28-1.21a1.21,1.21,0,0,1,.32.11,7.34,7.34,0,0,1-1.46,3.6q-17.55,25.82-35,51.7a18,18,0,0,0-.94,1.73l-.72,1.2Z"
    transform="translate(-533.78 -9.5)"
  /><path
    class="cls-11"
    d="M822.9,481.77h-.3l-.29,0-1.23-1.29-.72-1.2-20.91-31.26-16.88-25.22,0,.05.44-.57.31-.14c1.51.22,3,.55,4.52.63q16.2.81,32.39,1.55c.24.48.69,1,.7,1.45.12,7.1.35,14.19.61,21.29.43,11.19.37,22.39,1.53,33.55l0,0c-.57.19-.38.44-.06.7A3.4,3.4,0,0,1,822.9,481.77Z"
    transform="translate(-533.78 -9.5)"
  /><path
    class="cls-12"
    d="M1321.17,956.47c-15,.35-28.56-2.12-41.1-9.23a82,82,0,0,1-22.86-19.82c-.83-1-.49-1.72.28-2.56,6-6.63,11.87-13.35,18-19.87,1.31-1.4,2-4.32,3.91-3.94,1.41.28,2.34,2.85,3.56,4.34,11.63,14.18,26.55,20.83,44.86,19.15,4.34-.4,8.84-1.73,11.79-5.23,5.34-6.35,2.82-12.63-3.75-17.12s-14.41-5.8-22.07-7.48c-14.1-3.08-27.76-7.36-38.25-18.05-6.39-6.52-9.71-14.5-11-23.64s-.14-17.69,4.29-25.53c7.58-13.39,19.64-21.16,34.25-24.92,11.44-2.94,23-2.42,34.72-.9,14.93,2,26.66,9,36.47,19.94,4.22,4.7,4.29,4.73-.16,9-6.16,6-11.95,12.35-18.42,18-1.42,1.25-1.54.46-2.07-.23a39.68,39.68,0,0,0-23.45-15.22,34,34,0,0,0-21.35,1.66c-3.82,1.64-6.08,4.3-6.43,8.57-.41,4.88,1.47,8.43,5.77,10.75,6.93,3.76,14.59,5,22.15,6.75,11.35,2.61,22.35,6.22,32.06,13,8.71,6.1,15.29,14.11,16.67,24.57,1.83,13.92.65,27.57-9.48,39-7.46,8.43-16.6,13.39-27.27,16.33A69.26,69.26,0,0,1,1321.17,956.47Z"
    transform="translate(-533.78 -9.5)"
  /><path
    class="cls-12"
    d="M1286.61,903.31l-.7.06c0-.16.07-.33.11-.49l.54.51Z"
    transform="translate(-533.78 -9.5)"
  /><path
    class="cls-13"
    d="M923.8,651.94c2.07.82,4.11-.11,6.17-.1q34.95.09,69.89,0c2.06,0,4.1.92,6.17.1.33,1.51,1.72,1.91,2.79,2.58,7.71,4.83,15.46,9.58,23.17,14.4,11,6.9,22.12,13.74,33,20.81,4.67,3,9.64,5.62,14,9.2-1,1.12-2.27.68-3.42.68q-110.65,0-221.31,0c-1.15,0-2.46.44-3.42-.67a6,6,0,0,1,1.12-1.17c6-3.76,12.16-7.39,18.15-11.24q21.82-14,43.93-27.62C917.41,656.84,921.31,655.33,923.8,651.94Z"
    transform="translate(-533.78 -9.5)"
  /><path
    class="cls-6"
    d="M923.8,651.94c-2.49,3.39-6.39,4.9-9.76,7q-22.1,13.61-43.93,27.62c-6,3.85-12.11,7.48-18.15,11.24a6,6,0,0,0-1.12,1.17c-2.05.48-4.17,1.64-5.94-.62-.72-4.72-3-8.91-4.74-13.27-4.66-11.82-9.62-23.52-14.44-35.28a7.56,7.56,0,0,1-.75-3.84l98.77,5.45Z"
    transform="translate(-533.78 -9.5)"
  /><path
    class="cls-6"
    d="M1079,698.93c-4.31-3.58-9.28-6.18-14-9.2-10.93-7.07-22-13.91-33-20.81-7.71-4.82-15.46-9.57-23.17-14.4-1.07-.67-2.46-1.07-2.79-2.58l.06-.56c10.22-.42,20.42-1.25,30.64-1.65,14-.54,28.06-1.79,42.11-2.36,8.68-.36,17.35-.79,26-1.44.13,2.42-1.09,4.42-2,6.55q-8.67,21.3-17.22,42.66a21,21,0,0,0-.75,3.18C1083.12,700.13,1081.07,699.7,1079,698.93Z"
    transform="translate(-533.78 -9.5)"
  /><path
    class="cls-12"
    d="M1237.48,853.23c0,14.49,0,29,0,43.47,0,16.54-5.87,30.79-17.93,42a61.62,61.62,0,0,1-37.61,16.53c-10,.91-19.86.61-29.48-2.16-17.93-5.17-31.35-15.91-39.24-33.09a53.27,53.27,0,0,1-4.88-22.13c-.14-30.41,0-60.84-.12-91.25,0-2.57.63-3.48,3.34-3.44q15.75.24,31.5,0c2.81,0,3.53.85,3.52,3.58-.07,30.09-.13,60.18,0,90.27.07,12.07,9,22.31,20.64,24.88a27.35,27.35,0,0,0,32.81-20.51,40,40,0,0,0,.91-8.81q.09-43,0-86c0-2.71.62-3.52,3.42-3.47,9.94.19,19.89.16,29.84,0,2.52,0,3.37.5,3.34,3.22C1237.41,822,1237.48,837.63,1237.48,853.23Z"
    transform="translate(-533.78 -9.5)"
  /><path
    class="cls-12"
    d="M805.09,853.5c0-15.71.07-31.42-.07-47.12,0-2.68.77-3.25,3.3-3.22q15.57.23,31.16,0c2.72,0,3.48.6,3.47,3.41-.11,30.19-.35,60.39.07,90.58.18,12.63,8.88,22.08,20.88,24.81a27.5,27.5,0,0,0,29.9-13.42,24.8,24.8,0,0,0,3.46-11.93q0-44.8,0-89.6c0-2.84.46-4,3.67-3.87,10,.25,20.12.16,30.17,0,2.18,0,2.75.59,2.74,2.75-.07,31.64.22,63.28-.18,94.9-.15,11.69-4.4,22.31-11.88,31.61a60.4,60.4,0,0,1-28.06,19.77,75.22,75.22,0,0,1-29.3,3.56c-17.26-1.09-32.56-7.08-44.4-20-7.78-8.51-13.13-18.34-14.32-30.26-.92-9.15-.32-18.27-.52-27.41C804.94,869.87,805.09,861.68,805.09,853.5Z"
    transform="translate(-533.78 -9.5)"
  /><path
    class="cls-14"
    d="M1067.81,137l1.53.5c-.2.62-.41,1.24-.62,1.86a5,5,0,0,0-2.36,1.74q-25.32,25.33-50.63,50.68c-.76.76-1.78,1.4-1.71,2.7-1.14,1-1.55,2.39-2.14,3.67-7.46,16.41-15,32.8-22.28,49.3-2.16,4.9-4.94,9.56-6.13,14.87-1.92.75-3.94.47-5.92.61l-25.89-.06c-1.78,0-3.59.16-5.3-.55-1.37-5.6-4.31-10.54-6.57-15.76-4.64-10.69-9.34-21.36-14.31-31.9-3.18-6.74-5.79-13.77-9.67-20.18.05-1.44-1.11-2.1-1.94-2.93q-25.07-25.12-50.17-50.21c-.77-.77-1.42-1.72-2.59-2l-.62-1.86L862,137c1.53.08,3.07.22,4.61.22q46.32,0,92.64,0c1.21,0,2.42-.1,3.63-.16h4c.88.06,1.76.16,2.64.16q47.48,0,95,0C1065.62,137.24,1066.71,137.1,1067.81,137Zm-55.13,56.52-12.62-14.61-13.78-16c-6.3-7.34-12.67-14.63-18.86-22.05-2-2.42-3.35-2-5.14.15-5.22,6.23-10.53,12.4-15.85,18.55-7.55,8.73-15.27,17.32-22.66,26.19-2.09,2.51-4.94,4.57-6,7.76Z"
    transform="translate(-533.78 -9.5)"
  /><path
    class="cls-6"
    d="M962.91,137.09c-1.21.06-2.42.16-3.63.16q-46.32,0-92.64,0c-1.54,0-3.08-.14-4.61-.22q14.18-22.68,28.39-45.36a4.83,4.83,0,0,0,1-2.39,3.31,3.31,0,0,1,.61-.19,2.53,2.53,0,0,0,.55.09c.23.36.38.85.71,1.07q8.44,5.72,17,11.37,25.15,16.68,50.3,33.35C961.39,135.54,962.55,135.89,962.91,137.09Z"
    transform="translate(-533.78 -9.5)"
  /><path
    class="cls-15"
    d="M860.49,137.52c.21.62.41,1.24.62,1.86-1.12,1.75-1.05,3.82-1.43,5.74-3.3,16.39-6.5,32.8-9.73,49.21-.39.48-.77,1-1.16,1.46-8.61,6.33-17.19,12.69-25.83,19-8,5.83-15.69,12.1-24,17.52,0-.41.08-.83.11-1.24q16.29-24.9,32.59-49.81,13.49-20.59,27-41.19l1.5-2.48a1.15,1.15,0,0,0,.31-.11Z"
    transform="translate(-533.78 -9.5)"
  /><path
    class="cls-6"
    d="M1067.81,137c-1.1.08-2.19.22-3.29.22q-47.48,0-95,0c-.88,0-1.76-.1-2.64-.16.26-.34.44-.79.77-1q28.26-18.83,56.53-37.65c4.43-3,9.23-5.44,13.06-9.26a2.53,2.53,0,0,0,.55-.09,3.31,3.31,0,0,1,.61.19c1.82,5,5,9.21,7.87,13.59C1053.6,114.18,1060.69,125.61,1067.81,137Z"
    transform="translate(-533.78 -9.5)"
  /><path
    class="cls-15"
    d="M1068.72,139.38c.21-.62.42-1.24.62-1.86v-.07a1.21,1.21,0,0,0,.32.11l1.51,2.49,59.58,91c.08.45.17.9.25,1.36l-.31-.05q-9.3-6.82-18.59-13.68-15.54-11.43-31.07-22.89c-.38-.48-.76-1-1.15-1.45-2.17-11.23-4.25-22.48-6.54-33.69C1071.89,153.54,1070.82,146.35,1068.72,139.38Z"
    transform="translate(-533.78 -9.5)"
  /><path
    class="cls-12"
    d="M1021.15,803.83c20,0,40,.06,60-.06,2.67,0,3.24.75,3.2,3.27-.16,8.85-.24,17.7,0,26.54.09,3.12-1,3.52-3.69,3.49-13-.14-26.08,0-39.12-.13-2.56,0-2.94.69-2.93,3.07.09,37,0,74.09.13,111.14,0,2.78-.68,3.46-3.43,3.41-10.17-.18-20.34-.22-30.5,0-3.09.07-3.51-.93-3.51-3.68.1-36.72,0-73.43.13-110.15,0-2.84-.46-3.89-3.65-3.83-12.48.22-25,0-37.45.15-2.49,0-3.21-.62-3.16-3.13q.21-13.61,0-27.2c0-2.33.64-3,3-3C980.49,803.87,1000.82,803.83,1021.15,803.83Z"
    transform="translate(-533.78 -9.5)"
  /><path
    class="cls-6"
    d="M1130.75,231l-59.58-91c4.29,1.75,8.15,4.32,12.19,6.55,14.35,7.93,28.64,16,43,23.8,6.16,3.37,12,7.34,18.69,9.75a1,1,0,0,0,.25.43l0,1.33c-2,4.29-2.72,9-4,13.5-3.36,11.49-6.61,23-9.92,34.52A5,5,0,0,1,1130.75,231Z"
    transform="translate(-533.78 -9.5)"
  /><path
    class="cls-4"
    d="M1037.28,89.17c-3.83,3.82-8.63,6.29-13.06,9.26q-28.22,18.9-56.53,37.65c-.33.22-.51.67-.77,1h-4c-.36-1.2-1.52-1.55-2.4-2.13q-25.12-16.71-50.3-33.35-8.51-5.64-17-11.37c-.33-.22-.48-.71-.71-1.07,9.42-4.26,18.84-8.55,28.28-12.78,8.63-3.87,17.3-7.66,25.95-11.52a9,9,0,0,0,1.57-1.14h33.13c4.71,3.12,10.09,4.83,15.16,7.17,11,5.08,22.12,9.84,33.18,14.76C1032.33,86.77,1034.8,88,1037.28,89.17Z"
    transform="translate(-533.78 -9.5)"
  /><path
    class="cls-12"
    d="M679.11,879c0-24,0-48-.07-72,0-2.63.67-3.32,3.29-3.28,10.38.15,20.76.17,31.15,0,2.78,0,3.44.74,3.43,3.48-.09,36.93,0,73.85-.13,110.78,0,2.83.75,3.37,3.43,3.36,20-.13,40,0,60-.13,2.58,0,3.33.62,3.28,3.26-.18,9-.2,17.91,0,26.86.07,2.8-.91,3.18-3.36,3.17q-48.72-.1-97.43,0c-2.83,0-3.7-.53-3.68-3.56C679.17,927,679.11,903,679.11,879Z"
    transform="translate(-533.78 -9.5)"
  /><path
    class="cls-12"
    d="M575,904.69a6.43,6.43,0,0,1,.58,3.63c0,14.38-.06,28.76.07,43.14,0,2.47-.57,3.13-3.08,3.1-10.71-.15-21.44-.12-32.15,0-2,0-2.61-.36-2.61-2.5q.11-72.84,0-145.67c0-2,.38-2.6,2.51-2.59,22.65.08,45.31-.19,68,.17,8.86.14,17,3.51,24.23,8.77,8.67,6.32,15.18,14.48,18,24.87,4.69,17.36,2.61,33.73-8.67,48.4a47.24,47.24,0,0,1-26.08,17.09,47.85,47.85,0,0,1-12.26,1.62C594.08,904.68,584.69,904.69,575,904.69Zm0-50.75c0,4.87.08,9.73,0,14.6,0,1.86.48,2.41,2.37,2.39,7.73-.11,15.46-.07,23.2,0a9.19,9.19,0,0,0,3.13-.67c6.59-2.31,12.09-9.26,10.49-19.61a15.5,15.5,0,0,0-15.27-13.54c-7.28-.25-14.58,0-21.87-.09-1.59,0-2.08.44-2,2C575,844,575,849,575,853.94Z"
    transform="translate(-533.78 -9.5)"
  /><path
    class="cls-15"
    d="M1187.21,421c-3.21,2.78-7.29,3.85-11,5.58-7.19,3.31-14.46,6.46-21.7,9.67q-2.91-5.78-5.81-11.56c-.46-.93-.43-2.2-1.81-2.44a1.21,1.21,0,0,0-.32-.11c0-.44,0-.88,0-1.32,1.08-.43.23-2,1.69-2.52-.66,2.93,1.23,2.54,3,2.54Q1169.22,420.93,1187.21,421Z"
    transform="translate(-533.78 -9.5)"
  /><path
    class="cls-9"
    d="M762.65,464c-4.43-5-8.92-10-13.28-15-6.24-7.24-12.4-14.54-18.57-21.83-1.83-2.17-3.58-4.42-5.37-6.63l14.15-.14,3,.65c.26.34.44.84.78,1q16,7.17,31.94,14.26c-.41,2.9-2.1,5.29-3.24,7.87C769.14,450.86,765.83,457.41,762.65,464Z"
    transform="translate(-533.78 -9.5)"
  /><path
    class="cls-15"
    d="M775.34,436.29q-16-7.11-31.94-14.26c-.34-.15-.52-.65-.78-1q18-.07,36-.15c1.73,0,3.62.39,3-2.54,1.46.54.61,2.09,1.69,2.52l0,1.32-.31.14-.44.57,0-.05c-2.48,3-3.52,6.72-5.25,10.1C776.72,434.1,776.45,435.43,775.34,436.29Z"
    transform="translate(-533.78 -9.5)"
  /><path
    class="cls-15"
    d="M1131.52,237.48c2.66,6,3.48,12.45,5.07,18.71,3.75,14.8,7.22,29.67,10.79,44.52q3.34,13.94,6.64,27.88c0,.23-.08.46-.13.69a18,18,0,0,1-3.56-.41c-7.86-1.78-15.55-4.28-23.52-5.61-4.75,1.17-9,3.66-13.42,5.53l-1.16-.64a5.11,5.11,0,0,0-.52-1.53q-12-15.56-24.08-31.07c.66-2.54,1.34-5.07,2-7.61,1.93-7.72,3.33-15.58,6.05-23.09,3.11,2.38,4.07,6.16,5.78,9.36,7.39,13.81,14.43,27.8,21.64,41.7,1,1.91,2.18,3.72,3.42,5.82a20.87,20.87,0,0,0,.85-3.9c.17-14.2,1.35-28.34,1.93-42.51.3-7.47.6-15,1-22.43C1130.57,247.78,1129.88,242.51,1131.52,237.48Z"
    transform="translate(-533.78 -9.5)"
  /><path
    class="cls-10"
    d="M1131.52,237.48c-1.64,5-1,10.3-1.24,15.41-.41,7.45-.71,15-1,22.43-.58,14.17-1.76,28.31-1.93,42.51a20.87,20.87,0,0,1-.85,3.9c-1.24-2.1-2.43-3.91-3.42-5.82-7.21-13.9-14.25-27.89-21.64-41.7-1.71-3.2-2.67-7-5.78-9.36,0-.68,0-1.36,0-2.05a11.59,11.59,0,0,1,1.29-1.5q16.82-14.16,33.67-28.29C1130.94,234.5,1131.23,236,1131.52,237.48Z"
    transform="translate(-533.78 -9.5)"
  /><path
    class="cls-8"
    d="M1130.66,233q-16.85,14.15-33.67,28.29a11.59,11.59,0,0,0-1.29,1.5l-.81-.45a14.13,14.13,0,0,0-.33-3.6c-1.28-5.44-2.44-10.9-3.64-16.36-1.88-8.45-3.89-16.87-5.6-25.36-1.42-7.08-3.41-14.06-4.29-21.25q15.54,11.44,31.07,22.89,9.3,6.86,18.59,13.68Z"
    transform="translate(-533.78 -9.5)"
  /><path
    class="cls-9"
    d="M1153.89,329.28c0-.23.09-.46.13-.69,1.39,0,1.44-1.7,2.58-2l0,.84c-1.66,2.26-.75,3.93,1.22,5.37a9.6,9.6,0,0,1,1.81,1.4c2.16,2.56,5.88,3.58,7,7.13,0,.62.06,1.25.1,1.87q-9.09,36.94-18.16,73.89a29.47,29.47,0,0,1-.54-8.22c1-13.38,2-26.77,3.4-40.11.71-6.79,1.13-13.6,1.64-20.39C1153.55,342,1154.41,335.67,1153.89,329.28Z"
    transform="translate(-533.78 -9.5)"
  /><path
    class="cls-1"
    d="M860.18,137.56l-1.5,2.48c-4.3,1.75-8.16,4.32-12.2,6.55-14.35,7.93-28.64,16-43,23.82-6.17,3.36-12,7.32-18.69,9.76L754.2,126.48a3.32,3.32,0,0,1-.68-2.8c6.13.37,12.2,1.16,18.28,2.06,8,1.19,16.11,2,24.14,3.14,5.54.8,11.13,1.33,16.63,2.24,8.77,1.45,17.61,2.29,26.39,3.64C846,135.84,853.1,136.64,860.18,137.56Z"
    transform="translate(-533.78 -9.5)"
  /><path
    class="cls-1"
    d="M1145.08,180.15c-6.67-2.41-12.53-6.38-18.69-9.75-14.39-7.84-28.68-15.87-43-23.8-4-2.23-7.9-4.8-12.19-6.55l-1.51-2.49q11.58-1.53,23.17-3.05c6.31-.82,12.63-1.55,18.94-2.4,5.86-.78,11.71-1.7,17.57-2.5,7-1,13.92-1.87,20.88-2.78,7.61-1,15.23-1.94,22.83-3a9.68,9.68,0,0,1,3.26-.14c.49,2.16-1.23,3.45-2.11,5Q1159.7,154.46,1145.08,180.15Z"
    transform="translate(-533.78 -9.5)"
  /><path
    class="cls-6"
    d="M784.75,180.17c6.65-2.44,12.52-6.4,18.69-9.76,14.4-7.86,28.69-15.89,43-23.82,4-2.23,7.9-4.8,12.2-6.55q-13.5,20.6-27,41.19-16.3,24.9-32.59,49.81a5.39,5.39,0,0,1-.65-1.1c-3.31-11.51-6.56-23-9.92-34.53-1.32-4.51-2-9.21-4-13.5l0-1.33A3.45,3.45,0,0,0,784.75,180.17Z"
    transform="translate(-533.78 -9.5)"
  /><path
    class="cls-4"
    d="M784.47,181.91c2,4.29,2.72,9,4,13.5,3.36,11.49,6.61,23,9.92,34.53a5.39,5.39,0,0,0,.65,1.1c0,.41-.07.83-.11,1.24a1,1,0,0,1-.41.09c-2.64,1-4.61,3-6.91,4.44-9,5.83-18,11.78-27,17.69l-23.94,15.74c-2.17-6.32-3.11-12.92-4.61-19.4-2.23-9.7-4.39-19.42-6.57-29.14,3.42-.39,5.4-3.15,7.88-5,15.33-11.38,30.55-22.9,45.82-34.36A4.3,4.3,0,0,1,784.47,181.91Z"
    transform="translate(-533.78 -9.5)"
  /><path
    class="cls-10"
    d="M1153.89,329.28c.52,6.39-.34,12.73-.82,19.06-.51,6.79-.93,13.6-1.64,20.39-1.38,13.34-2.35,26.73-3.4,40.11a29.47,29.47,0,0,0,.54,8.22l18.15-73.89c1.52.42,1.41,1.89,1.73,2.95,1.09,3.57,1.94,7.22,3,10.8q7.8,26.74,15.71,53.45c.68,2.3.48,5.15,3.15,6.54l-.06,3.47-3,.65q-18-.07-36-.15c-1.73,0-3.62.39-3-2.54-1.46.54-.61,2.09-1.69,2.52-1.22-3.19-1.6-6.57-2.27-9.89q-4.82-24-9.63-47.89c-2.65-13.27-5.24-26.55-7.86-39.82,8,1.33,15.66,3.83,23.52,5.61A18,18,0,0,0,1153.89,329.28Z"
    transform="translate(-533.78 -9.5)"
  /><path
    class="cls-11"
    d="M1190.3,416.91c-2.67-1.39-2.47-4.24-3.15-6.54q-8-26.69-15.71-53.45c-1-3.58-1.9-7.23-3-10.8-.32-1.06-.21-2.53-1.73-2.95l-.09-1.87.56-.08a5.57,5.57,0,0,1,1.07.76c5.61,6.35,11.18,12.74,16.81,19.07,3.19,3.58,6.48,7.08,9.72,10.61.91,5.64-1.06,11.06-1.31,16.64-.37,8.16-1.63,16.28-2.4,24.43A21.71,21.71,0,0,1,1190.3,416.91Z"
    transform="translate(-533.78 -9.5)"
  /><path
    class="cls-10"
    d="M1194.79,371.66c-3.24-3.53-6.53-7-9.72-10.61-5.63-6.33-11.2-12.72-16.81-19.07a5.57,5.57,0,0,0-1.07-.76l.06-1.42c7.53-2,15.06-4,22.57-6a9,9,0,0,1,3.24-.53c1.14,11.18.71,22.43,1.36,33.63.08,1.42.38,2.83.57,4.24A3.16,3.16,0,0,1,1194.79,371.66Z"
    transform="translate(-533.78 -9.5)"
  /><path
    class="cls-10"
    d="M783.26,420.86c-1.08-.43-.23-2-1.69-2.52.66,2.93-1.23,2.54-3,2.54q-18,0-36,.15l-3-.64c0-1.16,0-2.32-.05-3.48,1.52-.3,1.65-1.61,2-2.75q1.5-5.06,3-10.12c5-17.08,9.86-34.18,14.92-51.23,1-3.23,1.33-6.69,3.25-9.61.84.56.89,1.54,1.09,2.35q7.79,31.93,15.5,63.91c.62,2.56,1.36,5.1,2,7.64a60.55,60.55,0,0,0,.09-11c-.83-13.85-2.32-27.63-3.46-41.45-.95-11.62-1.51-23.27-2.87-34.86a4.29,4.29,0,0,1,.14-.62l.66.07a14.19,14.19,0,0,0,3.88-.44c7.79-1.72,15.38-4.24,23.27-5.53-1.18,6.15-2.32,12.32-3.55,18.46q-5.78,28.8-11.62,57.59C786.38,406.51,785.38,413.8,783.26,420.86Z"
    transform="translate(-533.78 -9.5)"
  /><path
    class="cls-11"
    d="M762.67,343.2c-1.92,2.92-2.29,6.38-3.25,9.61-5.06,17.05-10,34.15-14.92,51.23q-1.47,5.07-3,10.12c-.34,1.14-.47,2.45-2,2.75-1.2-3.7-.87-7.58-1.36-11.37-1.24-9.63-1.67-19.36-3.2-29a13.79,13.79,0,0,1,.07-4.92c5.23-5.74,10.56-11.39,15.66-17.25,3.89-4.48,7.62-9.08,11.92-13.19C762.64,341.88,762.65,342.54,762.67,343.2Z"
    transform="translate(-533.78 -9.5)"
  /><path
    class="cls-10"
    d="M762.62,341.22c-4.3,4.11-8,8.71-11.92,13.19-5.1,5.86-10.43,11.51-15.66,17.25a3.16,3.16,0,0,1-.2-.54c1.32-9.4.89-18.87,1.26-28.31.13-3.21.51-6.37.68-9.56,7.34,1.34,14.42,3.72,21.63,5.55l4.13,1.06.37.11C762.81,340.39,762.72,340.81,762.62,341.22Z"
    transform="translate(-533.78 -9.5)"
  /><path
    class="cls-15"
    d="M1167.25,339.8l-.06,1.42-.56.08c-1.15-3.55-4.87-4.57-7-7.13a9.6,9.6,0,0,0-1.81-1.4c-2-1.44-2.88-3.11-1.22-5.37a202.2,202.2,0,0,0,14.59-19.49c1-1.51,2.07-3,3.11-4.46l1.55-.71,0,0c.09,4.13-1.51,7.94-2.4,11.87C1171.5,323,1169.32,331.4,1167.25,339.8Z"
    transform="translate(-533.78 -9.5)"
  /><path
    class="cls-15"
    d="M1175.82,302.74l.29-.28c0,.06,0,.15-.07.18a1,1,0,0,1-.25.06Z"
    transform="translate(-533.78 -9.5)"
  /><path
    class="cls-15"
    d="M754,302.74c5,5.29,8.78,11.53,13.33,17.17,1.79,2.21,3.13,4.79,5.33,6.68h0l.65.81a1.72,1.72,0,0,0,1.39,1.8,2,2,0,0,1,.1.59c-3.37,4.07-7.64,7.08-11.84,10.18l-.37-.11q-4-16.78-8.08-33.56A35,35,0,0,1,754,302.74Z"
    transform="translate(-533.78 -9.5)"
  /><path
    class="cls-6"
    d="M774.75,329.79a2,2,0,0,0-.1-.59c0-1.12-.24-2.15-1.47-2.59l-.57,0h0c0-3.09-2-5.31-3.48-7.67-9.78-15.43-18.53-31.46-27.89-47.13a7.84,7.84,0,0,1-.52-1.55l23.94-15.74c9-5.91,17.94-11.86,27-17.69,2.3-1.48,4.27-3.48,6.91-4.44a1.79,1.79,0,0,0,0,.61l-.24,4.5a7,7,0,0,0-1.23,3c-3.23,13.35-6.51,26.69-9.73,40q-5.8,24-11.54,48.08l-.61.54a4.29,4.29,0,0,0-.14.62Z"
    transform="translate(-533.78 -9.5)"
  /><path
    class="cls-8"
    d="M1030.09,547.13c-1.1-.06-2.19-.18-3.29-.18H903c-1.1,0-2.2.12-3.3.18-5.27-3-9.27-7.59-13.86-11.44-2.75-2.29-5.75-4.37-7.94-7.3l.12-.19c6.8-2.24,13.55-4.6,20.41-6.67,5.24-1.58,10.17-4.49,15.8-4.5,33.76-.07,67.53,0,101.29,0a15.12,15.12,0,0,1,4.85.84c10.44,3.5,20.91,6.93,31.37,10.38l.11.19C1044.94,535,1038,541.59,1030.09,547.13Z"
    transform="translate(-533.78 -9.5)"
  /><path
    class="cls-6"
    d="M1106.21,481.24c-5.51,5.51-11.5,10.48-17.35,15.6q-9.79,8.57-19.62,17.07c-5.37,4.68-10.74,9.38-16.13,14a3.62,3.62,0,0,1-1.22.44l-.11-.19c0-.35,0-.71,0-1.07l-.69-.74,0,0c0-2.3-1.19-4.21-2-6.25q-11.79-30.84-23.61-61.67c-3.45-9-6.8-18.12-10.2-27.17a24.64,24.64,0,0,1,2.41,1q27.33,15,54.63,30.08C1083.67,468.7,1095.17,474.56,1106.21,481.24Z"
    transform="translate(-533.78 -9.5)"
  /><path
    class="cls-8"
    d="M1106.21,481.24c-11-6.68-22.54-12.54-33.83-18.78q-27.29-15.09-54.63-30.08a24.64,24.64,0,0,0-2.41-1l-.73-.42a2,2,0,0,0-.57-.24l.58-.53a115,115,0,0,1,17.63-1.84c11.5-.61,23-1.19,34.49-2,14.23-1,28.53-.77,42.75-2.16l.15.18a3.68,3.68,0,0,0-.77,2.79c.36,9.6-.78,19.17-.72,28.77.06,8.48-.82,16.91-1.3,25.37h-.32Z"
    transform="translate(-533.78 -9.5)"
  /><path
    class="cls-6"
    d="M822.9,481.77a3.4,3.4,0,0,0,.09-.46c.07-.07.19-.15.19-.22a2.14,2.14,0,0,0-.13-.48l0,0c3.64-.71,6.48-3.06,9.61-4.77,19.27-10.47,38.46-21.07,57.7-31.58,8-4.38,16.1-8.64,24.15-13-1.53,4.11-3,8.24-4.6,12.34-8.32,21.69-16.75,43.32-24.9,65.06-2.2,5.85-5,11.5-6.28,17.69l0,0-.69.74c0,.36,0,.71,0,1.07l-.12.19c-3.63-1.87-6.43-4.87-9.48-7.46-8.54-7.21-16.72-14.85-25.12-22.24-6.09-5.35-12.28-10.58-18.46-15.83A11.13,11.13,0,0,0,822.9,481.77Z"
    transform="translate(-533.78 -9.5)"
  /><path
    class="cls-8"
    d="M1126.81,323.26c2.62,13.27,5.21,26.55,7.86,39.82q4.78,24,9.63,47.89c.67,3.32,1,6.7,2.27,9.89,0,.44,0,.88,0,1.32-5.69,1.28-11.52.55-17.28,1.21-6.5.75-13.09.68-19.63,1l-.15-.17c.21-2.85.49-5.69.62-8.55.3-6.16.45-12.35.5-18.49.13-16.11,1.56-32.16,1.74-48.27.07-6.66-.13-13.43,1-20.08C1117.86,326.92,1122.06,324.43,1126.81,323.26Z"
    transform="translate(-533.78 -9.5)"
  /><path
    class="cls-8"
    d="M914.49,431.34c-8,4.32-16.13,8.58-24.15,13-19.24,10.51-38.43,21.11-57.7,31.58-3.13,1.71-6,4.06-9.61,4.77-1.16-11.16-1.1-22.36-1.53-33.55-.26-7.1-.49-14.19-.61-21.29,0-.49-.46-1-.7-1.46l.15-.17c4.48.43,8.95,1.2,13.43,1.22,14.21.06,28.36,1,42.52,2,7.24.52,14.53.37,21.78.84,5.68.37,11.33,1.22,17,1.85a1.56,1.56,0,0,1,.17.64Z"
    transform="translate(-533.78 -9.5)"
  /><path
    class="cls-8"
    d="M783.26,420.86c2.12-7.06,3.12-14.35,4.58-21.55q5.85-28.79,11.62-57.59c1.23-6.14,2.37-12.31,3.55-18.46.43-.33.79-.06,1.21.1,4.3,1.66,8.28,4.09,12.79,5.22.09,6.16.28,12.31.51,18.46q.63,17,1.32,33.95c.58,14.39.7,28.8,1.5,43.19l-.15.17q-16.19-.75-32.39-1.54c-1.51-.08-3-.41-4.52-.63C783.27,421.74,783.26,421.3,783.26,420.86Z"
    transform="translate(-533.78 -9.5)"
  /><path
    class="cls-8"
    d="M823.05,480.61a2.14,2.14,0,0,1,.13.48c0,.07-.12.15-.19.22C822.67,481.05,822.48,480.8,823.05,480.61Z"
    transform="translate(-533.78 -9.5)"
  /><path class="cls-6" d="M782.53,422.89l.44-.57Z" transform="translate(-533.78 -9.5)" /><path
    class="cls-7"
    d="M848.79,195.79c.39-.49.77-1,1.16-1.46,1.1.06,2.2.17,3.3.17h62.56c3.88,6.41,6.49,13.44,9.67,20.18,5,10.54,9.67,21.21,14.31,31.9,2.26,5.22,5.2,10.16,6.57,15.76H834.94a14.17,14.17,0,0,1,.33-3.6c1.28-5.44,2.44-10.9,3.65-16.36,1.87-8.45,3.88-16.87,5.59-25.36C845.93,210,847.92,203,848.79,195.79Z"
    transform="translate(-533.78 -9.5)"
  /><path
    class="cls-7"
    d="M1081,195.78c.88,7.19,2.87,14.17,4.29,21.25,1.71,8.49,3.72,16.91,5.6,25.36,1.2,5.46,2.36,10.92,3.64,16.36a14.13,14.13,0,0,1,.33,3.6H983.47c1.19-5.31,4-10,6.13-14.87,7.28-16.5,14.82-32.89,22.28-49.3.59-1.28,1-2.7,2.14-3.67q20.68,0,41.38,0c8.16,0,16.32-.11,24.48-.17C1080.27,194.81,1080.65,195.3,1081,195.78Z"
    transform="translate(-533.78 -9.5)"
  /><path
    class="cls-9"
    d="M983.47,262.34h111.42l.81.45c0,.69,0,1.37,0,2.05-2.72,7.51-4.12,15.37-6.05,23.09-.63,2.54-1.31,5.07-2,7.61-1.45-.44-2.9-.89-4.35-1.31-5.85-1.66-11.32-4.52-17.36-5.55-.29-1.37-1.36-1.18-2.34-1.18H1034c-1,0-2.06-.22-2.28,1.21-2.35.74-3.54,2.88-5.21,4.41-8.31,7.66-16.83,15.1-24.44,23.49a1.32,1.32,0,0,1-1.88-.09c-1.08-4.29-3.11-8.21-4.93-12.18-1.72-3.75-2.6-7.91-5.41-11.13-.89-1.93-.74-4.25-2.26-5.94-.34-1-.63-2.1-1-3.1q-4.44-10.63-8.94-21.24C979.53,262.81,981.55,263.09,983.47,262.34Z"
    transform="translate(-533.78 -9.5)"
  /><path
    class="cls-9"
    d="M834.94,262.35H946.36c1.71.71,3.52.53,5.3.55-.34.92-.66,1.86-1,2.77-2.9,7.26-6.52,14.22-9,21.66-.94.61-.72,1.74-1.15,2.58-1.32,2.87-2.8,5.66-3.92,8.6-2.29,6-5.48,11.66-6.92,18-.62.31-1.17,1.2-1.92.2a7.38,7.38,0,0,0-.71-1.1c-7.75-8.59-17-15.52-25.56-23.26-1.41-1.28-2.53-3.14-4.62-3.6-.22-1.43-1.33-1.2-2.29-1.21H864.92c-1,0-2-.18-2.33,1.18-1.58-.06-3,.72-4.43,1.09-5.51,1.39-10.37,4.61-16,5.77a44,44,0,0,1-2.62-8.15c-2-7.27-3.31-14.75-6-21.84l0-2.87C834.09,262.72,834.59,262.81,834.94,262.35Z"
    transform="translate(-533.78 -9.5)"
  /><path
    class="cls-7"
    d="M1012.68,193.54H917.79c1-3.19,3.89-5.25,6-7.76,7.39-8.87,15.11-17.46,22.66-26.19,5.32-6.15,10.63-12.32,15.85-18.55,1.79-2.14,3.13-2.57,5.14-.15,6.19,7.42,12.56,14.71,18.86,22.05l13.78,16Z"
    transform="translate(-533.78 -9.5)"
  /><path
    class="cls-8"
    d="M915.81,194.5H853.25c-1.1,0-2.2-.11-3.3-.17,3.23-16.41,6.43-32.82,9.73-49.21.38-1.92.31-4,1.43-5.74,1.17.26,1.82,1.21,2.59,2q25.09,25.09,50.17,50.21C914.7,192.4,915.86,193.06,915.81,194.5Z"
    transform="translate(-533.78 -9.5)"
  /><path
    class="cls-8"
    d="M1079.88,194.33c-8.16.06-16.32.16-24.48.17q-20.69,0-41.38,0c-.07-1.3,1-1.94,1.71-2.7q25.3-25.35,50.63-50.68a5,5,0,0,1,2.36-1.74c2.1,7,3.17,14.16,4.62,21.26C1075.63,171.85,1077.71,183.1,1079.88,194.33Z"
    transform="translate(-533.78 -9.5)"
  /><path
    class="cls-10"
    d="M941.64,287.32c2.47-7.44,6.09-14.4,9-21.66.37-.91.69-1.85,1-2.77l25.89.06q4.49,10.62,8.94,21.24c.42,1,.71,2.06,1,3.1Z"
    transform="translate(-533.78 -9.5)"
  /><path
    class="cls-8"
    d="M834.94,262.35c-.35.46-.85.37-1.33.34a4.56,4.56,0,0,0-.78-1.39c-8.15-6.87-16.26-13.81-24.55-20.53-3.22-2.62-6-5.85-9.73-7.79a1.79,1.79,0,0,1,0-.61,1,1,0,0,0,.41-.09c8.3-5.42,16-11.69,24-17.52,8.64-6.28,17.22-12.64,25.83-19-.87,7.19-2.86,14.16-4.28,21.24-1.71,8.49-3.72,16.91-5.59,25.36-1.21,5.46-2.37,10.92-3.65,16.36A14.17,14.17,0,0,0,834.94,262.35Z"
    transform="translate(-533.78 -9.5)"
  /><path
    class="cls-2"
    d="M575,853.94c0-5,.06-10,0-14.92,0-1.6.45-2.06,2-2,7.29.08,14.59-.16,21.87.09a15.5,15.5,0,0,1,15.27,13.54c1.6,10.35-3.9,17.3-10.49,19.61a9.19,9.19,0,0,1-3.13.67c-7.74,0-15.47-.07-23.2,0-1.89,0-2.42-.53-2.37-2.39C575,863.67,575,858.81,575,853.94Zm15.26,13.62h8.94c3.56,0,6.25-1.79,8.65-4.2a1.83,1.83,0,0,0,.33-2.57,14.62,14.62,0,0,0-9.83-7.21c-6.1-1.28-12.26-.27-18.37-.65-1.68-.11-1.69.82-1.67,2,0,3.53.09,7.07,0,10.6,0,1.61.47,2.08,2,2C583.6,867.47,586.91,867.55,590.22,867.56Z"
    transform="translate(-533.78 -9.5)"
  /><path
    class="cls-7"
    d="M1113.39,328.79c-1.17,6.65-1,13.42-1,20.08-.18,16.11-1.61,32.16-1.74,48.27,0,6.14-.2,12.33-.5,18.49-.13,2.86-.41,5.7-.62,8.55-14.22,1.39-28.52,1.2-42.75,2.16-11.5.78-23,1.36-34.49,2a115,115,0,0,0-17.63,1.84,6.38,6.38,0,0,0-1.15-2.87l-.09-.06c2.28-.37,1.58-2.32,1.94-3.7a4.35,4.35,0,0,0,1.32-2.58q4.67-16,9.38-31.91l17.16-58.42,57-2a74.48,74.48,0,0,0,12-.44Z"
    transform="translate(-533.78 -9.5)"
  /><path
    class="cls-10"
    d="M1112.23,328.15a74.48,74.48,0,0,1-12,.44c.43-1.32-.59-2-1.25-2.85-4.42-5.64-8.92-11.21-13.22-16.94a9.43,9.43,0,0,0-4.93-3.56c-6-1.9-11.86-4-17.79-6,.6-3.62,1.2-7.24,2.92-10.55,6,1,11.51,3.89,17.36,5.55,1.45.42,2.9.87,4.35,1.31q12,15.52,24.08,31.07A5.11,5.11,0,0,1,1112.23,328.15Z"
    transform="translate(-533.78 -9.5)"
  /><path
    class="cls-15"
    d="M833.58,265.56c2.69,7.09,4,14.57,6,21.84a44,44,0,0,0,2.62,8.15c-5.35,6.9-10.79,13.74-16,20.75-2.91,3.91-6.53,7.32-8.6,11.85l-.59.43c-4.51-1.13-8.49-3.56-12.79-5.22-.42-.16-.78-.43-1.21-.1-7.89,1.29-15.48,3.81-23.27,5.53a14.19,14.19,0,0,1-3.88.44,2.47,2.47,0,0,0-.05-.61q5.76-24,11.54-48.08c3.22-13.35,6.5-26.69,9.73-40a7,7,0,0,1,1.23-3c1.62,5.58.81,11.37,1.3,17,.74,8.63.89,17.33,1.42,26,.7,11.52,1,23.07,1.39,34.61a16.08,16.08,0,0,0,1.22,6.68c8.26-15.93,16.25-31.51,24.41-47C829.72,271.66,831,268.22,833.58,265.56Z"
    transform="translate(-533.78 -9.5)"
  /><path
    class="cls-9"
    d="M774.75,329.79h.31c1.36,11.59,1.92,23.24,2.87,34.86,1.14,13.82,2.63,27.6,3.46,41.45a60.55,60.55,0,0,1-.09,11c-.68-2.54-1.42-5.08-2-7.64q-7.75-31.95-15.5-63.91c-.2-.81-.25-1.79-1.09-2.35,0-.66,0-1.32,0-2,.1-.41.19-.83.29-1.25C767.11,336.87,771.38,333.86,774.75,329.79Z"
    transform="translate(-533.78 -9.5)"
  /><path class="cls-9" d="M775.81,328.62a2.47,2.47,0,0,1,.05.61l-.66-.07Z" transform="translate(-533.78 -9.5)" /><path
    class="cls-9"
    d="M773.18,326.61c1.23.44,1.44,1.47,1.47,2.59a1.72,1.72,0,0,1-1.39-1.8C773.23,327.14,773.2,326.88,773.18,326.61Z"
    transform="translate(-533.78 -9.5)"
  /><path class="cls-3" d="M773.18,326.61c0,.27.05.53.08.79l-.65-.81Z" transform="translate(-533.78 -9.5)" /><path
    class="cls-10"
    d="M833.58,265.56c-2.56,2.66-3.86,6.1-5.53,9.27-8.16,15.49-16.15,31.07-24.41,47a16.08,16.08,0,0,1-1.22-6.68c-.4-11.54-.69-23.09-1.39-34.61-.53-8.67-.68-17.37-1.42-26-.49-5.68.32-11.47-1.3-17l.24-4.51c3.76,1.94,6.51,5.17,9.73,7.79,8.29,6.72,16.4,13.66,24.55,20.53a4.56,4.56,0,0,1,.78,1.39Z"
    transform="translate(-533.78 -9.5)"
  /><path
    class="cls-9"
    d="M878.06,528.2c0-.36,0-.71,0-1.07l.69-.74,0,0c1.13,0,1.72-.88,2.45-1.53l34.67-30.45.69,0a15.93,15.93,0,0,0,2.22.62c9.56,1.36,19.13,2.66,28.7,4,9.77,1.39,19.5,3.24,29.42.81,3.5-.86,7.17-1,10.76-1.54,8.57-1.28,17.13-2.61,25.7-3.92l.68,0c9.35,8.17,18.59,16.46,28.09,24.45,3,2.52,5.35,5.83,9,7.53l0,0,.69.74c0,.36,0,.72,0,1.07-10.46-3.45-20.93-6.88-31.37-10.38a15.12,15.12,0,0,0-4.85-.84c-33.76,0-67.53,0-101.29,0-5.63,0-10.56,2.92-15.8,4.5C891.61,523.6,884.86,526,878.06,528.2Z"
    transform="translate(-533.78 -9.5)"
  /><path
    class="cls-4"
    d="M1051.12,526.43c-3.68-1.7-6-5-9-7.53-9.5-8-18.74-16.28-28.09-24.45q0-31.51,0-63v0l.66-.54.73.42c3.4,9.05,6.75,18.13,10.2,27.17q11.78,30.84,23.61,61.67C1049.93,522.22,1051.15,524.13,1051.12,526.43Z"
    transform="translate(-533.78 -9.5)"
  /><path class="cls-4" d="M1051.79,527.13l-.69-.74Z" transform="translate(-533.78 -9.5)" /><path
    class="cls-9"
    d="M1013.47,427.28a6.38,6.38,0,0,1,1.15,2.87l-.58.53-.09.78v0c-3,.4-5.1,2.45-7.49,3.92-13.23,8.15-26.41,16.39-39.6,24.59a4.05,4.05,0,0,1-3.91,0c-11.69-7.28-23.34-14.63-35.09-21.82-3.9-2.38-7.47-5.4-12-6.69v0c0-.48-.32-.54-.67-.6l0-.11a1.56,1.56,0,0,0-.17-.64c.2-.84.4-1.69.61-2.54l.69-.44c1.4,0,2.07-1.12,2.9-1.94,3.67-3.62,7.26-7.31,11-10.9,1.31-1.28,2.3-3,4.26-3.48l1.09.22c7.57,4.69,15.84,8.13,23.43,12.74,4.29,2.6,7.54,2.6,11.83,0,7.59-4.61,15.86-8,23.43-12.74l1.09-.22c1.31.21,2,1.24,2.89,2.08,4.22,4.21,8.41,8.45,12.66,12.62C1011.63,426.23,1012.09,427.47,1013.47,427.28Z"
    transform="translate(-533.78 -9.5)"
  /><path class="cls-1" d="M1014,431.46l.09-.78a2,2,0,0,1,.57.24Z" transform="translate(-533.78 -9.5)" /><path
    class="cls-4"
    d="M915.83,494.45,881.16,524.9c-.73.65-1.32,1.52-2.45,1.53,1.27-6.19,4.08-11.84,6.28-17.69,8.15-21.74,16.58-43.37,24.9-65.06,1.57-4.1,3.07-8.23,4.6-12.34l.75-.59,0,.11.67.6v0Q915.86,462.95,915.83,494.45Z"
    transform="translate(-533.78 -9.5)"
  /><path class="cls-4" d="M878.73,526.39l-.69.74Z" transform="translate(-533.78 -9.5)" /><path
    class="cls-7"
    d="M915.68,427.57c-.21.85-.41,1.7-.61,2.54-5.67-.63-11.32-1.48-17-1.85-7.25-.47-14.54-.32-21.78-.84-14.16-1-28.31-2-42.52-2-4.48,0-8.95-.79-13.43-1.22-.8-14.39-.92-28.8-1.5-43.19q-.68-17-1.32-33.95c-.23-6.15-.42-12.3-.51-18.46l.59-.43a74.53,74.53,0,0,0,12,.44l14.82.53,42.19,1.49q5.85,19.72,11.69,39.43c4.3,14.65,8.47,29.33,12.91,43.94,1,3.2,1.19,6.7,3.26,9.54C914.74,424.91,914.51,426.44,915.68,427.57Z"
    transform="translate(-533.78 -9.5)"
  /><path
    class="cls-7"
    d="M995.35,410.81l-1.09.22H935.57l-1.09-.22c-.67-3.21.5-6.32.54-9.51.11-8.27.19-16.56.92-24.78,1.28-14.59,1.31-29.25,2.51-43.83.47-5.83.49-11.67.78-17.5l1.26-25.29c.43-.84.21-2,1.15-2.58l45.9,0c1.52,1.69,1.37,4,2.26,5.94-.92,2.86.09,5.66.18,8.5.4,12.53,1.2,25,1.88,37.57.74,13.84,1.42,27.69,2.12,41.54.16,3.08.22,6.17.37,9.25Q994.83,400.46,995.35,410.81Z"
    transform="translate(-533.78 -9.5)"
  /><path
    class="cls-11"
    d="M995.35,410.81q-.51-10.35-1-20.72c-.15-3.08-.21-6.17-.37-9.25-.7-13.85-1.38-27.7-2.12-41.54-.68-12.52-1.48-25-1.88-37.57-.09-2.84-1.1-5.64-.18-8.5,2.81,3.22,3.69,7.38,5.41,11.13,1.82,4,3.85,7.89,4.93,12.18,1.08,8.26,2.2,16.51,3.22,24.77.85,6.85,1.59,13.72,2.38,20.58q1.14,9.8,2.29,19.6c.75,6.43,1.37,12.87,2.29,19.27,1.26,8.8,2.38,17.6,3.06,26.46l.09.06c-1.38.19-1.84-1-2.57-1.77-4.25-4.17-8.44-8.41-12.66-12.62C997.4,412.05,996.66,411,995.35,410.81Z"
    transform="translate(-533.78 -9.5)"
  /><path
    class="cls-10"
    d="M1013.38,427.22c-.68-8.86-1.8-17.66-3.06-26.46-.92-6.4-1.54-12.84-2.29-19.27s-1.53-13.07-2.29-19.6c-.79-6.86-1.53-13.73-2.38-20.58-1-8.26-2.14-16.51-3.22-24.77a1.32,1.32,0,0,0,1.88.09c5,.49,9.91,2.23,15.05,2-.14.36-.27.71-.41,1.06-.17,11.15,0,22.29-.49,33.45-.69,16.88-.62,33.8-.85,50.69-.07,5-.17,10,0,14.93.06,1.59-1.29,3.18,0,4.75C1015,424.9,1015.66,426.85,1013.38,427.22Z"
    transform="translate(-533.78 -9.5)"
  /><path
    class="cls-15"
    d="M1017.07,318.64c-5.14.22-10-1.52-15.05-2,7.61-8.39,16.13-15.83,24.44-23.49,1.67-1.53,2.86-3.67,5.21-4.41,2,3.43,4.37,6.68,5.55,10.55C1031.17,306.43,1024.05,312.47,1017.07,318.64Z"
    transform="translate(-533.78 -9.5)"
  /><path
    class="cls-8"
    d="M1037.22,299.28c-1.18-3.87-3.53-7.12-5.55-10.55.22-1.43,1.33-1.2,2.28-1.21h29.63c1,0,2.05-.19,2.34,1.18-1.72,3.31-2.32,6.93-2.92,10.55Z"
    transform="translate(-533.78 -9.5)"
  /><path
    class="cls-11"
    d="M940.49,289.9l-1.26,25.29c-.29,5.83-.31,11.67-.78,17.5-1.2,14.58-1.23,29.24-2.51,43.83-.73,8.22-.81,16.51-.92,24.78,0,3.19-1.21,6.3-.54,9.51-2,.48-3,2.2-4.26,3.48-3.69,3.59-7.28,7.28-11,10.9-.83.82-1.5,1.94-2.9,1.94.41-2.18.16-4.37.5-6.58,1.17-7.69,2-15.43,3-23.15q1.21-10,2.4-19.91c.75-6.2,1.52-12.4,2.23-18.61.77-6.64,1.14-13.35,2.29-19.92,1.31-7.46,1.42-15,2.91-22.47,1.44-6.33,4.63-12,6.92-18C937.69,295.56,939.17,292.77,940.49,289.9Z"
    transform="translate(-533.78 -9.5)"
  /><path
    class="cls-10"
    d="M929.65,316.49c-1.49,7.42-1.6,15-2.91,22.47-1.15,6.57-1.52,13.28-2.29,19.92-.71,6.21-1.48,12.41-2.23,18.61q-1.2,10-2.4,19.91c-1,7.72-1.78,15.46-3,23.15-.34,2.21-.09,4.4-.5,6.58l-.69.44c-1.17-1.13-.94-2.66-1.17-4.05,1.18-1.79,0-3.62,0-5.41-.15-12,0-24.05-.45-36.08-.73-20.63-.63-41.29-.88-61.94a2.26,2.26,0,0,1,2-1.44c4.19-.62,8.37-1.3,12.56-2C928.48,317.69,929,316.8,929.65,316.49Z"
    transform="translate(-533.78 -9.5)"
  /><path
    class="cls-10"
    d="M829.64,328.59a74.53,74.53,0,0,1-12-.44c2.07-4.53,5.69-7.94,8.6-11.85,5.21-7,10.65-13.85,16-20.75,5.59-1.16,10.45-4.38,16-5.77,1.47-.37,2.85-1.15,4.43-1.09,1.71,3.31,2.32,6.93,2.91,10.55-5.68,2.07-11.35,4.15-17,6.19a7.05,7.05,0,0,0-3.54,2.27c-4.78,6.21-9.63,12.36-14.46,18.53C829.91,326.93,829.29,327.59,829.64,328.59Z"
    transform="translate(-533.78 -9.5)"
  /><path
    class="cls-15"
    d="M927.73,316.69c-4.19.66-8.37,1.34-12.56,2a2.26,2.26,0,0,0-2,1.44l-.69-.2c.17-1.05-.58-1.56-1.24-2.16-2.76-2.51-5.48-5.07-8.27-7.56-4-3.54-8.67-6.31-11.67-10.89,1.18-3.87,3.52-7.13,5.55-10.55,2.09.46,3.21,2.32,4.62,3.6C910,300.07,919.27,307,927,315.59A7.38,7.38,0,0,1,927.73,316.69Z"
    transform="translate(-533.78 -9.5)"
  /><path
    class="cls-8"
    d="M896.84,288.73c-2,3.42-4.37,6.68-5.55,10.55l-25.79,0c-.59-3.62-1.2-7.24-2.91-10.55.29-1.36,1.36-1.18,2.33-1.18h29.63C895.51,287.53,896.62,287.3,896.84,288.73Z"
    transform="translate(-533.78 -9.5)"
  /><path
    class="cls-16"
    d="M1037.22,299.28l25.78,0c5.93,2,11.83,4.1,17.79,6a9.43,9.43,0,0,1,4.93,3.56c4.3,5.73,8.8,11.3,13.22,16.94.66.84,1.68,1.53,1.25,2.85l-57,2-26.52-10.91c.14-.35.27-.7.41-1.06C1024.05,312.47,1031.17,306.43,1037.22,299.28Z"
    transform="translate(-533.78 -9.5)"
  /><path
    class="cls-8"
    d="M1016.66,319.7l26.52,10.91L1026,389q-4.69,16-9.38,31.91a4.35,4.35,0,0,1-1.32,2.58c-1.28-1.57.07-3.16,0-4.75-.18-5-.08-9.95,0-14.93.23-16.89.16-33.81.85-50.69C1016.63,342,1016.49,330.85,1016.66,319.7Z"
    transform="translate(-533.78 -9.5)"
  /><path
    class="cls-5"
    d="M963,459.94a4.05,4.05,0,0,0,3.91,0,4.36,4.36,0,0,0,.8,1c8.33,6.1,16.69,12.16,25,18.26,6.9,5.06,13.76,10.17,20.64,15.25-8.57,1.31-17.13,2.64-25.7,3.92-3.59.54-7.26.68-10.76,1.54-9.92,2.43-19.65.58-29.42-.81-9.57-1.37-19.14-2.67-28.7-4a15.93,15.93,0,0,1-2.22-.62,3.31,3.31,0,0,1,.6-.78c9.94-7.24,19.94-14.4,29.82-21.73C952.29,468,958,464.42,963,459.94Z"
    transform="translate(-533.78 -9.5)"
  /><path
    class="cls-1"
    d="M1013.32,494.48c-6.88-5.08-13.74-10.19-20.64-15.25-8.32-6.1-16.68-12.16-25-18.26a4.36,4.36,0,0,1-.8-1c13.19-8.2,26.37-16.44,39.6-24.59,2.39-1.47,4.52-3.52,7.49-3.92q0,31.51,0,63Z"
    transform="translate(-533.78 -9.5)"
  /><path
    class="cls-1"
    d="M963,459.94c-5,4.48-10.67,8-16,12-9.88,7.33-19.88,14.49-29.82,21.73a3.31,3.31,0,0,0-.6.78l-.69,0q0-31.51,0-63c4.53,1.29,8.1,4.31,12,6.69C939.62,445.31,951.27,452.66,963,459.94Z"
    transform="translate(-533.78 -9.5)"
  /><path
    class="cls-8"
    d="M935.57,411h58.69c-7.57,4.69-15.84,8.13-23.43,12.74-4.29,2.6-7.54,2.6-11.83,0C951.41,419.16,943.14,415.72,935.57,411Z"
    transform="translate(-533.78 -9.5)"
  /><path
    class="cls-1"
    d="M915.87,431.46l-.67-.6C915.55,430.92,915.9,431,915.87,431.46Z"
    transform="translate(-533.78 -9.5)"
  /><path
    class="cls-16"
    d="M865.5,299.24l25.79,0c3,4.58,7.7,7.35,11.67,10.89,2.79,2.49,5.51,5.05,8.27,7.56.66.6,1.41,1.11,1.24,2.16l-25.82,10.72-42.19-1.49-14.82-.53c-.35-1,.27-1.66.82-2.36,4.83-6.17,9.68-12.32,14.46-18.53a7.05,7.05,0,0,1,3.54-2.27C854.15,303.39,859.82,301.31,865.5,299.24Z"
    transform="translate(-533.78 -9.5)"
  /><path
    class="cls-8"
    d="M886.65,330.61l25.82-10.72.69.2c.25,20.65.15,41.31.88,61.94.43,12,.3,24.05.45,36.08,0,1.79,1.2,3.62,0,5.41-2.07-2.84-2.29-6.34-3.26-9.54-4.44-14.61-8.61-29.29-12.91-43.94Q892.54,350.31,886.65,330.61Z"
    transform="translate(-533.78 -9.5)"
  /></svg>
