<svg id="Layer_1" data-name="Layer 1" xmlns="http://www.w3.org/2000/svg" viewBox="0 0 844.37 1062.32"><defs><style>.cls-1{fill:#224fd4;}.cls-2{fill:#04174b;}.cls-3{fill:#0b2470;}.cls-4{fill:#1134a1;}.cls-5{fill:#416df5;}.cls-6{fill:#0d2671;}.cls-7{fill:#b0b0b0;}.cls-8{fill:#3c3c3c;}.cls-9{fill:#d8d8d8;}.cls-10{fill:#616161;}.cls-11{fill:#c7c6c6;}.cls-12{fill:#777;}.cls-13{fill:#878787;}.cls-14{fill:#49494a;}.cls-15{fill:#1f1f1f;}</style></defs><path class="cls-1" d="M1171,551.65l-.45,2-68.77,21.28c2.16,1.11,3.49,1.87,4.87,2.51q24.55,11.46,49.11,22.9c7.48,3.48,15,6.91,22.48,10.37-4,7.74-8.79,15-13.19,22.47-4.85,8.27-9.83,16.46-14.8,24.66-.6,1-.9,2.3-2.24,2.72a4.84,4.84,0,0,0-1.06-.72c-7.18-2.41-14.35-4.85-21.54-7.2-6.87-2.24-13.76-4.4-20.64-6.6l.08-.2c-.54-12.09-1-24.18-1.85-36.27-.73-10.43-.56-20.92-1.49-31.35-.06-.72.44-1.71-.42-2.09s-1.4.4-2,.89c-6.85,5.51-13.68,11-20.58,16.51q-21.74,17.19-43.53,34.33c-8.72,6.89-17.38,13.85-26.12,20.71-.88.7-1.81,2-3.06,1.51-.89-.33-.49-1.61-.4-2.43.81-7.31,2.07-14.56,2.88-21.87.93-8.5,2.49-16.93,3.68-25.41,1.58-11.19,3.12-22.39,4.55-33.6.28-2.18,1.46-4.35.36-6.94-6.32,5.81-12.4,11.55-18.64,17.11-11,9.8-22,19.63-32.69,29.82h-1.27q-10.32-9.5-20.64-19Q932,577,920.22,566.33c-2.4-2.18-4.9-4.24-7.87-6.8.89,6.88,1.64,13.07,2.5,19.25,1.17,8.48,2.45,16.94,3.62,25.42,1.26,9,2.52,18,3.65,27.07.81,6.42,2.25,12.77,2.37,19.27-1.42-.11-2.41-1.11-3.41-1.9-7-5.51-13.87-11.17-20.85-16.69q-31.29-24.74-62.65-49.39c-2.89-2.28-5.8-4.54-8.81-6.9-2.09,7.61-1.28,15.05-1.57,22.33-.63,15.94-2.13,31.85-2.23,47.82l.08.2a20.77,20.77,0,0,0-2.21.5c-8.23,2.71-16.48,5.35-24.66,8.21-5.47,1.9-11.23,3-16.37,5.81-.89-.16-1.17-.94-1.56-1.58Q766.12,635.43,752,611.89a6.21,6.21,0,0,1-.43-1.21l33-15.27c9.29-4.31,18.6-8.57,27.84-13,5-2.38,10.23-4.24,15.37-7.63l-68.48-21.18-.11-1.21c2.3-1.13,3.32-3.5,4.92-5.28,6.61-7.35,13.08-14.84,19.53-22.34q11-12.75,21.79-25.61,7.88-9.3,15.68-18.67l.94.22,1,.74c0,.15,0,.3,0,.45-1.35,1.29-.92,3-.62,4.37,1.17,5.11.69,10.32,1,15.45.66,9.65,1.79,19.28,2.07,28.93.36,12.44,2.12,24.77,2.17,37.22,0,7.23.21,7.23,7.23,5.76.22,0,.44,0,.66-.09q16.81-3.13,33.62-6.28c10.13-1.91,20.28-3.74,30.37-5.83,4.13-.85,8.46-1.06,12.28-3.16H1018c2.43,2,5.6,1.86,8.4,2.44,15,3.09,30.14,5.75,45.2,8.7,8.93,1.74,18,3,26.78,5.29,2.08.53,2.9-.09,3.32-2.56.85-5,.76-10.11,1-15.12.58-12.41,2.27-24.76,2.26-37.21,0-2.73.54-5.46.73-8.19.64-9.32,1.24-18.63,1.85-27.95a2.67,2.67,0,0,0-.68-2.14l1.93-1q15.78,18.6,31.56,37.18c9.2,10.78,18.48,21.49,27.69,32.27C1168.84,550.94,1169.65,551.74,1171,551.65Z" transform="translate(-537.75 -9.5)"/><path class="cls-2" d="M1079.65,699.56c-.88,0-1.76.12-2.64.12q-112.1,0-224.19,0c-.88,0-1.76-.08-2.64-.12a5.64,5.64,0,0,1,2.13-2c6-3.67,12-7.31,17.92-11.11q21.62-13.89,43.51-27.33c3.49-2.15,7.26-4,10.06-7.17,2.07.82,4.11-.11,6.17-.1q34.95.09,69.89,0c2.06,0,4.1.92,6.17.1.05,1.11,1,1.33,1.75,1.78L1032.07,669c13.47,8.47,27,16.88,40.38,25.47C1074.92,696,1077.83,697.06,1079.65,699.56Z" transform="translate(-537.75 -9.5)"/><path class="cls-1" d="M640.69,820.37a43.29,43.29,0,0,1,11.16,22.87c1.43,8.91,1.48,17.88-1.38,26.52-1.88,5.68-4.22,11.3-8.5,15.76l-104,0v-65Zm-52,50.5c3.86,0,7.72,0,11.57,0a8.88,8.88,0,0,0,2.84-.49c7.11-2.4,12.43-9.17,10.94-19.61-1.17-8.25-7.42-13.45-15.44-13.7-7.16-.22-14.34,0-21.5-.08-1.75,0-2.24.51-2.22,2.24q.11,14.73,0,29.46c0,1.75.51,2.28,2.24,2.22C581,870.78,584.88,870.87,588.74,870.87Z" transform="translate(-537.75 -9.5)"/><path class="cls-3" d="M1237.38,885.48c.19,9.71.62,19.42-2.53,28.85-3.49,10.46-9.06,19.4-17.7,26.48a61.92,61.92,0,0,1-23.76,12.43,82.91,82.91,0,0,1-28.36,2.1,64.19,64.19,0,0,1-26.88-8.17c-15.34-8.74-25.12-21.67-28.68-39.15-1.53-7.48-1.4-15-1.18-22.56h38.21c0,3.76.12,7.51.12,11.27,0,11.86,9.64,23.2,21.77,25.37,11.63,2.08,23.76-3.94,29.12-13.67,2.55-4.63,3.08-9.83,3.47-15,.2-2.64.1-5.31.14-8Z" transform="translate(-537.75 -9.5)"/><path class="cls-3" d="M933.64,885.48c.29,11.12.57,22.19-3.72,32.83a57.39,57.39,0,0,1-17.14,23.16,58.93,58.93,0,0,1-18.88,10.69,76.93,76.93,0,0,1-29.89,3.6c-17.18-1.17-32.41-7.19-44.16-20.14-7.68-8.48-13.07-18.21-14.22-30.06-.65-6.72-.35-13.39-.44-20.08h37.59c0,3.2.12,6.4.1,9.6-.11,16.14,12.4,28,27.87,27.49a27.45,27.45,0,0,0,25.38-19.85c1.61-5.82.51-11.53,1.25-17.24Z" transform="translate(-537.75 -9.5)"/><path class="cls-3" d="M1373.48,885.39c4,5.57,6.26,11.68,5.93,18.63-.29,5.87.65,11.77-1.2,17.59-4.83,15.17-15.12,24.73-29.72,30.48-12.34,4.86-25.17,5.1-38,4.25-20-1.35-36.8-10.1-50.23-25.12-4.08-4.56-4.21-4.67-.23-9.26q7.55-8.73,15.5-17.08c1.3-1.37,1.85-4.36,3.89-3.87,1.44.35,2.29,2.93,3.51,4.42,11.61,14.11,26.5,20.77,44.75,19.09,4.37-.4,8.78-1.78,11.9-5.39,5.3-6.12,2.34-12.88-4.25-17.11-6.84-4.38-14.66-5.58-22.39-7.38-8.69-2-17.45-4.16-25.13-9.12,3.42,0,6.83,0,10.25,0Z" transform="translate(-537.75 -9.5)"/><path class="cls-1" d="M1373.48,885.39l-75.37.08c-3.42,0-6.83,0-10.25,0a39.35,39.35,0,0,1-18.48-17.09,43.45,43.45,0,0,1-5.3-24.74c.7-8.76,3.66-16.76,9.81-23.32h99c2.17,1.25,2.94,3.77,4.78,5.34.66.55.62,1.22-.29,2.09-6.06,5.79-12,11.67-17.89,17.69-1.28,1.32-3.14,1.87-4.06,3.68-.56,1.1-1.32,0-1.73-.54-8.51-11.19-19.82-16.58-33.81-16.22a26,26,0,0,0-12.4,3.21,9.37,9.37,0,0,0-5,8.5c-.16,4.23,1.3,7.35,5,9.55,7.08,4.28,15.09,5.49,23,7.29,11.5,2.62,22.63,6.34,32.4,13.24A35.16,35.16,0,0,1,1373.48,885.39Z" transform="translate(-537.75 -9.5)"/><path class="cls-3" d="M716.82,921.18l61.27.13c5.17,0,5.17,0,5.17,5.2,0,8.4-.06,16.8,0,25.19,0,2-.29,2.86-2.63,2.85q-49.36-.13-98.72,0c-1.75,0-2.88-.07-2.87-2.39.11-22.21.11-44.42.14-66.63,11.34,0,22.68.06,34-.08,2.54,0,3.14.82,3.11,3.23-.12,9.8-.07,19.61,0,29.42C716.33,919.1,715.85,920.27,716.82,921.18Z" transform="translate(-537.75 -9.5)"/><path class="cls-1" d="M1084.18,820.44c0,4.64,0,9.28.16,13.91.1,2.24-.69,2.73-2.79,2.72-13.13-.09-26.26.07-39.38-.14-3.18,0-3.69,1-3.67,3.84.1,14.9,0,29.8-.06,44.71H1001.5c0-15-.15-30.06,0-45.09,0-2.74-.63-3.48-3.42-3.44-12.47.16-25,0-37.43.13-2.45,0-3.27-.54-3.13-3.08.25-4.52.15-9.06.19-13.59Z" transform="translate(-537.75 -9.5)"/><path class="cls-3" d="M537.93,885.48l104,0c-3.22,5.4-8.16,9-13.32,12.18-8.58,5.33-18.16,7.06-28.14,7-8.38,0-16.77,0-25.41,0a6.07,6.07,0,0,1,.52,3.26c0,14.6,0,29.2,0,43.8,0,2.09-.43,2.8-2.68,2.77-10.94-.12-21.88-.07-32.82,0-1.48,0-2.4,0-2.39-2C537.88,930.16,537.89,907.82,537.93,885.48Z" transform="translate(-537.75 -9.5)"/><path class="cls-4" d="M818,86.78q7.17-21.65,14.38-43.29c.34-1,.4-2.19,1.28-3,1,.71,2,1.35,2.94,2.14Q864,65.94,891.39,89.27a3.74,3.74,0,0,1-.27,1.28c-4.22,6.78-8.48,13.53-12.7,20.31q-8.17,13.1-16.28,26.22l-1.65.44v-.07a5.53,5.53,0,0,0-.6-1.16c-8.35-9.76-16.84-19.41-25-29.29C829.23,100.25,823.06,94,818,86.78Z" transform="translate(-537.75 -9.5)"/><path class="cls-4" d="M1096.19,40.51c3.81,9.38,6.49,19.15,9.84,28.7,2,5.82,3.89,11.71,5.82,17.57-9.2,11.9-19.44,22.93-29,34.53-4.46,5.42-9.4,10.43-13.51,16.14v.07l-1.53-.5c-7.88-12.49-15.84-24.93-23.57-37.52-2-3.33-4.7-6.35-5.8-10.23q16.45-14,32.94-28C1079.61,54.3,1087.91,47.42,1096.19,40.51Z" transform="translate(-537.75 -9.5)"/><path class="cls-4" d="M740.57,270.26q-5.9-24.12-10.84-48.45a3.62,3.62,0,0,0,2.37-1c11.59-8.75,23.13-17.55,34.81-26.16,5.82-4.29,11.28-9.08,17.56-12.74,3.48,9.7,5.6,19.81,8.66,29.64,2,6.48,2.91,13.31,6,19.49l-.11,1.24a1,1,0,0,1-.42.09c-4.46,2.8-9,5.53-13.39,8.43Q762.83,255.49,740.57,270.26Z" transform="translate(-537.75 -9.5)"/><path class="cls-4" d="M1200.1,221.81q-4.32,19.78-8.64,39.56c-.66,3-1.46,5.93-2.2,8.89q-8.55-5.58-17.09-11.19c-9-5.92-17.9-12-27-17.76-4.71-3-9.1-6.53-14.2-8.91-.08-.46-.16-.91-.25-1.36a5,5,0,0,0,.65-1.11c3.31-11.5,6.56-23,9.92-34.52,1.32-4.51,2-9.21,4-13.5a4.26,4.26,0,0,1,1.23.43c14.42,10.83,28.79,21.72,43.25,32.48C1193.16,217.29,1196.09,220.35,1200.1,221.81Z" transform="translate(-537.75 -9.5)"/><path class="cls-1" d="M882,29.85c14-6.89,28.12-13.72,42.46-20q3.38,7.37,6.74,14.73Q940.1,44.16,949,63.71L919.62,77q-13.53,6.11-27.07,12.17a2.35,2.35,0,0,1-.54-.1c0-4.43-1.26-8.66-2-13-1.63-8.93-3.41-17.85-4.85-26.82C884.06,42.82,882.35,36.44,882,29.85Z" transform="translate(-537.75 -9.5)"/><path class="cls-1" d="M1005.39,9.87c10.51,4.32,20.58,9.59,30.9,14.33,3.9,1.79,7.72,3.76,11.58,5.65,0,4.44-1.34,8.66-2.07,13-1.49,8.85-3.32,17.65-4.71,26.52-1,6.6-3.08,13-3.27,19.75a2.36,2.36,0,0,1-.53.1Q1023.75,83.1,1010.21,77L980.82,63.71c.41-.78.85-1.55,1.22-2.35Q993.73,35.62,1005.39,9.87Z" transform="translate(-537.75 -9.5)"/><path class="cls-5" d="M1005.39,9.87Q993.72,35.61,982,61.36c-.37.8-.81,1.57-1.22,2.35H949q-8.93-19.55-17.84-39.11-3.36-7.37-6.74-14.73A4.18,4.18,0,0,1,927,9.54h75.81A4.15,4.15,0,0,1,1005.39,9.87Z" transform="translate(-537.75 -9.5)"/><path class="cls-3" d="M1079.65,699.56c-1.82-2.5-4.73-3.54-7.2-5.12-13.4-8.59-26.91-17-40.38-25.47l-24.29-15.25c-.73-.45-1.7-.67-1.75-1.78,0-.19,0-.37.07-.56,5.27-.28,10.55-.4,15.81-.89s10.77-.45,16.15-.74c14-.74,28.07-1.77,42.11-2.42,8.24-.37,16.48-.62,24.69-1.52l-.08.2c.35,1.5-.29,2.85-.82,4.15-3.48,8.67-7,17.32-10.57,26-3,7.31-6.39,14.45-8.48,22.11C1083.46,699.89,1081.6,699.9,1079.65,699.56Z" transform="translate(-537.75 -9.5)"/><path class="cls-3" d="M923.8,651.94c-2.8,3.16-6.57,5-10.06,7.17q-21.9,13.44-43.51,27.33c-5.91,3.8-11.93,7.44-17.92,11.11a5.64,5.64,0,0,0-2.13,2c-1.95.33-3.81.33-5.26-1.32a17.9,17.9,0,0,0-.62-2.55q-8.85-22-17.75-44c-.74-1.83-1.79-3.56-1.5-5.66l-.08-.2c8.65,1,17.33,1.17,26,1.55,14,.61,28.07,1.83,42.12,2.38,10.23.39,20.42,1.21,30.64,1.64Z" transform="translate(-537.75 -9.5)"/><path class="cls-3" d="M1001.5,885.48h36.94q.06,33.48.15,67c0,1.55-.37,2.1-2,2.09q-16.56-.1-33.13,0c-1.57,0-2.09-.47-2.08-2.07Q1001.48,919,1001.5,885.48Z" transform="translate(-537.75 -9.5)"/><path class="cls-1" d="M1146.5,885.46h-38.21q0-32.52,0-65.05h38.24Q1146.51,852.93,1146.5,885.46Z" transform="translate(-537.75 -9.5)"/><path class="cls-3" d="M1167.22,464.05c-.29,1.43.6,2.51,1.13,3.69q7.07,15.74,14.16,31.45a17.81,17.81,0,0,1-1.94-.31c-13.67-3.73-27.33-7.52-41-11.2-10.06-2.7-20.19-5.11-30.09-8.35a6.6,6.6,0,0,1,.42-.89q16.63-24.65,33.26-49.29c1.45-2.16,3.48-4,3.72-6.86,1.38.24,1.35,1.51,1.81,2.44q2.89,5.79,5.81,11.56C1158.14,445.82,1162.68,454.93,1167.22,464.05Z" transform="translate(-537.75 -9.5)"/><path class="cls-3" d="M747.32,499.19q7.08-15.72,14.16-31.45c.53-1.18,1.42-2.26,1.13-3.69,3.23-6.72,6.6-13.37,9.62-20.18,1.1-2.48,2.77-4.77,3.11-7.58.89-.59,1-1.62,1.5-2.49,1.93-3.64,3.17-7.65,5.73-11l16.88,25.22,20.91,31.27c-.17.13-.32.35-.51.4l-43.27,11.59Z" transform="translate(-537.75 -9.5)"/><path class="cls-1" d="M716.82,921.18c-1-.91-.49-2.08-.49-3.12-.05-9.81-.1-19.62,0-29.42,0-2.41-.57-3.26-3.11-3.23-11.34.14-22.68.07-34,.08l0-65.08h37.57q.07,34.14.13,68.29C716.9,899.52,716.84,910.35,716.82,921.18Z" transform="translate(-537.75 -9.5)"/><path class="cls-1" d="M842.78,885.48H805.19q0-32.52,0-65h37.58Z" transform="translate(-537.75 -9.5)"/><path class="cls-3" d="M1131,232.4c5.1,2.38,9.49,5.9,14.2,8.91,9.07,5.79,18,11.84,27,17.76q8.52,5.63,17.09,11.19-9.32,16.19-18.65,32.36c-3.75,6.48-7.55,12.94-11.33,19.41l-4.41,6.85c-1.24-.85-1.26-2.26-1.56-3.51-2.39-9.82-4.73-19.65-7.09-29.47-3.89-16.13-7.68-32.28-11.76-48.35-.85-3.37-1-7-2.94-10.07-.29-1.49-.58-3-.86-4.47l0-.65Z" transform="translate(-537.75 -9.5)"/><path class="cls-3" d="M740.57,270.26q22.29-14.73,44.59-29.46c4.41-2.9,8.93-5.63,13.39-8.43a2.08,2.08,0,0,0,0,.61l-.24,4.5c-1.94,3.07-2.12,6.7-2.95,10.07-6.41,26-12.6,52.1-18.9,78.15-.27,1.13-.3,2.46-1.52,3.16L770.55,322q-14-24-28-48C741.82,272.83,741.22,271.53,740.57,270.26Z" transform="translate(-537.75 -9.5)"/><path class="cls-5" d="M818,86.78c5.08,7.18,11.25,13.47,16.86,20.22,8.21,9.88,16.7,19.53,25,29.29a5.53,5.53,0,0,1,.6,1.16,1.15,1.15,0,0,1-.31.11c-7.08-.93-14.17-1.72-21.22-2.8-8.78-1.35-17.62-2.19-26.4-3.64-5.49-.91-11.08-1.44-16.62-2.24-8-1.16-16.12-1.95-24.15-3.14-6.07-.9-12.14-1.69-18.27-2.06l-.19-.19q18.38-10.45,36.75-20.9Q804,94.67,818,86.78Z" transform="translate(-537.75 -9.5)"/><path class="cls-5" d="M1069.34,137.45c4.11-5.71,9.05-10.72,13.51-16.14,9.56-11.6,19.8-22.63,29-34.53q29.81,16.81,59.6,33.64c1.72,1,3.37,2,5,3.07l-.19.19a9.68,9.68,0,0,0-3.26.14c-7.6,1.07-15.22,2-22.83,3-7,.91-13.92,1.82-20.88,2.78-5.86.8-11.71,1.72-17.57,2.5-6.31.85-12.63,1.58-18.94,2.4q-11.6,1.5-23.17,3.05A1.21,1.21,0,0,1,1069.34,137.45Z" transform="translate(-537.75 -9.5)"/><path class="cls-1" d="M933.64,885.48H897.38v-65h36.26Z" transform="translate(-537.75 -9.5)"/><path class="cls-1" d="M1237.38,885.48h-36.26v-65h36.26Z" transform="translate(-537.75 -9.5)"/><path class="cls-6" d="M825.61,1036.48c.71,14.4-7.84,31.62-27.67,34.57-20.57,3.06-35.82-10.83-38-28.43-1.55-12.56,1.46-23.52,11.2-31.86s21.1-10,33.08-5.78c11.57,4,18.14,12.67,20.76,24.47a21.22,21.22,0,0,1,.6,3.24C825.68,1034.23,825.61,1035.78,825.61,1036.48ZM813,1037c.29-1.78-.24-3.82-.67-5.87-1.79-8.48-8-14.29-17.12-16.05-6.89-1.32-15.17,2.5-19.32,8.93-5.19,8-4.7,20.4,1.16,28a18.21,18.21,0,0,0,14.16,7.34C804,1059.8,813,1050.6,813,1037Z" transform="translate(-537.75 -9.5)"/><path class="cls-6" d="M1279.27,1036.86c0,17.92-9.94,30.79-27.06,34-20.1,3.74-36.41-9.94-38.64-28.19-1.65-13.5,1.9-25.05,13-33.32,18.37-13.71,47.48-5.21,52.19,20.75A51.17,51.17,0,0,1,1279.27,1036.86Zm-12.61,0c.34-1.8-.26-3.84-.7-5.88-1.83-8.45-8.19-14.28-17.25-15.93-6.75-1.23-15,2.57-19.07,8.83-5.25,8-4.86,20.32,1,28a18.21,18.21,0,0,0,14.43,7.47C1257.79,1059.71,1266.66,1050.54,1266.66,1036.86Z" transform="translate(-537.75 -9.5)"/><path class="cls-6" d="M1045.79,1036.59c.69,14.23-7.76,31.53-27.73,34.47-20.69,3-35.82-11-37.94-28.49-1.53-12.57,1.5-23.52,11.24-31.85s20.89-9.89,32.78-5.82c11.74,4,18.39,12.66,21,24.61a21.22,21.22,0,0,1,.6,3.24C1045.87,1034.29,1045.79,1035.84,1045.79,1036.59Zm-53,.57c0,1.11-.06,2.21,0,3.31.46,8.49,6.84,16.35,14.76,18.24,9.34,2.23,17.79-1.16,22.43-9.07,3.46-5.89,4.08-12.22,2.59-18.79-2.5-11-12.51-17.47-23.61-15.38C998.88,1017.35,992.7,1025.58,992.75,1037.16Z" transform="translate(-537.75 -9.5)"/><path class="cls-4" d="M747.32,499.19l29.26-7.87,43.27-11.59c.19-.05.34-.27.51-.41l.72,1.19q-7.83,9.35-15.68,18.67Q794.54,512,783.61,524.79c-6.45,7.5-12.92,15-19.53,22.34-1.6,1.78-2.62,4.15-4.92,5.28-3-13.14-6.11-26.27-9.06-39.43C749.07,508.41,747.6,503.92,747.32,499.19Z" transform="translate(-537.75 -9.5)"/><path class="cls-4" d="M1109.47,479.33c9.9,3.24,20,5.65,30.09,8.35,13.68,3.68,27.34,7.47,41,11.2a17.81,17.81,0,0,0,1.94.31c-1,8.19-3.38,16.08-5.09,24.12-2,9.47-4.26,18.9-6.41,28.34-1.36.09-2.17-.71-3-1.68-9.21-10.78-18.49-21.49-27.69-32.27q-15.82-18.54-31.56-37.18Z" transform="translate(-537.75 -9.5)"/><path class="cls-6" d="M704.93,1070.7c-4.46,0-8.64-.09-12.81,0-1.69.06-2.28-.9-3-2.1-3.7-6.62-7.48-13.2-11.12-19.86-.83-1.53-1.71-2.28-3.55-2.15a63.9,63.9,0,0,1-8,0c-1.79-.1-2.23.55-2.21,2.26.09,6.41,0,12.83.09,19.24,0,2-.53,2.74-2.59,2.6-3.17-.21-7.34,1-9.29-.57s-.6-6-.61-9.17c-.07-17.8,0-35.6-.09-53.4,0-2.53.52-3.41,3.24-3.35,8.39.19,16.79,0,25.19.08,10.14,0,18.74,6.17,21.33,15.12,2.76,9.54-.7,18.38-9.75,24.07-1.92,1.2-1.33,2-.56,3.34q6.08,10.4,12.08,20.84C703.92,1068.62,704.36,1069.59,704.93,1070.7Zm-40.55-45.25c0,2.54.11,5.09,0,7.63-.1,1.83.41,2.5,2.35,2.44,4.41-.14,8.83,0,13.25,0,5.57,0,9.25-3,9.76-7.76.66-6.2-2.35-10.47-8.16-11.56-5.15-1-10.36-.24-15.53-.49-1.4-.06-1.65.67-1.64,1.83C664.41,1020.15,664.38,1022.8,664.38,1025.45Z" transform="translate(-537.75 -9.5)"/><path class="cls-5" d="M1084.18,820.44l-126.51,0c0-4.86,0-9.72-.16-14.57,0-1.65.64-2.18,2.15-2a11.61,11.61,0,0,0,1.32,0q60,0,119.93-.07c2.75,0,3.62.64,3.44,3.43C1084.08,811.6,1084.22,816,1084.18,820.44Z" transform="translate(-537.75 -9.5)"/><path class="cls-4" d="M759.27,553.62l68.48,21.18c-5.14,3.39-10.39,5.25-15.37,7.63-9.24,4.41-18.55,8.67-27.84,13l-33,15.27c1.33-10.33,2.61-20.67,4-31C756.75,571,758,562.31,759.27,553.62Z" transform="translate(-537.75 -9.5)"/><path class="cls-4" d="M1178.25,610.68c-7.49-3.46-15-6.89-22.48-10.37q-24.57-11.43-49.11-22.9c-1.38-.64-2.71-1.4-4.87-2.51l68.77-21.28q3.32,23.8,6.63,47.62C1177.62,604.37,1177.9,607.53,1178.25,610.68Z" transform="translate(-537.75 -9.5)"/><path class="cls-6" d="M544.47,1037.55c0-10.16.07-20.33-.05-30.5,0-2.22.66-2.8,2.8-2.77,8.17.12,16.35,0,24.52.06,11.85.1,20.51,8.85,20.64,20.78s-8.34,21-20,21.5c-4.19.16-8.39.15-12.59,0-2.09-.08-2.84.43-2.78,2.69.17,6.29,0,12.6.11,18.89,0,2.11-.6,2.72-2.6,2.52-3.25-.33-7.62,1.39-9.49-.69-1.61-1.8-.51-6.08-.53-9.26C544.45,1053,544.47,1045.29,544.47,1037.55Zm12.58-12.33c0,2.54.08,5.08,0,7.61-.06,1.53.35,2.14,2,2.1,4.19-.12,8.38,0,12.57-.08,4.74-.12,8.08-4.08,8.09-9.39s-3.26-9.17-8.14-9.27c-4-.08-7.95.13-11.9-.08-2.34-.13-2.77.81-2.62,2.82S557.05,1023.12,557.05,1025.22Z" transform="translate(-537.75 -9.5)"/><path class="cls-5" d="M1176.5,123.49c6,11.69,12,23.35,17.82,35.1,3.63,7.3,7.73,14.37,10.73,22h-59.72a1,1,0,0,1-.25-.43q14.57-25.72,29.12-51.46c.88-1.56,2.6-2.85,2.11-5Z" transform="translate(-537.75 -9.5)"/><path class="cls-5" d="M724.78,180.57c.32-2.13,1.62-3.84,2.55-5.7q12.43-24.9,24.94-49.76a16.67,16.67,0,0,1,1.06-1.62l.19.19a3.3,3.3,0,0,0,.68,2.79q15.27,26.85,30.55,53.68a1,1,0,0,1-.25.43Z" transform="translate(-537.75 -9.5)"/><path class="cls-6" d="M1114,1037.75c0,8.56,3,15.75,11,19.47,8.37,3.84,16.72,3.33,24.12-2.69,1.89-1.55,2.89-1.51,4,.62.64,1.27,1.46,2.46,2.21,3.67,2.62,4.24,2.68,4.34-1.62,7.08-18.71,11.95-46.2,6.07-51.84-20.12-4.15-19.31,6.9-39.08,28.22-42a30.82,30.82,0,0,1,26.84,9.06c1.45,1.43,1.72,2.45,0,4-2.12,1.93-3.65,5.15-6,5.94s-4.14-2.8-6.47-4.12c-6.86-3.86-13.71-3.9-20.36-.06C1116.87,1022.78,1113.92,1029.55,1114,1037.75Z" transform="translate(-537.75 -9.5)"/><path class="cls-5" d="M640.69,820.37l-102.76.08c0-4.53.08-9.07-.17-13.59-.13-2.53.68-3.1,3.13-3.09,21.2.1,42.41.05,63.61.06C619.07,803.84,631.09,809.47,640.69,820.37Z" transform="translate(-537.75 -9.5)"/><path class="cls-5" d="M882,29.85c.38,6.59,2.09,13,3.14,19.45,1.44,9,3.22,17.89,4.85,26.82.79,4.31,2,8.54,2,13a3.38,3.38,0,0,0-.62.18Q864,66,836.58,42.65c-.92-.79-2-1.43-2.94-2.14,5.52-2.16,11.4-2.76,17.13-4C861.14,34.17,871.56,32.05,882,29.85Z" transform="translate(-537.75 -9.5)"/><path class="cls-5" d="M1037.82,89.09c.19-6.73,2.24-13.15,3.27-19.75,1.39-8.87,3.22-17.67,4.71-26.52.73-4.31,2.11-8.53,2.07-13q23.64,5,47.28,10a4.07,4.07,0,0,1,1,.63c-8.28,6.91-16.58,13.79-24.81,20.75q-16.52,14-32.94,28A3.38,3.38,0,0,0,1037.82,89.09Z" transform="translate(-537.75 -9.5)"/><path class="cls-5" d="M1372.85,820.37h-99c9.6-11.31,22.06-17.29,36.55-19.16,14-1.81,27.8-1,41.17,3.93A50.86,50.86,0,0,1,1372.85,820.37Z" transform="translate(-537.75 -9.5)"/><path class="cls-4" d="M825.05,646c-.29,2.1.76,3.83,1.5,5.66q8.9,22,17.75,44a17.9,17.9,0,0,1,.62,2.55c-12.86-7.61-25.75-15.19-38.59-22.85-8.21-4.89-16.35-9.9-24.52-14.86,5.14-2.83,10.9-3.91,16.37-5.81,8.18-2.86,16.43-5.5,24.66-8.21A20.77,20.77,0,0,1,825.05,646Z" transform="translate(-537.75 -9.5)"/><path class="cls-4" d="M1084.91,698.24c2.09-7.66,5.49-14.8,8.48-22.11,3.54-8.65,7.09-17.3,10.57-26,.53-1.3,1.17-2.65.82-4.15,6.88,2.2,13.77,4.36,20.64,6.6,7.19,2.35,14.36,4.79,21.54,7.2a4.84,4.84,0,0,1,1.06.72q-21.46,12.93-42.94,25.87C1098.39,690.4,1091.63,694.29,1084.91,698.24Z" transform="translate(-537.75 -9.5)"/><path class="cls-6" d="M908.5,1043.4c0,8.18-.06,16.36,0,24.53,0,2.08-.41,3-2.69,2.8-3.16-.25-7.34,1-9.27-.58s-.59-6-.61-9.16q-.11-20.88,0-41.77c0-2.36-.4-3.29-3-3.14-4.4.25-8.83,0-13.24.12-2.1.08-2.73-.64-2.56-2.63.26-3-1.18-6.71.58-8.65s5.43-.54,8.26-.55c12.81-.06,25.61,0,38.42-.07,2.42,0,3.7.33,3.37,3.17s.85,6.37-.53,8c-1.63,1.92-5.38.53-8.21.65s-5.52.14-8.27,0c-1.94-.11-2.38.61-2.36,2.43C908.55,1026.83,908.5,1035.11,908.5,1043.4Z" transform="translate(-537.75 -9.5)"/><path class="cls-1" d="M724.78,180.57H784.5l0,1.33c-6.28,3.66-11.74,8.45-17.56,12.74-11.68,8.61-23.22,17.41-34.81,26.16a3.62,3.62,0,0,1-2.37,1q-2.52-19.63-5-39.27A11.88,11.88,0,0,1,724.78,180.57Z" transform="translate(-537.75 -9.5)"/><path class="cls-1" d="M1145.33,180.58h59.72c0,6.08-1.23,12-1.94,18-.91,7.75-2,15.47-3,23.21-4-1.46-6.94-4.52-10.26-7-14.46-10.76-28.83-21.65-43.25-32.48a4.26,4.26,0,0,0-1.23-.43Z" transform="translate(-537.75 -9.5)"/><path class="cls-3" d="M1339,1037.46c0-10.06.07-20.12,0-30.19,0-2.27.53-3.24,2.92-3,3.14.36,7.36-1.39,9.17.73,1.55,1.81.52,5.89.52,9,0,14.16.07,28.32,0,42.47,0,2.36.63,2.93,2.93,2.89,8.29-.14,16.58,0,24.86-.1,2,0,3,.36,2.8,2.67a32.35,32.35,0,0,0,0,6.3c.22,2.2-.73,2.5-2.64,2.49-12.6-.07-25.19-.09-37.79,0-2.19,0-2.75-.6-2.73-2.75C1339,1057.81,1339,1047.64,1339,1037.46Z" transform="translate(-537.75 -9.5)"/><path class="cls-7" d="M1211.83,334.49c-1,12.72-1.9,25.45-2.95,38.17-1.26,15.45-2.62,30.89-4,46.34-.08,1,0,2-1,2.61-.39-1.61-1.78-1.08-2.73-1.12-3.63-.12-7.27-.08-10.91-.11l.06-3.47a21.71,21.71,0,0,0,.78-4.18c.77-8.15,2-16.27,2.39-24.43.26-5.58,2.23-11,1.32-16.64a3.16,3.16,0,0,0,.2-.54c.23-.23.56-.42.68-.69,3.34-7.65,6.6-15.33,10-22.94C1207.65,343.12,1209,338.47,1211.83,334.49Z" transform="translate(-537.75 -9.5)"/><path class="cls-7" d="M725.79,420.19c-2-2.74-1.2-6-1.5-9-1.54-15.78-2.75-31.58-4-47.37-.8-9.77-1.51-19.55-2.26-29.32a5.45,5.45,0,0,1,1,1.22c2.61,5.92,5.14,11.89,7.79,17.79s4.72,12,8,17.62a3.16,3.16,0,0,0,.2.54c-1,5.1,1,10,1.19,15a187,187,0,0,0,2.1,20.86c.49,3.13-.2,6.41,1.2,9.4,0,1.16,0,2.32.05,3.48Z" transform="translate(-537.75 -9.5)"/><path class="cls-8" d="M725.79,420.19l13.79.2,3.82,1.15c10.32,5.64,21.25,9.93,31.94,14.75-.34,2.81-2,5.1-3.11,7.58-3,6.81-6.39,13.46-9.62,20.18Q751,450.61,739.3,437.17c-4.1-4.74-8.18-9.49-12.2-14.3C726.49,422.13,725.09,421.62,725.79,420.19Z" transform="translate(-537.75 -9.5)"/><path class="cls-8" d="M1190.24,420.39c3.64,0,7.28,0,10.91.1.95,0,2.34-.49,2.73,1.12q-17.4,20.31-34.81,40.61c-.56.65-1.23,1.22-1.85,1.83-4.54-9.12-9.08-18.23-12.73-27.76,4.22-1.85,8.51-3.57,12.65-5.57,6.41-3.11,13.22-5.37,19.29-9.18Z" transform="translate(-537.75 -9.5)"/><path class="cls-7" d="M732,306.63c.06-1.31.4-2.26,2-2.51q9-1.41,18-3c1-.18,1.7-.11,2,1-.48.27-.47.48.08.63l0,0a8.85,8.85,0,0,0,.37,3.57q4.1,16.8,8.13,33.6c-1.69-.44-3.38-.91-5.08-1.33-6.91-1.69-13.66-4-20.68-5.27-.71-4.41-1.22-8.86-2.16-13.22S733.59,311,732,306.63Z" transform="translate(-537.75 -9.5)"/><path class="cls-7" d="M1175.84,302.09c.38-1.35,1.24-1.07,2.31-.88,5.78,1,11.57,2,17.38,2.87a2.28,2.28,0,0,1,2.3,2.55,6.12,6.12,0,0,0-.69,1.47q-2.07,12.57-4.08,25.15a27.57,27.57,0,0,0-2.91.46q-11.46,3-22.9,6.08c2.1-8.62,4.28-17.23,6.26-25.88.85-3.72,2.41-7.31,2.28-11.23l0,0C1176.31,302.57,1176.32,302.36,1175.84,302.09Z" transform="translate(-537.75 -9.5)"/><path class="cls-5" d="M1146.51,820.41h-38.24c0-4.86,0-9.71-.15-14.56,0-2,.74-2.73,2.73-2.72q16.55.07,33.09,0c2,0,2.77.71,2.72,2.72C1146.55,810.7,1146.56,815.56,1146.51,820.41Z" transform="translate(-537.75 -9.5)"/><path class="cls-5" d="M842.78,820.44H805.2c0-5.08,0-10.15-.14-15.22,0-1.57.47-2.1,2.06-2.09q16.86.08,33.73,0c1.6,0,2.1.51,2.07,2.08C842.81,810.3,842.82,815.37,842.78,820.44Z" transform="translate(-537.75 -9.5)"/><path class="cls-9" d="M1193.06,333.25q2-12.58,4.08-25.15a6.12,6.12,0,0,1,.69-1.47c1.19.2,1.42,1.27,1.87,2.12q6,11.5,12.06,23c.49.92.86,1.79.07,2.71-2.8,4-4.18,8.63-6.14,13-3.42,7.61-6.68,15.29-10,22.94-.12.27-.45.46-.68.69-.2-1.41-.49-2.82-.57-4.24C1193.77,355.68,1194.2,344.43,1193.06,333.25Z" transform="translate(-537.75 -9.5)"/><path class="cls-9" d="M732,306.63c1.59,4.32,1.67,8.95,2.62,13.4s1.45,8.81,2.16,13.22c-.17,3.19-.56,6.35-.68,9.56-.37,9.44.06,18.91-1.26,28.31-3.28-5.59-5.35-11.74-8-17.62s-5.18-11.87-7.79-17.79a5.45,5.45,0,0,0-1-1.22,1.94,1.94,0,0,1-.1-2.43q6.33-12.1,12.68-24.2A2,2,0,0,1,732,306.63Z" transform="translate(-537.75 -9.5)"/><path class="cls-5" d="M933.64,820.44H897.38c0-5.07,0-10.14-.14-15.22,0-1.56.47-2.09,2.06-2.08q16.22.08,32.41,0c1.6,0,2.09.52,2.06,2.09C933.66,810.3,933.67,815.37,933.64,820.44Z" transform="translate(-537.75 -9.5)"/><path class="cls-5" d="M1237.38,820.44h-36.26c0-5.08,0-10.15-.14-15.22,0-1.57.47-2.1,2.06-2.09q16.2.08,32.41,0c1.59,0,2.09.52,2.06,2.08C1237.4,810.3,1237.41,815.37,1237.38,820.44Z" transform="translate(-537.75 -9.5)"/><path class="cls-5" d="M716.76,820.4H679.19c0-4.75,0-9.5-.15-14.25-.07-2,.76-2.37,2.53-2.36q16.39.09,32.79,0c1.76,0,2.63.35,2.56,2.36C716.77,810.9,716.8,815.65,716.76,820.4Z" transform="translate(-537.75 -9.5)"/><path class="cls-10" d="M1175.79,302.68c.13,3.92-1.43,7.51-2.28,11.23-2,8.65-4.16,17.26-6.26,25.88l-.06,1.43-.56.07c-.31-2-2-2.79-3.24-4-2.72-2.5-6.15-4.23-8.07-7.57,1.5-2.18,3.42-4.05,4.55-6.48,4.58-6.08,9.14-12.17,13.74-18.24C1174.26,304.19,1174.63,303.06,1175.79,302.68Z" transform="translate(-537.75 -9.5)"/><path class="cls-10" d="M762.54,339.85q-4-16.8-8.13-33.6a8.85,8.85,0,0,1-.37-3.57c4.58,4.77,8,10.45,12.09,15.61,1.3,1.64,2.55,3.32,3.83,5l4,6.28a2.83,2.83,0,0,1-1.23,2.52c-3.24,2.67-6.23,5.64-9.81,7.89C762.79,339.93,762.67,339.88,762.54,339.85Z" transform="translate(-537.75 -9.5)"/><path class="cls-11" d="M774,329.56l-4-6.28c.59-.23.49-.79.59-1.25l4.39,6.83a.52.52,0,0,0,.13.58l.16.11Z" transform="translate(-537.75 -9.5)"/><path class="cls-11" d="M1159.87,323.28c-1.13,2.43-3,4.3-4.55,6.48l-.7.12v.06l.1-.79.14-.27,4.41-6.85C1159.38,322.49,1159.28,323.05,1159.87,323.28Z" transform="translate(-537.75 -9.5)"/><path class="cls-10" d="M1175.84,302.09c.48.27.47.48-.08.63A.67.67,0,0,1,1175.84,302.09Z" transform="translate(-537.75 -9.5)"/><path class="cls-10" d="M754.07,302.72c-.55-.15-.56-.36-.08-.63A.67.67,0,0,1,754.07,302.72Z" transform="translate(-537.75 -9.5)"/><path class="cls-5" d="M1104.86,645.81c-8.21.9-16.45,1.15-24.69,1.52-14,.65-28.07,1.68-42.11,2.42-5.38.29-10.77.24-16.15.74s-10.54.61-15.81.89c-3.24-1.11-4.84-4.1-6.93-6.38-7.57-8.24-14.9-16.7-22.2-25.17-3.79-4.39-8.11-8.3-11.42-13.1,10.66-10.19,21.67-20,32.69-29.82,6.24-5.56,12.32-11.3,18.64-17.11,1.1,2.59-.08,4.76-.36,6.94-1.43,11.21-3,22.41-4.55,33.6-1.19,8.48-2.75,16.91-3.68,25.41-.81,7.31-2.07,14.56-2.88,21.87-.09.82-.49,2.1.4,2.43,1.25.46,2.18-.81,3.06-1.51,8.74-6.86,17.4-13.82,26.12-20.71q21.75-17.19,43.53-34.33c6.9-5.46,13.73-11,20.58-16.51.6-.49,1.23-1.23,2-.89s.36,1.37.42,2.09c.93,10.43.76,20.92,1.49,31.35C1103.86,621.63,1104.32,633.72,1104.86,645.81Z" transform="translate(-537.75 -9.5)"/><path class="cls-4" d="M1106.82,481.55a2.67,2.67,0,0,1,.68,2.14c-.61,9.32-1.21,18.63-1.85,27.95-.19,2.73-.74,5.46-.73,8.19,0,12.45-1.68,24.8-2.26,37.21-.23,5-.14,10.09-1,15.12-.42,2.47-1.24,3.09-3.32,2.56-8.83-2.25-17.85-3.55-26.78-5.29-15.06-2.95-30.17-5.61-45.2-8.7-2.8-.58-6-.41-8.4-2.44,3.91-3.85,8.47-7,12.12-11.12,7.88-5.56,14.86-12.15,21.8-18.79a3.67,3.67,0,0,0,1.22-.43c5.4-4.67,10.76-9.36,16.14-14.05,6.53-5.69,13.08-11.35,19.61-17.06,5.85-5.11,11.83-10.09,17.35-15.59l.31,0h.32Z" transform="translate(-537.75 -9.5)"/><path class="cls-4" d="M911.86,558.29c-3.82,2.1-8.15,2.31-12.28,3.16-10.09,2.09-20.24,3.92-30.37,5.83q-16.8,3.16-33.62,6.28c-.22,0-.44,0-.66.09-7,1.47-7.2,1.47-7.23-5.76-.05-12.45-1.81-24.78-2.17-37.22-.28-9.65-1.41-19.28-2.07-28.93-.35-5.13.13-10.34-1-15.45-.3-1.34-.73-3.08.62-4.37a2.63,2.63,0,0,1,1.75.81c6.16,5.3,12.38,10.52,18.48,15.89,8.41,7.4,16.61,15,25.17,22.29,3,2.59,5.86,5.59,9.5,7.48,2.17,2.94,5.19,5,7.94,7.31,4.59,3.85,8.59,8.44,13.86,11.47C903.39,551.3,908,554.44,911.86,558.29Z" transform="translate(-537.75 -9.5)"/><path class="cls-5" d="M923.74,651.38c-10.22-.43-20.41-1.25-30.64-1.64C879.05,649.19,865,648,851,647.36c-8.68-.38-17.36-.6-26-1.55.1-16,1.6-31.88,2.23-47.82.29-7.28-.52-14.72,1.57-22.33,3,2.36,5.92,4.62,8.81,6.9q31.33,24.69,62.65,49.39c7,5.52,13.86,11.18,20.85,16.69,1,.79,2,1.79,3.41,1.9l0,.05Z" transform="translate(-537.75 -9.5)"/><path class="cls-3" d="M877.94,528.39c-3.64-1.89-6.45-4.89-9.5-7.48-8.56-7.24-16.76-14.89-25.17-22.29-6.1-5.37-12.32-10.59-18.48-15.89a2.63,2.63,0,0,0-1.75-.81c0-.15,0-.3,0-.45l.06-.85,0,0c3.63-.71,6.48-3.06,9.61-4.77,19.26-10.47,38.46-21.07,57.7-31.58,8-4.38,16.1-8.65,24.15-13-1.53,4.11-3,8.24-4.6,12.34-8.32,21.69-16.75,43.32-24.9,65.07-2.2,5.84-5,11.5-6.28,17.68l0,0-.67.72v1.15Z" transform="translate(-537.75 -9.5)"/><path class="cls-5" d="M924.49,650.54c-.12-6.5-1.56-12.85-2.37-19.27-1.13-9-2.39-18-3.65-27.07-1.17-8.48-2.45-16.94-3.62-25.42-.86-6.18-1.61-12.37-2.5-19.25,3,2.56,5.47,4.62,7.87,6.8Q932,577,943.64,587.74q10.33,9.48,20.64,19c-4.55,6.18-10.15,11.44-15.06,17.29s-10,11.64-15.28,17.2c-3,3.2-5.22,7.32-9.41,9.37Z" transform="translate(-537.75 -9.5)"/><path class="cls-4" d="M924.53,650.59c4.19-2.05,6.37-6.17,9.41-9.37,5.27-5.56,10.35-11.32,15.28-17.2s10.51-11.11,15.06-17.29h1.27c3.31,4.8,7.63,8.71,11.42,13.1,7.3,8.47,14.63,16.93,22.2,25.17,2.09,2.28,3.69,5.27,6.93,6.38,0,.19-.05.37-.07.56-2.07.82-4.11-.11-6.17-.1q-35,.09-69.89,0c-2.06,0-4.1.92-6.17.1l-.06-.56Z" transform="translate(-537.75 -9.5)"/><path class="cls-12" d="M911.86,558.29c-3.91-3.85-8.47-7-12.12-11.12,1.21-.08,2.41-.22,3.62-.22h123.11c1.21,0,2.42.14,3.62.22-3.65,4.13-8.21,7.27-12.12,11.12Z" transform="translate(-537.75 -9.5)"/><path class="cls-13" d="M1109.47,479.33l-.72,1.19-1.93,1,0-.27c.5-8.45,1.36-16.89,1.31-25.37-.06-9.59,1.08-19.16.72-28.76a3.68,3.68,0,0,1,.77-2.79c6.54-.29,13.13-.22,19.63-1,5.76-.66,11.59.07,17.28-1.21a1.21,1.21,0,0,1,.32.11c-.24,2.83-2.27,4.7-3.72,6.86q-16.59,24.66-33.26,49.29A6.6,6.6,0,0,0,1109.47,479.33Z" transform="translate(-537.75 -9.5)"/><path class="cls-13" d="M821.08,480.51l-.72-1.19-20.91-31.26-16.88-25.22,0,.05.44-.57.31-.14c1.52.22,3,.55,4.56.63,10.79.55,21.57,1,32.35,1.55.24.48.69,1,.7,1.45.12,7.1.35,14.19.61,21.29.42,11.19.37,22.39,1.53,33.55l0,0-1,.11Z" transform="translate(-537.75 -9.5)"/><path class="cls-7" d="M822,480.73l1-.11-.06.85Z" transform="translate(-537.75 -9.5)"/><path class="cls-11" d="M1067.81,137l1.53.5c-.21.62-.41,1.24-.62,1.86a5,5,0,0,0-2.36,1.74q-25.32,25.33-50.63,50.68c-.76.76-1.78,1.4-1.71,2.7-1.15,1-1.55,2.39-2.14,3.67-7.47,16.41-15,32.8-22.28,49.3-2.16,4.9-4.94,9.56-6.13,14.87-1.92.75-3.94.47-5.92.61l-25.89-.06c-1.78,0-3.59.16-5.3-.55-1.37-5.6-4.31-10.54-6.57-15.76-4.64-10.69-9.34-21.36-14.31-31.9-3.18-6.74-5.79-13.77-9.67-20.18.05-1.44-1.11-2.1-1.94-2.93q-25.07-25.12-50.17-50.21c-.77-.77-1.42-1.72-2.59-2-.21-.62-.41-1.24-.62-1.86l1.65-.44c.76.06,1.53.17,2.3.17H960.6c.77,0,1.54-.11,2.3-.17a9.77,9.77,0,0,0,4,0c.76.06,1.53.17,2.3.17q47.81,0,95.62,0C1065.84,137.24,1066.82,137.1,1067.81,137Zm-54.91,56.87-12.4-14.52q-9.22-10.77-18.45-21.54c-5-5.83-10.14-11.59-15.15-17.43-1.4-1.64-2.49-1.74-3.94,0-3.64,4.27-7.43,8.41-11.09,12.66q-11.29,13.13-22.5,26.31l-11.92,13.94c.1.27.21.55.32.83C949.19,193.23,980.62,193.89,1012.9,193.89Z" transform="translate(-537.75 -9.5)"/><path class="cls-3" d="M962.9,137.08c-.76.06-1.53.17-2.3.17H864.44c-.77,0-1.54-.11-2.3-.17q8.13-13.11,16.28-26.22c4.22-6.78,8.48-13.53,12.7-20.31a3.74,3.74,0,0,0,.27-1.28,3.38,3.38,0,0,1,.62-.18,1.91,1.91,0,0,0,.54.09c.23.36.39.84.71,1.06q8.46,5.72,17,11.37Q935.37,118.29,960.5,135C961.38,135.53,962.54,135.89,962.9,137.08Z" transform="translate(-537.75 -9.5)"/><path class="cls-10" d="M860.49,137.52c.21.62.41,1.24.62,1.86-1.12,1.75-1,3.82-1.43,5.74-3.3,16.39-6.5,32.8-9.73,49.21-.39.48-.77,1-1.15,1.45-8.61,6.33-17.2,12.7-25.84,19-8,5.83-15.69,12.1-24,17.52,0-.41.07-.83.11-1.24l33.86-51.73L858.66,140l1.52-2.48a1.15,1.15,0,0,0,.31-.11Z" transform="translate(-537.75 -9.5)"/><path class="cls-3" d="M1067.81,137c-1,.08-2,.22-3,.22q-47.8,0-95.62,0c-.77,0-1.54-.11-2.3-.17a3.91,3.91,0,0,1,.77-1q28.26-18.83,56.52-37.65c4.43-3,9.22-5.45,13.07-9.24a2.36,2.36,0,0,0,.53-.1,3.38,3.38,0,0,1,.62.18c1.1,3.88,3.76,6.9,5.8,10.23C1052,112.09,1059.93,124.53,1067.81,137Z" transform="translate(-537.75 -9.5)"/><path class="cls-10" d="M1068.72,139.38c.21-.62.41-1.24.62-1.86v-.07a1.21,1.21,0,0,0,.32.11l1.51,2.48,59.58,91c.09.45.17.9.25,1.36l-.3,0-18.6-13.68L1081,195.78c-.38-.48-.76-1-1.15-1.45-2.17-11.23-4.26-22.48-6.54-33.69C1071.89,153.54,1070.82,146.35,1068.72,139.38Z" transform="translate(-537.75 -9.5)"/><path class="cls-3" d="M858.66,140l-25.72,39.27L799.08,231c-3-6.18-3.92-13-6-19.49-3.06-9.83-5.18-19.94-8.66-29.64l0-1.33a1,1,0,0,0,.25-.43c4-1.09,7.33-3.49,10.88-5.45,13.87-7.66,27.68-15.42,41.55-23.07C844.3,147.7,851.5,143.9,858.66,140Z" transform="translate(-537.75 -9.5)"/><path class="cls-7" d="M799,232.28c8.3-5.42,16-11.69,24-17.52,8.64-6.28,17.23-12.65,25.84-19,.24,2.49-.82,4.75-1.32,7.09-3.11,14.46-6.43,28.88-9.46,43.36-1.12,5.35-3,10.57-3.08,16.12-.35.46-.85.38-1.33.34a4.56,4.56,0,0,0-.78-1.39c-8.16-6.88-16.27-13.81-24.55-20.53-3.22-2.62-6-5.85-9.73-7.79a2.08,2.08,0,0,1,0-.61A1,1,0,0,0,799,232.28Z" transform="translate(-537.75 -9.5)"/><path class="cls-3" d="M1130.75,231l-59.58-91c4.29,1.75,8.15,4.32,12.19,6.55,14.35,7.93,28.64,16,43,23.8,6.16,3.37,12,7.34,18.69,9.75a1,1,0,0,0,.25.43l0,1.33c-2,4.29-2.72,9-4,13.5-3.36,11.49-6.61,23-9.92,34.52A5,5,0,0,1,1130.75,231Z" transform="translate(-537.75 -9.5)"/><path class="cls-4" d="M1037.29,89.19c-3.85,3.79-8.64,6.27-13.07,9.24Q996,117.33,967.7,136.08a3.91,3.91,0,0,0-.77,1,9.77,9.77,0,0,1-4,0c-.36-1.19-1.52-1.55-2.4-2.13q-25.11-16.69-50.29-33.34-8.49-5.64-17-11.37c-.32-.22-.48-.7-.71-1.06Q906.08,83.1,919.62,77L949,63.71h31.81L1010.21,77Q1023.74,83.13,1037.29,89.19Z" transform="translate(-537.75 -9.5)"/><path class="cls-10" d="M1186.43,421.54c-6.07,3.81-12.88,6.07-19.29,9.18-4.14,2-8.43,3.72-12.65,5.57q-2.91-5.78-5.81-11.56c-.46-.93-.43-2.2-1.81-2.44a1.21,1.21,0,0,0-.32-.11c0-.44,0-.88,0-1.32,1.08-.43.23-2,1.69-2.52-.67,3,1.26,2.54,3,2.54q15.88,0,31.76,0C1184.16,420.89,1185.46,420.43,1186.43,421.54Z" transform="translate(-537.75 -9.5)"/><path class="cls-10" d="M775.34,436.29c-10.69-4.82-21.62-9.11-31.94-14.75,1-1.11,2.27-.65,3.43-.65q15.88-.06,31.76,0c1.72,0,3.65.43,2.92-2.78,1.39.86.74,2.29,1.75,2.76l0,1.32-.31.14-.44.57,0-.05c-2.56,3.31-3.8,7.32-5.73,11C776.38,434.67,776.23,435.7,775.34,436.29Z" transform="translate(-537.75 -9.5)"/><path class="cls-10" d="M1154.87,328.88l-.14.27-.75.13a17.79,17.79,0,0,1-3.89-.49c-7.79-1.71-15.39-4.24-23.28-5.53-4.75,1.17-9,3.65-13.42,5.53l-1.16-.64a5.11,5.11,0,0,0-.52-1.53q-12-15.56-24.08-31.07.66-2.54,1.3-5.07c2.18-8.56,3.78-17.27,6.72-25.63,3.11,2.38,4.07,6.16,5.78,9.36,7.38,13.81,14.43,27.79,21.64,41.69,1,1.91,2.18,3.72,3.42,5.82a29.29,29.29,0,0,0,.85-4.57c.18-14.08,1.27-28.11,1.93-42.17.35-7.58.65-15.18,1-22.76.23-4.87-.36-9.94,1.24-14.74,1.94,3.07,2.09,6.7,2.94,10.07,4.08,16.07,7.87,32.22,11.76,48.35,2.36,9.82,4.7,19.65,7.09,29.47C1153.61,326.62,1153.63,328,1154.87,328.88Z" transform="translate(-537.75 -9.5)"/><path class="cls-12" d="M1131.52,237.48c-1.6,4.8-1,9.87-1.24,14.74-.36,7.58-.66,15.18-1,22.76-.66,14.06-1.75,28.09-1.93,42.17a29.29,29.29,0,0,1-.85,4.57c-1.24-2.1-2.43-3.91-3.42-5.82-7.21-13.9-14.26-27.88-21.64-41.69-1.71-3.2-2.67-7-5.78-9.36,0-.68,0-1.36,0-2.05a12.34,12.34,0,0,1,1.28-1.5q16.83-14.16,33.68-28.29C1130.94,234.5,1131.23,236,1131.52,237.48Z" transform="translate(-537.75 -9.5)"/><path class="cls-7" d="M1130.66,233q-16.85,14.15-33.68,28.29a12.34,12.34,0,0,0-1.28,1.5l-.81-.45a14.13,14.13,0,0,0-.33-3.6c-1.28-5.44-2.44-10.9-3.64-16.36-1.88-8.45-3.89-16.87-5.6-25.36-1.42-7.08-3.41-14.06-4.29-21.25l31.07,22.9,18.6,13.68C1130.68,232.57,1130.67,232.79,1130.66,233Z" transform="translate(-537.75 -9.5)"/><path class="cls-10" d="M775.07,329.44a.52.52,0,0,1-.13-.58c1.22-.7,1.25-2,1.52-3.16,6.3-26.05,12.49-52.13,18.9-78.15.83-3.37,1-7,2.95-10.06,1.53,5.14,1,10.5,1.29,15.72.57,9.1.88,18.22,1.43,27.33.7,11.52,1,23.07,1.39,34.61a16.08,16.08,0,0,0,1.22,6.68c8.26-15.94,16.25-31.51,24.41-47,1.67-3.17,3-6.6,5.53-9.27,1.14,1.9,1.43,4.09,2,6.18,2.23,7.93,3.66,16.08,6.6,23.82-5.35,6.9-10.76,13.76-16,20.74-2.93,3.9-6.35,7.46-8.59,11.86l-.59.43c-1.14-.36-2.32-.64-3.43-1.1-3.5-1.46-6.81-3.4-10.56-4.22-1,.16-1.95.3-2.91.5C791.72,325.46,783.62,328.47,775.07,329.44Z" transform="translate(-537.75 -9.5)"/><path class="cls-12" d="M833.57,265.55c-2.54,2.67-3.85,6.1-5.52,9.27-8.16,15.5-16.15,31.07-24.41,47a16.08,16.08,0,0,1-1.22-6.68c-.4-11.54-.69-23.09-1.39-34.61-.55-9.11-.86-18.23-1.43-27.33-.32-5.22.24-10.58-1.29-15.72l.24-4.51c3.76,1.94,6.51,5.17,9.73,7.79,8.28,6.72,16.39,13.65,24.55,20.53a4.56,4.56,0,0,1,.78,1.39C833.6,263.64,833.59,264.59,833.57,265.55Z" transform="translate(-537.75 -9.5)"/><path class="cls-1" d="M858.66,140c-7.16,3.86-14.36,7.66-21.48,11.59-13.87,7.65-27.68,15.41-41.55,23.07-3.55,2-6.89,4.36-10.88,5.45q-15.27-26.84-30.55-53.68a3.3,3.3,0,0,1-.68-2.79c6.13.37,12.2,1.16,18.27,2.06,8,1.19,16.12,2,24.15,3.14,5.54.8,11.13,1.33,16.62,2.24,8.78,1.45,17.62,2.29,26.4,3.64,7,1.08,14.14,1.87,21.22,2.8Z" transform="translate(-537.75 -9.5)"/><path class="cls-1" d="M1145.08,180.15c-6.67-2.41-12.53-6.38-18.69-9.75-14.39-7.84-28.68-15.87-43-23.8-4-2.23-7.9-4.8-12.19-6.55l-1.51-2.49q11.58-1.53,23.17-3.05c6.31-.82,12.63-1.55,18.94-2.4,5.86-.78,11.71-1.7,17.57-2.5,7-1,13.92-1.87,20.88-2.78,7.61-1,15.23-1.94,22.83-3a9.68,9.68,0,0,1,3.26-.14c.49,2.16-1.23,3.45-2.11,5Q1159.7,154.46,1145.08,180.15Z" transform="translate(-537.75 -9.5)"/><path class="cls-12" d="M1126.81,323.26c7.89,1.29,15.49,3.82,23.28,5.53a17.79,17.79,0,0,0,3.89.49l.65.66v-.06c-1.44,3.29-.46,6.76-.75,10.14-1.16,13.16-2.18,26.33-3.3,39.5-.56,6.58-1.5,13.13-1.76,19.72-.23,5.91-1.36,11.79-.25,17.84q9.07-36.94,18.16-73.91c1.53.41,1.41,1.88,1.73,2.94,1.09,3.57,1.94,7.22,3,10.81,5.21,17.82,10.41,35.65,15.72,53.45.68,2.3.48,5.15,3.15,6.54l-.06,3.47-3.81,1.16c-1-1.11-2.27-.65-3.43-.65q-15.87-.06-31.76,0c-1.72,0-3.65.43-3-2.54-1.46.54-.61,2.09-1.69,2.52-1.22-3.19-1.6-6.57-2.27-9.89q-4.82-24-9.63-47.89C1132,349.81,1129.43,336.53,1126.81,323.26Z" transform="translate(-537.75 -9.5)"/><path class="cls-13" d="M1190.3,416.91c-2.67-1.39-2.47-4.24-3.15-6.54-5.31-17.8-10.51-35.63-15.72-53.45-1-3.59-1.89-7.24-3-10.81-.32-1.06-.2-2.53-1.73-2.94l-.09-1.88.56-.07c2.37,1.23,3.4,3.71,5.15,5.52,6.26,6.51,11.7,13.76,18.08,20.17,1.51,1.51,2.44,3.59,4.37,4.75.91,5.64-1.06,11.06-1.32,16.64-.36,8.16-1.62,16.28-2.39,24.43A21.71,21.71,0,0,1,1190.3,416.91Z" transform="translate(-537.75 -9.5)"/><path class="cls-12" d="M1194.79,371.66c-1.93-1.16-2.86-3.24-4.37-4.75-6.38-6.41-11.82-13.66-18.08-20.17-1.75-1.81-2.78-4.29-5.15-5.52l.06-1.43q11.45-3,22.9-6.08a27.57,27.57,0,0,1,2.91-.46c1.14,11.18.71,22.43,1.36,33.63.08,1.42.37,2.83.57,4.24A3.16,3.16,0,0,1,1194.79,371.66Z" transform="translate(-537.75 -9.5)"/><path class="cls-12" d="M775.07,329.44c8.55-1,16.65-4,25-5.68,1-.2,1.94-.34,2.91-.5-1.18,6.15-2.33,12.31-3.56,18.46q-5.78,28.8-11.62,57.59c-1.47,7.2-2.46,14.49-4.58,21.55-1-.47-.36-1.9-1.75-2.76.73,3.21-1.2,2.78-2.92,2.78q-15.89,0-31.76,0c-1.16,0-2.46-.46-3.43.65l-3.82-1.15c0-1.16,0-2.32-.05-3.48,1.52-.3,1.65-1.61,2-2.75q1.5-5.06,3-10.12c5-17.08,9.86-34.18,14.92-51.23,1-3.23,1.33-6.69,3.25-9.61.94.9,1,2.15,1.32,3.31,5.15,21.29,10.23,42.6,15.49,63.86.55,2.23.62,4.73,2.43,7.21,0-1.69.06-2.78,0-3.86-.45-6.92-.88-13.83-1.41-20.74-.65-8.56-1.37-17.11-2.08-25.65q-1.57-18.9-3.18-37.78Z" transform="translate(-537.75 -9.5)"/><path class="cls-13" d="M762.67,343.2c-1.92,2.92-2.29,6.38-3.25,9.61-5.06,17.05-10,34.15-14.92,51.23q-1.47,5.07-3,10.12c-.34,1.14-.47,2.45-2,2.75-1.4-3-.71-6.27-1.2-9.4a187,187,0,0,1-2.1-20.86c-.19-5-2.19-9.89-1.19-15,5.23-5.74,10.56-11.39,15.66-17.25,3.89-4.48,7.62-9.09,11.92-13.19C762.64,341.88,762.65,342.54,762.67,343.2Z" transform="translate(-537.75 -9.5)"/><path class="cls-12" d="M762.62,341.22c-4.3,4.1-8,8.71-11.92,13.19-5.1,5.86-10.43,11.51-15.66,17.25a3.16,3.16,0,0,1-.2-.54c1.32-9.4.89-18.87,1.26-28.31.12-3.21.51-6.37.68-9.56,7,1.24,13.77,3.58,20.68,5.27,1.7.42,3.39.89,5.08,1.33.13,0,.25.08.37.12C762.81,340.39,762.72,340.81,762.62,341.22Z" transform="translate(-537.75 -9.5)"/><path class="cls-8" d="M1166.63,341.29l.09,1.88q-9.08,37-18.16,73.91c-1.11-6.05,0-11.93.25-17.84.26-6.59,1.2-13.14,1.76-19.72,1.12-13.17,2.14-26.34,3.3-39.5.29-3.38-.69-6.85.75-10.14l.7-.12c1.92,3.34,5.35,5.07,8.07,7.57C1164.66,338.5,1166.32,339.34,1166.63,341.29Z" transform="translate(-537.75 -9.5)"/><path class="cls-8" d="M762.62,341.22c.1-.41.19-.83.29-1.25,3.58-2.25,6.57-5.22,9.81-7.89a2.83,2.83,0,0,0,1.23-2.52h1.28q1.59,18.88,3.18,37.78c.71,8.54,1.43,17.09,2.08,25.65.53,6.91,1,13.82,1.41,20.74.07,1.08,0,2.17,0,3.86-1.81-2.48-1.88-5-2.43-7.21-5.26-21.26-10.34-42.57-15.49-63.86-.28-1.16-.38-2.41-1.32-3.31C762.65,342.54,762.64,341.88,762.62,341.22Z" transform="translate(-537.75 -9.5)"/><path class="cls-8" d="M1154.63,329.94l-.65-.66.75-.13C1154.7,329.41,1154.67,329.68,1154.63,329.94Z" transform="translate(-537.75 -9.5)"/><path class="cls-7" d="M1030.09,547.17c-1.2-.08-2.41-.22-3.62-.22H903.36c-1.21,0-2.41.14-3.62.22-5.27-3-9.27-7.62-13.86-11.47-2.75-2.31-5.77-4.37-7.94-7.31l.12-.13c6.8-2.24,13.56-4.61,20.4-6.68,5.25-1.59,10.18-4.5,15.81-4.51,33.76-.07,67.53,0,101.29-.05a15,15,0,0,1,4.84.85c10.45,3.5,20.91,6.93,31.37,10.39l.12.12C1045,535,1038,541.61,1030.09,547.17Z" transform="translate(-537.75 -9.5)"/><path class="cls-3" d="M1106.21,481.25c-5.52,5.5-11.5,10.48-17.35,15.59-6.53,5.71-13.08,11.37-19.61,17.06-5.38,4.69-10.74,9.38-16.14,14.05a3.67,3.67,0,0,1-1.22.43l-.12-.12v-1.15l-.67-.72,0,0c0-2.3-1.19-4.21-2-6.25q-11.79-30.84-23.61-61.67c-3.45-9-6.8-18.12-10.2-27.18.8.35,1.65.63,2.41,1.05q27.33,15,54.63,30.08C1083.67,468.7,1095.17,474.56,1106.21,481.25Z" transform="translate(-537.75 -9.5)"/><path class="cls-7" d="M1106.21,481.25c-11-6.69-22.54-12.55-33.83-18.79q-27.29-15.09-54.63-30.08a25.73,25.73,0,0,0-2.41-1l-.73-.42a2,2,0,0,0-.57-.24l.58-.53a113.72,113.72,0,0,1,17.62-1.83c11.5-.63,23-1.2,34.5-2,14.23-1,28.53-.77,42.75-2.16l.15.18a3.68,3.68,0,0,0-.77,2.79c.36,9.6-.78,19.17-.72,28.76,0,8.48-.81,16.92-1.31,25.37h-.32Z" transform="translate(-537.75 -9.5)"/><path class="cls-7" d="M823,480.65c-1.16-11.16-1.11-22.36-1.53-33.55-.26-7.1-.49-14.19-.61-21.29,0-.49-.46-1-.7-1.45l.15-.18c4.48.43,8.95,1.19,13.43,1.22,14,.1,27.92.93,41.86,2,7.46.58,15,.38,22.45.85,5.68.36,11.32,1.22,17,1.86a1.55,1.55,0,0,1,.16.64l-.74.58c-8,4.31-16.13,8.58-24.15,13-19.24,10.51-38.44,21.11-57.7,31.58C829.51,477.59,826.66,479.94,823,480.65Z" transform="translate(-537.75 -9.5)"/><path class="cls-14" d="M1051.77,527.11v1.15c-10.46-3.46-20.92-6.89-31.37-10.39a15,15,0,0,0-4.84-.85c-33.76,0-67.53,0-101.29.05-5.63,0-10.56,2.92-15.81,4.51-6.84,2.07-13.6,4.44-20.4,6.68v-1.15l.67-.72,0,0c3.7-1.85,6.2-5.17,9.28-7.77,9.4-7.94,18.6-16.13,27.87-24.23l.69,0a16.27,16.27,0,0,0,2.22.61c9.56,1.36,19.12,2.67,28.68,4,9.77,1.39,19.49,3.24,29.4.81,3.5-.86,7.17-1,10.75-1.53q12.84-1.94,25.68-3.92l.69,0c9.28,8.1,18.47,16.29,27.87,24.23,3.08,2.6,5.58,5.92,9.28,7.77l0,0Z" transform="translate(-537.75 -9.5)"/><path class="cls-4" d="M915.86,494.43c-9.27,8.1-18.47,16.29-27.87,24.23-3.08,2.6-5.58,5.92-9.28,7.77,1.27-6.18,4.08-11.84,6.28-17.68,8.15-21.75,16.58-43.38,24.9-65.07,1.57-4.1,3.07-8.23,4.6-12.34l.74-.58,0,.1.67.6v0Q915.87,462.93,915.86,494.43Z" transform="translate(-537.75 -9.5)"/><path class="cls-4" d="M878.73,526.39l-.67.72Z" transform="translate(-537.75 -9.5)"/><path class="cls-7" d="M1126.81,323.26c2.62,13.27,5.21,26.55,7.86,39.82q4.78,24,9.63,47.89c.67,3.32,1,6.7,2.27,9.89,0,.44,0,.88,0,1.32-5.69,1.28-11.52.55-17.28,1.21-6.5.75-13.09.68-19.63,1l-.15-.18c.21-2.85.49-5.69.62-8.55.3-6.16.45-12.35.5-18.49.13-16.11,1.56-32.16,1.74-48.27.07-6.66-.13-13.43,1-20.08C1117.85,326.91,1122.06,324.43,1126.81,323.26Z" transform="translate(-537.75 -9.5)"/><path class="cls-7" d="M783.26,420.86c2.12-7.06,3.11-14.35,4.58-21.55q5.85-28.79,11.62-57.59c1.23-6.15,2.38-12.31,3.56-18.46,3.75.82,7.06,2.76,10.56,4.22,1.11.46,2.29.74,3.43,1.1.09,6.16.28,12.31.51,18.47q.63,17,1.32,33.94c.57,14.39.7,28.8,1.5,43.19l-.15.18c-10.78-.51-21.56-1-32.35-1.55-1.52-.08-3-.41-4.56-.63C783.27,421.74,783.26,421.3,783.26,420.86Z" transform="translate(-537.75 -9.5)"/><path class="cls-3" d="M782.53,422.89l.44-.57Z" transform="translate(-537.75 -9.5)"/><path class="cls-9" d="M834.94,262.35c.11-5.55,2-10.77,3.08-16.12,3-14.48,6.35-28.9,9.46-43.36.5-2.34,1.56-4.6,1.32-7.09.38-.48.76-1,1.15-1.45,1.1.06,2.2.17,3.3.17h62.56c3.88,6.41,6.49,13.44,9.67,20.18,5,10.54,9.67,21.21,14.31,31.9,2.26,5.22,5.2,10.16,6.57,15.76H834.94Z" transform="translate(-537.75 -9.5)"/><path class="cls-9" d="M1081,195.78c.88,7.19,2.87,14.17,4.29,21.25,1.71,8.49,3.72,16.91,5.6,25.36,1.2,5.46,2.36,10.92,3.64,16.36a14.13,14.13,0,0,1,.33,3.6H983.47c1.19-5.31,4-10,6.13-14.87,7.28-16.5,14.81-32.89,22.28-49.3.59-1.28,1-2.7,2.14-3.67q20.36,0,40.72,0c8.38,0,16.76-.11,25.14-.17C1080.27,194.81,1080.65,195.3,1081,195.78Z" transform="translate(-537.75 -9.5)"/><path class="cls-8" d="M983.47,262.34h111.42l.81.45c0,.69,0,1.37,0,2.05-2.94,8.36-4.54,17.07-6.72,25.63q-.65,2.53-1.3,5.07c-1.45-.44-2.9-.89-4.35-1.31-5.85-1.66-11.32-4.52-17.36-5.55-.29-1.37-1.37-1.18-2.34-1.18H1034c-1,0-2.07-.22-2.28,1.21-2.35.74-3.54,2.88-5.21,4.41-8.31,7.66-16.83,15.1-24.44,23.49a1.32,1.32,0,0,1-1.88-.09c-1.08-4.29-3.13-8.2-4.93-12.19-1.69-3.75-2.62-7.89-5.41-11.12-.89-1.93-.74-4.25-2.26-5.94-.35-1-.63-2.1-1-3.1q-4.44-10.63-8.94-21.24C979.53,262.81,981.55,263.09,983.47,262.34Z" transform="translate(-537.75 -9.5)"/><path class="cls-8" d="M834.94,262.35H946.36c1.71.71,3.52.53,5.3.55-.34.92-.66,1.86-1,2.77-2.9,7.26-6.52,14.22-9,21.66-.95.69-.85,1.83-1.18,2.79-1.83,2.63-2.82,5.68-4,8.61-2.31,5.91-5.44,11.51-6.84,17.77-.62.31-1.17,1.19-1.92.2a7.38,7.38,0,0,0-.71-1.1c-7.75-8.59-17-15.52-25.57-23.26-1.4-1.28-2.52-3.14-4.61-3.6-.22-1.43-1.33-1.2-2.29-1.21H864.92c-1,0-2-.18-2.34,1.18-1.57-.06-3,.72-4.42,1.09-5.52,1.38-10.37,4.61-16,5.77-2.94-7.74-4.37-15.89-6.6-23.82-.59-2.09-.88-4.28-2-6.18l0-2.86C834.09,262.73,834.59,262.81,834.94,262.35Z" transform="translate(-537.75 -9.5)"/><path class="cls-9" d="M1012.9,193.89c-32.28,0-63.71-.66-95.13.21-.11-.28-.22-.56-.32-.83l11.92-13.94q11.24-13.15,22.5-26.31c3.66-4.25,7.45-8.39,11.09-12.66,1.45-1.7,2.54-1.6,3.94,0,5,5.84,10.12,11.6,15.15,17.43q9.26,10.74,18.45,21.54Z" transform="translate(-537.75 -9.5)"/><path class="cls-7" d="M1079.88,194.33c-8.38.06-16.76.16-25.14.17q-20.35,0-40.72,0c-.07-1.3,1-1.94,1.71-2.7q25.3-25.35,50.63-50.68a5,5,0,0,1,2.36-1.74c2.1,7,3.17,14.16,4.62,21.26C1075.62,171.85,1077.71,183.1,1079.88,194.33Z" transform="translate(-537.75 -9.5)"/><path class="cls-7" d="M915.81,194.5H853.25c-1.1,0-2.2-.11-3.3-.17,3.23-16.41,6.43-32.82,9.73-49.21.39-1.92.31-4,1.43-5.74,1.17.26,1.82,1.21,2.59,2q25.09,25.09,50.17,50.21C914.7,192.4,915.86,193.06,915.81,194.5Z" transform="translate(-537.75 -9.5)"/><path class="cls-12" d="M941.64,287.32c2.47-7.44,6.09-14.4,9-21.66.37-.91.69-1.85,1-2.77l25.89.06q4.49,10.62,8.94,21.24c.42,1,.7,2.06,1,3.1Z" transform="translate(-537.75 -9.5)"/><path class="cls-9" d="M1113.39,328.79c-1.17,6.65-1,13.42-1,20.08-.18,16.11-1.61,32.16-1.74,48.27,0,6.14-.2,12.33-.5,18.49-.13,2.86-.41,5.7-.62,8.55-14.22,1.39-28.52,1.2-42.75,2.16-11.5.78-23,1.35-34.5,2a113.72,113.72,0,0,0-17.62,1.83c-.16-.72-.32-1.44-.49-2.15l-.08-.14c1.21-1.22,1-2.84,1.27-4.34a4.35,4.35,0,0,0,1.32-2.58q4.67-16,9.37-31.91,8.6-29.2,17.17-58.42l57-2a74.53,74.53,0,0,0,12-.44Z" transform="translate(-537.75 -9.5)"/><path class="cls-12" d="M1112.23,328.15a74.53,74.53,0,0,1-12,.44c.43-1.32-.59-2-1.25-2.85-4.42-5.64-8.92-11.21-13.22-16.94a9.43,9.43,0,0,0-4.93-3.56c-6-1.9-11.86-4-17.79-6,.6-3.62,1.2-7.24,2.92-10.55,6,1,11.51,3.89,17.36,5.55,1.45.42,2.9.87,4.35,1.31q12,15.52,24.08,31.07A5.11,5.11,0,0,1,1112.23,328.15Z" transform="translate(-537.75 -9.5)"/><path class="cls-9" d="M820.34,424.18c-.8-14.39-.93-28.8-1.5-43.19q-.68-17-1.32-33.94c-.23-6.16-.42-12.31-.51-18.47l.59-.43a74.53,74.53,0,0,0,12,.44l14.82.53,42.2,1.49q5.83,19.71,11.68,39.43c4.3,14.65,8.47,29.33,12.91,43.94,1,3.2,1.19,6.7,3.26,9.54.23,1.5.06,3.12,1.27,4.34l-.08.14-.63,2.12c-5.67-.64-11.31-1.5-17-1.86-7.48-.47-15-.27-22.45-.85-13.94-1.08-27.87-1.91-41.86-2C829.29,425.37,824.82,424.61,820.34,424.18Z" transform="translate(-537.75 -9.5)"/><path class="cls-12" d="M829.64,328.59a74.53,74.53,0,0,1-12-.44c2.24-4.4,5.66-8,8.59-11.86,5.25-7,10.66-13.84,16-20.74,5.59-1.16,10.44-4.39,16-5.77,1.47-.37,2.85-1.15,4.43-1.09,1.71,3.31,2.32,6.93,2.91,10.55-5.68,2.07-11.35,4.15-17,6.19a7.05,7.05,0,0,0-3.54,2.27c-4.78,6.21-9.63,12.36-14.46,18.53C829.91,326.93,829.29,327.59,829.64,328.59Z" transform="translate(-537.75 -9.5)"/><path class="cls-4" d="M1051.12,526.43c-3.7-1.85-6.2-5.17-9.28-7.77-9.4-7.94-18.59-16.13-27.87-24.23v-63l.66-.54.73.42c3.4,9.05,6.75,18.13,10.2,27.17q11.78,30.84,23.61,61.67C1049.93,522.22,1051.15,524.13,1051.12,526.43Z" transform="translate(-537.75 -9.5)"/><path class="cls-4" d="M1051.77,527.11l-.67-.72Z" transform="translate(-537.75 -9.5)"/><path class="cls-8" d="M915.07,430.12l.63-2.12c1.67.3,2.23-1.19,3.14-2,5.3-5,10-10.55,15.64-15.15l1.09.21c7.57,4.69,15.84,8.13,23.43,12.74,4.29,2.6,7.54,2.6,11.83,0,7.59-4.61,15.86-8,23.43-12.74l1.1-.21c5.64,4.6,10.33,10.2,15.64,15.15.9.84,1.47,2.33,3.14,2l.48,2.15-.58.53-.09.78v0c-3,.4-5.1,2.45-7.49,3.92-13.23,8.15-26.41,16.39-39.6,24.59a4.05,4.05,0,0,1-3.91,0c-11.69-7.28-23.34-14.63-35.09-21.82-3.9-2.38-7.47-5.4-12-6.69v0c0-.48-.32-.54-.67-.6l0-.1A1.55,1.55,0,0,0,915.07,430.12Z" transform="translate(-537.75 -9.5)"/><path class="cls-1" d="M1014,431.46l.09-.78a2,2,0,0,1,.57.24Z" transform="translate(-537.75 -9.5)"/><path class="cls-5" d="M963,459.94a4.05,4.05,0,0,0,3.91,0,4.36,4.36,0,0,0,.8,1c8.32,6.1,16.68,12.15,25,18.25,6.89,5.06,13.74,10.16,20.61,15.24q-12.84,2-25.68,3.92c-3.58.53-7.25.67-10.75,1.53-9.91,2.43-19.63.58-29.4-.81-9.56-1.36-19.12-2.67-28.68-4a16.27,16.27,0,0,1-2.22-.61,3.9,3.9,0,0,1,.59-.78c9.94-7.24,19.94-14.39,29.81-21.72C952.3,468,958,464.42,963,459.94Z" transform="translate(-537.75 -9.5)"/><path class="cls-1" d="M963,459.94c-5,4.48-10.66,8-16,12-9.87,7.33-19.87,14.48-29.81,21.72a3.9,3.9,0,0,0-.59.78l-.69,0q0-31.5,0-63c4.53,1.29,8.1,4.31,12,6.69C939.62,445.31,951.27,452.66,963,459.94Z" transform="translate(-537.75 -9.5)"/><path class="cls-1" d="M1013.28,494.46c-6.87-5.08-13.72-10.18-20.61-15.24-8.32-6.1-16.68-12.15-25-18.25a4.36,4.36,0,0,1-.8-1c13.19-8.2,26.37-16.44,39.6-24.59,2.39-1.47,4.52-3.52,7.49-3.92v63Z" transform="translate(-537.75 -9.5)"/><path class="cls-1" d="M915.2,430.86c.35.06.7.12.67.6Z" transform="translate(-537.75 -9.5)"/><path class="cls-9" d="M935.57,411l-1.09-.21c-.63-2.67.43-5.23.49-7.85.27-12.43,1.24-24.82,1.85-37.23.68-13.83,1.43-27.67,2.11-41.5.15-3,.14-6,.28-8.93.39-8.4.83-16.8,1.25-25.2.33-1,.23-2.1,1.18-2.79l45.9,0c1.52,1.69,1.37,4,2.26,5.94-1.12,3.3.17,6.55.24,9.82.17,8.48.22,17,.94,25.43,1.26,14.8,1.39,29.66,2.52,44.46.42,5.61.48,11.22.76,16.83.34,7,.73,14,1.1,21.05l-1.1.21Z" transform="translate(-537.75 -9.5)"/><path class="cls-13" d="M995.36,410.82c-.37-7-.76-14-1.1-21.05-.28-5.61-.34-11.22-.76-16.83-1.13-14.8-1.26-29.66-2.52-44.46-.72-8.44-.77-17-.94-25.43-.07-3.27-1.36-6.52-.24-9.82,2.79,3.23,3.72,7.37,5.41,11.12,1.8,4,3.85,7.9,4.93,12.19,1.06,6,1.23,12.21,2.22,18.23,1.22,7.46,2,15,2.83,22.46.94,8.59,2.22,17.14,3,25.76,1,10.87,2.83,21.68,3.82,32.58.37,4.12,1.31,8.19,2,12.29l.08.14c-1.66.3-2.23-1.19-3.13-2C1005.69,421,1001,415.42,995.36,410.82Z" transform="translate(-537.75 -9.5)"/><path class="cls-12" d="M1014.05,427.86c-.68-4.1-1.62-8.17-2-12.29-1-10.9-2.78-21.71-3.82-32.58-.83-8.62-2.11-17.17-3-25.76-.82-7.48-1.61-15-2.83-22.46-1-6-1.16-12.19-2.22-18.23a1.32,1.32,0,0,0,1.88.09l15.11,2.72a1,1,0,0,1,.23.56c-.92.76-.64,1.82-.66,2.78-.26,10.15-.11,20.31-.53,30.47-.68,16.88-.62,33.79-.85,50.69-.07,5-.18,9.95,0,14.92.06,1.59-1.29,3.18,0,4.75C1015.09,425,1015.26,426.64,1014.05,427.86Z" transform="translate(-537.75 -9.5)"/><path class="cls-10" d="M1017.13,319.35,1002,316.63c7.61-8.39,16.13-15.83,24.44-23.49,1.67-1.53,2.86-3.67,5.21-4.41,2,3.42,4.37,6.68,5.55,10.55-.35,1.27-1.47,1.89-2.29,2.76C1029.24,308.06,1022.62,313.13,1017.13,319.35Z" transform="translate(-537.75 -9.5)"/><path class="cls-7" d="M1037.22,299.28c-1.18-3.87-3.53-7.13-5.55-10.55.21-1.43,1.33-1.2,2.28-1.21h29.63c1,0,2.05-.19,2.34,1.18-1.72,3.31-2.32,6.93-2.92,10.55Z" transform="translate(-537.75 -9.5)"/><path class="cls-13" d="M940.46,290.11c-.42,8.4-.86,16.8-1.25,25.2-.14,3-.13,5.95-.28,8.93-.68,13.83-1.43,27.67-2.11,41.5-.61,12.41-1.58,24.8-1.85,37.23-.06,2.62-1.12,5.18-.49,7.85-5.65,4.6-10.34,10.2-15.64,15.15-.91.84-1.47,2.33-3.14,2l.08-.14c1.32-2.23.66-4.76,1-7.13,1.19-7.67,2.06-15.4,3-23.11.84-6.73,1.63-13.47,2.44-20.21.74-6.19,1.5-12.38,2.21-18.58.75-6.64,1.13-13.34,2.29-19.9,1.32-7.45,1.39-15,2.9-22.44,1.4-6.26,4.53-11.86,6.84-17.77C937.64,295.79,938.63,292.74,940.46,290.11Z" transform="translate(-537.75 -9.5)"/><path class="cls-12" d="M929.65,316.49c-1.51,7.41-1.58,15-2.9,22.44-1.16,6.56-1.54,13.26-2.29,19.9-.71,6.2-1.47,12.39-2.21,18.58-.81,6.74-1.6,13.48-2.44,20.21-.95,7.71-1.82,15.44-3,23.11-.36,2.37.3,4.9-1,7.13-1.21-1.22-1-2.84-1.27-4.34,1.29-1.46,0-3,0-4.42-.15-12.69,0-25.39-.49-38.09-.72-19.32-.62-38.66-.89-58,0-1.06.34-2.24-.67-3.11a1,1,0,0,1,.22-.55l15.05-2.66C928.48,317.68,929,316.8,929.65,316.49Z" transform="translate(-537.75 -9.5)"/><path class="cls-10" d="M927.73,316.69l-15.05,2.66c-2.85-3.51-6.56-6.1-9.8-9.19-3.84-3.65-8.59-6.32-11.59-10.88,1.18-3.87,3.52-7.13,5.55-10.55,2.09.46,3.21,2.32,4.61,3.6C910,300.07,919.27,307,927,315.59A7.38,7.38,0,0,1,927.73,316.69Z" transform="translate(-537.75 -9.5)"/><path class="cls-7" d="M896.84,288.73c-2,3.42-4.37,6.68-5.55,10.55l-25.79,0c-.59-3.62-1.2-7.24-2.91-10.55.29-1.36,1.36-1.18,2.33-1.18h29.63C895.51,287.53,896.62,287.3,896.84,288.73Z" transform="translate(-537.75 -9.5)"/><path class="cls-15" d="M1037.22,299.28l25.78,0c5.93,2,11.83,4.1,17.79,6a9.43,9.43,0,0,1,4.93,3.56c4.3,5.73,8.8,11.3,13.22,16.94.66.84,1.68,1.53,1.25,2.85l-57,2-25.82-10.7a1,1,0,0,0-.23-.56c5.49-6.22,12.11-11.29,17.8-17.31C1035.75,301.17,1036.87,300.55,1037.22,299.28Z" transform="translate(-537.75 -9.5)"/><path class="cls-7" d="M1017.36,319.91l25.82,10.7Q1034.6,359.81,1026,389q-4.68,16-9.37,31.91a4.35,4.35,0,0,1-1.32,2.58c-1.28-1.57.07-3.16,0-4.75-.19-5-.08-9.95,0-14.92.23-16.9.17-33.81.85-50.69.42-10.16.27-20.32.53-30.47C1016.72,321.73,1016.44,320.67,1017.36,319.91Z" transform="translate(-537.75 -9.5)"/><path class="cls-15" d="M865.5,299.24l25.79,0c3,4.56,7.75,7.23,11.59,10.88,3.24,3.09,7,5.68,9.8,9.19a1,1,0,0,0-.22.55l-25.8,10.71-42.2-1.49-14.82-.53c-.35-1,.27-1.66.82-2.36,4.83-6.17,9.68-12.32,14.46-18.53a7.05,7.05,0,0,1,3.54-2.27C854.15,303.39,859.82,301.31,865.5,299.24Z" transform="translate(-537.75 -9.5)"/><path class="cls-7" d="M886.66,330.61l25.8-10.71c1,.87.65,2.05.67,3.11.27,19.34.17,38.68.89,58,.47,12.7.34,25.4.49,38.09,0,1.46,1.29,3,0,4.42-2.07-2.84-2.29-6.34-3.26-9.54-4.44-14.61-8.61-29.29-12.91-43.94Q892.54,350.31,886.66,330.61Z" transform="translate(-537.75 -9.5)"/><path class="cls-7" d="M935.57,411h58.69c-7.57,4.69-15.84,8.13-23.43,12.74-4.29,2.6-7.54,2.6-11.83,0C951.41,419.16,943.14,415.72,935.57,411Z" transform="translate(-537.75 -9.5)"/></svg>