<svg
  id="Layer_7_copy_12_Image"
  data-name="Layer 7 copy 12 Image"
  xmlns="http://www.w3.org/2000/svg"
  viewBox="0 0 215.76 305.52"
>
  <defs>
    <style>
      .cls-1 {
        fill: transparent;
      }
      .cls-2 {
        fill: #0c1b46;
      }
      .cls-3 {
        fill: #527dff;
      }
      .cls-4 {
        fill: #2345ab;
      }
      .cls-5 {
        fill: #878787;
      }
      .cls-6 {
        fill: #b1b1b1;
      }
      .cls-7 {
        fill: #2d56d2;
      }
      .cls-8 {
        fill: #13296c;
      }
      .cls-9 {
        fill: #d9d9d9;
      }
      .cls-10 {
        fill: #797979;
      }
      .cls-11 {
        fill: #616161;
      }
      .cls-12 {
        fill: #3c3c3d;
      }
      .cls-13 {
        fill: #4a4a4a;
      }
      .cls-14 {
        fill: #1f1f1f;
      }
      .cls-15 {
        fill: #6d6d6d;
      }
    </style>
  </defs>
  <path
    class="cls-1"
    d="M99.12,192.72V54.24h90.24c-.21.39-.62.47-1,.64l-3.67,1.76-7.79,3.7-6.78,3.3q-5.77,1-11.52,2.14c-2.46.5-4.93,1-7.39,1.49-.37.08-.94,0-1,.58-.13.33-.28.66-.39,1-.77,2.27-1.54,4.53-2.29,6.8q-2,6.06-4,12.13l-.27.19c-.25.11-.52.21-.76.34-2.73,1.49-5.47,3-8.18,4.5-4.87,2.73-9.85,5.27-14.62,8.19a44.35,44.35,0,0,0-4.25,2.65c-.36.26-.38.69-.52,1l-5.68,16c-1.94,3.45-3.47,7.1-5.31,10.6a1.71,1.71,0,0,0-.1,1.05c.37,2.84.7,5.69,1.11,8.53a50.15,50.15,0,0,0,.78,5.3,6.31,6.31,0,0,0,.29,2.36c.94,4.08,1.87,8.17,2.83,12.24.53,2.25.93,4.53,1.63,6.74-.12.5.21.83.44,1.19,3.43,5.55,6.86,11.11,10.34,16.63a18.58,18.58,0,0,0,1.74,3l-.32.36a5.36,5.36,0,0,1-.43-.4c-2.17-2.52-4.49-4.89-6.75-7.33-.38-.38-.8-.18-1.23-.09-1.31.3-2.63.56-3.94.87a37.7,37.7,0,0,0-4.44,1.18c-.67,0-.59.68-.81,1-1.84,2.91-3.63,5.86-5.43,8.79Z"
    transform="translate(-99.12 -54.24)"
  />
  <path
    class="cls-1"
    d="M224.88,54.24h90V193c-.35-.24-.35-.68-.55-1-1.72-2.72-3.41-5.46-5.1-8.2a1.6,1.6,0,0,0-.82-.82.68.68,0,0,0-.49-.29c-1.57-.37-3.14-.81-4.72-1.11a31.19,31.19,0,0,0-3.94-.78,1.06,1.06,0,0,0-.69.42c-2.18,2.59-4.58,5-6.85,7.48-.23.25-.44.6-.89.46a1.56,1.56,0,0,1,.34-.75l12.13-19.52a2,2,0,0,0,.52-1.3,3.24,3.24,0,0,0,.13-.33q2.22-9.55,4.42-19.12a4.31,4.31,0,0,0,.18-1.89c.1-.46.24-.92.3-1.39.51-4.07,1-8.14,1.54-12.2a3.06,3.06,0,0,0-.3-1.84c-1-2-2-4.09-3-6.12a44.21,44.21,0,0,0-2-3.93c-.18-.48-.35-1-.53-1.46-1.58-4.48-3.15-9-4.76-13.43a6,6,0,0,0-.91-2.18A77,77,0,0,0,292,99.46c-6-3.37-12-6.66-18-10A20.32,20.32,0,0,0,271,88l-.27-.18c-.07-.27-.13-.54-.22-.8q-2.58-7.71-5.18-15.42A38,38,0,0,0,264,67.86c-.15-.72-.82-.55-1.26-.64-6.22-1.23-12.42-2.58-18.68-3.58L239,61.19c-3.6-1.72-7.22-3.4-10.8-5.16A14.21,14.21,0,0,1,224.88,54.24Z"
    transform="translate(-99.12 -54.24)"
  />
  <path
    class="cls-1"
    d="M206.16,359.76h-107V194.64c.38,0,.44.28.45.58,0,1,.16,2,.23,3,.19,2.86.48,5.71.73,8.57.27,3.25.48,6.51.79,9.76.11,1.15.16,2.3.25,3.45.22,2.58.45,5.15.69,7.73.12,1.39.27,2.77.41,4.16-.22.2-.15.35.09.47,0,.47.43.75.7,1.08q3.5,4.32,7,8.63l8.57,10.44a31.07,31.07,0,0,0-2.14,4.23c-1,2-1.88,4.09-2.9,6.1-.49,1-.91,1.94-1.36,2.91-.18.39-.26.77.23,1a.1.1,0,0,0,.06.12c0,.28.08.56.14.83l5.34,22.18c-.59,2.76-.87,5.57-1.3,8.36-.5,3.22-.94,6.45-1.39,9.67-.33,2.33-.62,4.65-.93,7-.17.46.2.74.4,1.06q5,8.15,9.92,16.27a40.22,40.22,0,0,0,2.55,4l6.13,5.86c2.25,2.15,4.48,4.31,6.73,6.47,1,1,2,1.91,3,2.88a2.57,2.57,0,0,0,2.38.72c1.58.11,3.17.28,4.75.33,3.26.09,6.52.31,9.77.49,3.66.2,7.32.3,11,.52,1,.06,1.91.06,2.86.13,1.51.11,3,.16,4.52.24a1,1,0,0,0,.21.09c8.15,1.69,16.3,3.35,24.44,5.06A6.57,6.57,0,0,1,206.16,359.76Z"
    transform="translate(-99.12 -54.24)"
  />
  <path
    class="cls-1"
    d="M314.88,195.36v164.4H208.08c.17-.37.56-.28.84-.33,4.86-1,9.74-2,14.61-3l12.14-2.54c1.31,0,2.62,0,3.92-.13,3-.25,6-.33,9.06-.49,1.86-.1,3.74-.16,5.6-.26,2.11-.11,4.21-.27,6.31-.39l7.75-.41a3,3,0,0,0,2.77-1q3.26-3.18,6.55-6.31c2.14-2,4.32-4,6.44-6.08a26.92,26.92,0,0,0,2.75-2.8,3.37,3.37,0,0,0,.3-.36q2.38-3.87,4.76-7.75l7.41-12.16c.22-.35.45-.67.19-1.09-.24-2-.46-3.94-.74-5.91-.68-4.88-1.37-9.76-2.11-14.64a22.44,22.44,0,0,0-.72-4.22,6.58,6.58,0,0,1,.55-2c.82-3.54,1.69-7.07,2.52-10.61s1.62-6.91,2.43-10.37a.19.19,0,0,0,.13-.17c.37-.24.38-.53.19-.91-.77-1.6-1.51-3.21-2.27-4.81-.67-1.39-1.29-2.79-2-4.17a31.15,31.15,0,0,0-2.19-4.31c.18-.21.38-.41.56-.62l15-18.47c.27-.33.63-.62.66-1.11.2-.11.2-.29.18-.47.1-1.43.19-2.86.31-4.29.21-2.38.49-4.75.64-7.13s.37-4.77.59-7.14q.43-4.64.82-9.27c.23-2.7.54-5.39.56-8.11A.64.64,0,0,1,314.88,195.36Z"
    transform="translate(-99.12 -54.24)"
  />
  <path
    class="cls-2"
    d="M235.67,353.85l-12.14,2.54c-4.87,1-9.75,2-14.61,3-.28.05-.67,0-.84.33h-1.92a6.57,6.57,0,0,0-2.7-.74c-8.14-1.71-16.29-3.37-24.44-5.06a1,1,0,0,1-.21-.09c.06-.44.42-.67.7-.94,2.28-2.18,4.39-4.53,6.79-6.59,1.42-1.22,2.67-2.65,4-4,.92-.89,1.81-1.8,2.79-2.63a5.21,5.21,0,0,0,2-2.29c.52,0,1,.12,1.54.13h21a3.57,3.57,0,0,0,1.41-.19l.24.09c0,.5.43.75.74,1,1.87,1.79,3.64,3.69,5.59,5.4s3.63,3.59,5.44,5.39c.34.34.73.62,1.08.94A22.67,22.67,0,0,1,235.67,353.85Z"
    transform="translate(-99.12 -54.24)"
  />
  <path
    class="cls-3"
    d="M189.84,54.24H224.4c0,.24,0,.48,0,.72a3.21,3.21,0,0,0-.74,1.34c-.73,1.76-1.48,3.52-2.22,5.29-1.41,3.34-2.84,6.67-4.24,10-.86,2.06-1.68,4.13-2.65,6.14H199.68c-1.36-3.15-2.73-6.29-4.06-9.45-1.78-4.18-3.52-8.38-5.28-12.57a1.38,1.38,0,0,0-.52-.78Z"
    transform="translate(-99.12 -54.24)"
  />
  <path
    class="cls-4"
    d="M189.84,54.24c0,.24,0,.48,0,.72-.57.26-.53.86-.69,1.33Q183,74.74,176.88,93.21c-.16.46-.37.28-.63.18-.06-.44-.08-.88-.17-1.31-1.79-8.38-3.61-16.77-5.38-25.16a15.11,15.11,0,0,1-.56-3.28l6.78-3.3,7.79-3.7,3.67-1.76c.36-.17.77-.25,1-.64Z"
    transform="translate(-99.12 -54.24)"
  />
  <path
    class="cls-4"
    d="M224.41,55v-.72h.48A14.21,14.21,0,0,0,228.23,56c3.58,1.76,7.2,3.44,10.8,5.16l5.07,2.45a7.45,7.45,0,0,1-.08,1c-1.45,6.88-2.94,13.75-4.37,20.63-.57,2.72-1.27,5.41-1.66,8.17-.21.07-.51.29-.58-.08a22.89,22.89,0,0,0-1-2.92q-1.77-5.52-3.59-11Q228.94,67.72,225,56.05C224.91,55.66,224.91,55.16,224.41,55Z"
    transform="translate(-99.12 -54.24)"
  />
  <path
    class="cls-5"
    d="M308.41,182.92a1.6,1.6,0,0,1,.82.82c1.69,2.74,3.38,5.48,5.1,8.2.2.34.2.78.55,1v.24c-.4.3-.52.79-.78,1.18q-4.19,6.18-8.33,12.37l-6.8,10.1a1.5,1.5,0,0,0-.42.84h-.23l0-.22c.06-1.7.14-3.4.23-5.1.17-3.14,0-6.29.23-9.44.19-2.22,0-4.47,0-6.7v-.58a4.1,4.1,0,0,0,.61-.56c1.41-1.87,2.83-3.73,4.2-5.63C305.19,187.26,307,185.2,308.41,182.92Z"
    transform="translate(-99.12 -54.24)"
  />
  <path
    class="cls-6"
    d="M102.67,231.86c-.14-1.39-.29-2.77-.41-4.16-.24-2.58-.47-5.15-.69-7.73-.09-1.15-.14-2.3-.25-3.45-.31-3.25-.52-6.51-.79-9.76-.25-2.86-.54-5.71-.73-8.57-.07-1-.21-2-.23-3,0-.3-.07-.57-.45-.58v-1.92h.48a2.13,2.13,0,0,0,.6,1.63c2.17,3.19,4.42,6.33,6.52,9.57,2.51,3.87,5.16,7.65,7.71,11.49.43.64.72,1.42,1.45,1.83a2.56,2.56,0,0,1,.11.24c0,.15-.08.29-.13.44a.6.6,0,0,0-.23,0,2.9,2.9,0,0,0-1.09.45c-1.69.88-3.37,1.8-5.08,2.64a3.7,3.7,0,0,0-1.72,1.73c-1.12,2.24-2.25,4.48-3.48,6.66C103.79,230.25,103.54,231.27,102.67,231.86Z"
    transform="translate(-99.12 -54.24)"
  />
  <path
    class="cls-6"
    d="M298.55,217.69a1.5,1.5,0,0,1,.42-.84l6.8-10.1q4.16-6.18,8.33-12.37c.26-.39.38-.88.78-1.18v2.16a.64.64,0,0,0-.21.53c0,2.72-.33,5.41-.56,8.11q-.39,4.63-.82,9.27c-.22,2.37-.43,4.75-.59,7.14s-.43,4.75-.64,7.13c-.12,1.43-.21,2.86-.31,4.29-.42,0-.52-.33-.66-.6-1.49-2.82-3-5.63-4.45-8.47a3.85,3.85,0,0,0-1.8-1.81c-1.42-.72-2.86-1.42-4.24-2.23a4.78,4.78,0,0,0-1.85-.8Z"
    transform="translate(-99.12 -54.24)"
  />
  <path
    class="cls-7"
    d="M143.21,88l.27-.19c0,.49.38.77.69,1.09a18.82,18.82,0,0,1,2.14,2.24c1.21,1.74,2.7,3.24,4,4.86s2.85,3.52,4.38,5.2c1.25,1.38,2.41,2.84,3.62,4.26s2.24,2.58,3.38,3.86a1.75,1.75,0,0,1,.34,1l-.05.1a19.81,19.81,0,0,0-2,.15c-1.63.33-3.29.56-4.93.82-1.85.29-3.7.51-5.53.87-2.11.4-4.23.71-6.34,1.06l-5.76,1c-.3,0-.55.08-.64.42a8.29,8.29,0,0,1-.86,1.57q-2.34,4.57-4.7,9.16c-.79,1.52-1.51,3.08-2.37,4.57a21.47,21.47,0,0,0-1.68,3.44c-2.37.07-4.74,0-7.11.25-1.23.12-2.44-.23-3.67-.17a23.75,23.75,0,0,0-1.54-2.91c-1.33-2.43-2.65-4.87-4-7.27a9.39,9.39,0,0,0-1.63-2.58l5.68-16c.14-.36.16-.79.52-1a4.86,4.86,0,0,1,.67.25c2.59,1.24,5.16,2.54,7.75,3.76,4,1.87,7.89,3.85,11.83,5.77,1,.49,1.12.43,1.39-.61q1.53-5.94,3.05-11.89t3-11.79A2.22,2.22,0,0,0,143.21,88Z"
    transform="translate(-99.12 -54.24)"
  />
  <path
    class="cls-4"
    d="M162.06,110.28a1.75,1.75,0,0,0-.34-1c-1.14-1.28-2.26-2.56-3.38-3.86s-2.37-2.88-3.62-4.26c-1.53-1.68-2.94-3.45-4.38-5.2s-2.82-3.12-4-4.86a18.82,18.82,0,0,0-2.14-2.24c-.31-.32-.66-.6-.69-1.09q2-6.06,4-12.13c.75-2.27,1.52-4.53,2.29-6.8.11-.33.26-.66.39-1a2,2,0,0,1,.78.78,3.77,3.77,0,0,0,.07.83c.68,2.41,1.38,4.81,2.08,7.22q1.27,4.41,2.54,8.82c.94,3.29,1.8,6.6,2.78,9.88,1.1,3.65,2.09,7.34,3.14,11a23.16,23.16,0,0,0,1,3.24,24.43,24.43,0,0,0,2.58-2.75c1.32-1.55,2.71-3,4-4.56,1.9-2.19,3.82-4.38,5.66-6.62a3.09,3.09,0,0,1,3.77-1.19c3.49,1.06,7.08,1.82,10.64,2.67l4.4,1.06a43.93,43.93,0,0,1,5.3,1.39.8.8,0,0,1-.27.52,36,36,0,0,0-3.3,3.12c-1.38,1.28-2.64,2.66-4.07,3.89a12.16,12.16,0,0,0-2.7,2.84l-.71.17c-.48,0-1-.07-1.43-.07H168c-1.75,0-3.5,0-5.26,0A1,1,0,0,0,162.06,110.28Z"
    transform="translate(-99.12 -54.24)"
  />
  <path
    class="cls-8"
    d="M116.4,133.47c1.23-.06,2.44.29,3.67.17,2.37-.22,4.74-.18,7.11-.25.65,1.23,1.32,2.45,1.95,3.7q3.27,6.47,6.52,12.95c-.06.31,0,.65-.2.92a6.06,6.06,0,0,0-2.14,1.25c-2.51,1.69-4.93,3.52-7.47,5.16-2.75,1.77-5.37,3.71-8.14,5.46-2.12,1.33-4.13,2.83-6.19,4.26a1.52,1.52,0,0,1-1.08.44c-.7-2.21-1.1-4.49-1.63-6.74-1-4.07-1.89-8.16-2.83-12.24a6.31,6.31,0,0,1-.29-2.36c.45-.06.68-.42.92-.72.56-.67,1.08-1.37,1.63-2.05Z"
    transform="translate(-99.12 -54.24)"
  />
  <path
    class="cls-2"
    d="M110.43,167.53a1.52,1.52,0,0,0,1.08-.44c2.06-1.43,4.07-2.93,6.19-4.26,2.77-1.75,5.39-3.69,8.14-5.46,2.54-1.64,5-3.47,7.47-5.16a6.06,6.06,0,0,1,2.14-1.25c-.68,2.92-1.35,5.84-2,8.75q-3.35,14-6.71,28.07a35.4,35.4,0,0,1-1.21,4.37c-.59-.61-.84-1.43-1.37-2.08A5.49,5.49,0,0,0,123,188.3a18.58,18.58,0,0,1-1.74-3c-3.48-5.52-6.91-11.08-10.34-16.63C110.64,168.36,110.31,168,110.43,167.53Z"
    transform="translate(-99.12 -54.24)"
  />
  <path
    class="cls-3"
    d="M143.21,88a2.22,2.22,0,0,1-.07,1.17q-1.54,5.9-3,11.79T137,112.81c-.27,1-.4,1.1-1.39.61-3.94-1.92-7.86-3.9-11.83-5.77-2.59-1.22-5.16-2.52-7.75-3.76a4.86,4.86,0,0,0-.67-.25,44.35,44.35,0,0,1,4.25-2.65c4.77-2.92,9.75-5.46,14.62-8.19,2.71-1.53,5.45-3,8.18-4.5C142.69,88.17,143,88.07,143.21,88Z"
    transform="translate(-99.12 -54.24)"
  />
  <path
    class="cls-3"
    d="M151,68.63a2,2,0,0,0-.78-.78c.1-.63.67-.5,1-.58,2.46-.52,4.93-1,7.39-1.49q5.74-1.19,11.52-2.14a15.11,15.11,0,0,0,.56,3.28c1.77,8.39,3.59,16.78,5.38,25.16.09.43.11.87.17,1.31a1.48,1.48,0,0,1-.67-.48c-3.07-3-6.12-6.06-9.22-9-4.87-4.71-9.61-9.57-14.41-14.36A4.06,4.06,0,0,0,151,68.63Z"
    transform="translate(-99.12 -54.24)"
  />
  <path
    class="cls-5"
    d="M115.88,217.23c-.73-.41-1-1.19-1.45-1.83-2.55-3.84-5.2-7.62-7.71-11.49-2.1-3.24-4.35-6.38-6.52-9.57a2.13,2.13,0,0,1-.6-1.63c1.8-2.93,3.59-5.88,5.43-8.79.22-.35.14-1,.81-1,2.78,3.72,5.55,7.46,8.35,11.17a6.27,6.27,0,0,0,1.25,1.56l.26.66a1.85,1.85,0,0,0-.21,1.71,19.58,19.58,0,0,1,.18,3.58c0,1.87,0,3.74.11,5.61C116,210.53,115.89,213.88,115.88,217.23Z"
    transform="translate(-99.12 -54.24)"
  />
  <path
    class="cls-6"
    d="M115.7,196.28c-.08-.22-.17-.44-.26-.66-.09-2.46,0-4.91-.18-7.38-.21-2.2-.06-4.45-.06-6.67a.71.71,0,0,1,.25-.64c2.26,2.44,4.58,4.81,6.75,7.33a5.36,5.36,0,0,0,.43.4c.36.61.65,1.3,1.48,1.41.53.65.78,1.47,1.37,2.08l.07.59c.07.83.18,1.66.2,2.5,0,1.39.15,2.79.31,4.16.38,3.45.46,6.91.87,10.35,0,.33,0,.67,0,1.05-.19-.08-.28-.09-.32-.14-1.81-2.39-3.6-4.77-5.41-7.15S117.54,198.69,115.7,196.28Z"
    transform="translate(-99.12 -54.24)"
  />
  <path
    class="cls-4"
    d="M116.4,133.47l-8.17,9.95c-.55.68-1.07,1.38-1.63,2.05-.24.3-.47.66-.92.72a50.15,50.15,0,0,1-.78-5.3c-.41-2.84-.74-5.69-1.11-8.53a1.71,1.71,0,0,1,.1-1.05c1.84-3.5,3.37-7.15,5.31-10.6a9.39,9.39,0,0,1,1.63,2.58c1.38,2.4,2.7,4.84,4,7.27A23.75,23.75,0,0,1,116.4,133.47Z"
    transform="translate(-99.12 -54.24)"
  />
  <path
    class="cls-9"
    d="M115.45,180.93a.71.71,0,0,0-.25.64c0,2.22-.15,4.47.06,6.67.23,2.47.09,4.92.18,7.38a6.27,6.27,0,0,1-1.25-1.56c-2.8-3.71-5.57-7.45-8.35-11.17a37.7,37.7,0,0,1,4.44-1.18c1.31-.31,2.63-.57,3.94-.87C114.65,180.75,115.07,180.55,115.45,180.93Z"
    transform="translate(-99.12 -54.24)"
  />
  <path
    class="cls-9"
    d="M124.11,190.07c-.83-.11-1.12-.8-1.48-1.41l.32-.36A5.49,5.49,0,0,1,124.11,190.07Z"
    transform="translate(-99.12 -54.24)"
  />
  <path
    class="cls-7"
    d="M298.84,103.64a6,6,0,0,1,.91,2.18c1.61,4.47,3.18,9,4.76,13.43.18.49.35,1,.53,1.46-.47.23-.64.71-.87,1.11-1.37,2.44-2.73,4.89-4.05,7.36a44,44,0,0,0-2.28,4.29,12.56,12.56,0,0,1-3.67.15c-2-.19-3.95-.17-5.93-.18-.39,0-.79,0-1.18-.05-.65-1.59-1.52-3.07-2.32-4.58-1.89-3.61-3.72-7.25-5.58-10.87-.56-1.1-1.15-2.19-1.71-3.29a.63.63,0,0,0-.52-.41c-1.41-.23-2.81-.49-4.22-.71-1.88-.3-3.77-.57-5.64-.88-1.49-.24-3-.56-4.46-.8-1.84-.3-3.68-.57-5.53-.83a27.39,27.39,0,0,0-4.59-.63l-.25-.23c-.08-.5.23-.8.53-1.14q1.83-2,3.62-4.12c1.67-2,3.32-4,5-5.91,1.46-1.73,2.88-3.49,4.39-5.18a57.63,57.63,0,0,1,4.29-5,1.57,1.57,0,0,0,.69-1.07L271,88a2.33,2.33,0,0,0,.08,1.17q1.54,5.89,3,11.79l3.06,11.91c.25,1,.42,1.1,1.29.62,1.53-.86,3.22-1.39,4.72-2.32a24.56,24.56,0,0,1,2.35-1.18l10.34-5A27.71,27.71,0,0,1,298.84,103.64Z"
    transform="translate(-99.12 -54.24)"
  />
  <path
    class="cls-4"
    d="M270.75,87.79a1.57,1.57,0,0,1-.69,1.07,57.63,57.63,0,0,0-4.29,5c-1.51,1.69-2.93,3.45-4.39,5.18-1.67,2-3.32,4-5,5.91q-1.78,2.09-3.62,4.12c-.3.34-.61.64-.53,1.14h0l-.2,0h-.28a.57.57,0,0,0-.22-.07l-23.8,0c-.47,0-1,0-1.43.06l-.72-.16c-.08-.43-.45-.64-.73-.92-2-2-4.22-3.9-6.22-6a20,20,0,0,0-3-2.78,1,1,0,0,1-.43-.7,3.45,3.45,0,0,1,.78-.28c1.82-.42,3.63-.85,5.45-1.3l14-3.46c2.44-.6,2.57-.57,4.1,1.38,1.82,2.32,3.88,4.43,5.78,6.68,1.46,1.74,3,3.39,4.44,5.15.52.64,1.16,1.19,1.87,1.91.29-.94.56-1.71.78-2.5q2-6.94,3.92-13.9,1.41-5,2.86-10c1-3.63,2.11-7.26,3.12-10.9a17.8,17.8,0,0,0,.92-3.81,1.84,1.84,0,0,1,.77-.77,38,38,0,0,1,1.31,3.71Q268,79.28,270.53,87C270.62,87.25,270.68,87.52,270.75,87.79Z"
    transform="translate(-99.12 -54.24)"
  />
  <path
    class="cls-8"
    d="M287.06,133.39c.39,0,.79.05,1.18.05,2,0,4,0,5.93.18a12.56,12.56,0,0,0,3.67-.15c1.07,1.33,2.09,2.7,3.21,4,1.85,2.13,3.51,4.42,5.38,6.53.67.75,1.08,1.79,2.12,2.2a4.31,4.31,0,0,1-.18,1.89q-2.19,9.57-4.42,19.12a3.24,3.24,0,0,1-.13.33,1.55,1.55,0,0,1-1.08-.43c-2.6-1.76-5.2-3.5-7.79-5.27s-5.36-3.69-8.05-5.53c-1.53-1.06-3-2.13-4.62-3.14a36.1,36.1,0,0,0-3.37-2.2,2,2,0,0,1-.27-1q3.48-6.94,7-13.87C286.06,135.19,286.57,134.3,287.06,133.39Z"
    transform="translate(-99.12 -54.24)"
  />
  <path
    class="cls-2"
    d="M278.91,151a36.1,36.1,0,0,1,3.37,2.2c1.57,1,3.09,2.08,4.62,3.14,2.69,1.84,5.36,3.7,8.05,5.53s5.19,3.51,7.79,5.27a1.55,1.55,0,0,0,1.08.43,2,2,0,0,1-.52,1.3l-12.13,19.52a1.56,1.56,0,0,0-.34.75h0c-.17,0-.21.11-.26.22a3.37,3.37,0,0,0-.84,1.23c-.32.52-.48,1.16-1,1.52-.22-1.22-.61-2.4-.9-3.6q-3.27-13.56-6.48-27.14C280.52,157.88,279.72,154.42,278.91,151Z"
    transform="translate(-99.12 -54.24)"
  />
  <path
    class="cls-3"
    d="M298.84,103.64a27.71,27.71,0,0,0-2.93,1.34l-10.34,5a24.56,24.56,0,0,0-2.35,1.18c-1.5.93-3.19,1.46-4.72,2.32-.87.48-1,.37-1.29-.62l-3.06-11.91q-1.51-5.9-3-11.79A2.33,2.33,0,0,1,271,88a20.32,20.32,0,0,1,3,1.53c6,3.3,12.05,6.59,18,10A77,77,0,0,1,298.84,103.64Z"
    transform="translate(-99.12 -54.24)"
  />
  <path
    class="cls-3"
    d="M264,67.86a1.84,1.84,0,0,0-.77.77c-.21.18-.44.34-.64.53-6.61,6.59-13.17,13.23-19.9,19.69-1.3,1.25-2.54,2.54-3.82,3.8a2.29,2.29,0,0,1-.92.74c.39-2.76,1.09-5.45,1.66-8.17,1.43-6.88,2.92-13.75,4.37-20.63a7.45,7.45,0,0,0,.08-1c6.26,1,12.46,2.35,18.68,3.58C263.22,67.31,263.89,67.14,264,67.86Z"
    transform="translate(-99.12 -54.24)"
  />
  <path
    class="cls-6"
    d="M288.72,192.07c.56-.36.72-1,1-1.52a3.37,3.37,0,0,1,.84-1.23c.07.07.14.2.24.08s0-.2,0-.3h0c.45.14.66-.21.89-.46,2.27-2.51,4.67-4.89,6.85-7.48a1.06,1.06,0,0,1,.69-.42c0,1.24-.14,2.46-.17,3.69-.12,3.73.05,7.48-.29,11.21v.58a12.83,12.83,0,0,0-1.66,2q-4.56,6-9.08,12c-.12.15-.22.34-.53.25a48.79,48.79,0,0,1,.36-6.15c.07-1,.1-1.91.19-2.86.3-2.93.57-5.87.67-8.81C288.73,192.49,288.72,192.28,288.72,192.07Z"
    transform="translate(-99.12 -54.24)"
  />
  <path
    class="cls-4"
    d="M308.55,146.19c-1-.41-1.45-1.45-2.12-2.2-1.87-2.11-3.53-4.4-5.38-6.53-1.12-1.29-2.14-2.66-3.21-4a44,44,0,0,1,2.28-4.29c1.32-2.47,2.68-4.92,4.05-7.36.23-.4.4-.88.87-1.11a44.21,44.21,0,0,1,2,3.93c1,2,2,4.09,3,6.12a3.06,3.06,0,0,1,.3,1.84c-.54,4.06-1,8.13-1.54,12.2C308.79,145.27,308.65,145.73,308.55,146.19Z"
    transform="translate(-99.12 -54.24)"
  />
  <path
    class="cls-9"
    d="M298.8,195.64c.34-3.73.17-7.48.29-11.21,0-1.23.2-2.45.17-3.69a31.19,31.19,0,0,1,3.94.78c1.58.3,3.15.74,4.72,1.11a.68.68,0,0,1,.49.29c-1.46,2.28-3.22,4.34-4.8,6.53-1.37,1.9-2.79,3.76-4.2,5.63A4.1,4.1,0,0,1,298.8,195.64Z"
    transform="translate(-99.12 -54.24)"
  />
  <path
    class="cls-4"
    d="M112.88,266.73c-.49-.24-.41-.62-.23-1,.45-1,.87-2,1.36-2.91,1-2,1.92-4.07,2.9-6.1a31.07,31.07,0,0,1,2.14-4.23c.32-.65.66-1.3,1-2a5.1,5.1,0,0,0,.73-1.83,7.67,7.67,0,0,0,.64-1c.5-1.05.92-2.13,1.42-3.17,1.66-3.4,3.32-6.81,4.86-10.27a4.21,4.21,0,0,0,.77-1.71l.81,0a13.76,13.76,0,0,0,1.53,2.56c2,3.11,3.94,6.2,6,9.24,1.29,1.92,2.52,3.88,3.79,5.81q2.33,3.56,4.66,7.11c.59.77.6.8,1.39.35,2.37-1.32,4.72-2.67,7.08-4l8.24-4.63,10.41-5.9c2.88-1.63,5.75-3.28,8.65-4.88a37.92,37.92,0,0,1,4.31-2.3,9.41,9.41,0,0,1-1.6,2.78c-2.67,4.2-5.43,8.36-8.16,12.53q-6,9.16-12,18.33c-1.81,2.77-3.59,5.56-5.38,8.34-.1.26-.17.53-.29.78-1.07,2.22-2.18,4.42-3.22,6.65-1.69,3.64-3.53,7.21-5.25,10.84a8.89,8.89,0,0,0-1.1,2.86,2.63,2.63,0,0,1-1-.23l-8.09-2.54-18.69-5.88a11.31,11.31,0,0,0-2.08-.52l-5.34-22.18c-.06-.27-.09-.55-.14-.83a6.94,6.94,0,0,1,2.13.29c2.06.63,4.15,1.09,6.24,1.59,3.53.83,7,1.69,10.56,2.54,5,1.23,10,2.43,15.07,3.68,3.24.81,6.47,1.66,9.74,2.36.31.07.65.28.87-.05s-.08-.55-.25-.75a27.12,27.12,0,0,1-2.13-3.18c-2.07-3.22-4.08-6.48-6.2-9.66-1-1.55-1.94-3.19-3.09-4.68a1,1,0,0,0-1.22-.45c-1.32.46-2.69.7-4,1-2.9.73-5.77,1.52-8.67,2.26-4,1-7.95,2-11.92,3C117.64,265.45,115.26,266.1,112.88,266.73Z"
    transform="translate(-99.12 -54.24)"
  />
  <path
    class="cls-3"
    d="M118.42,289.86a11.31,11.31,0,0,1,2.08.52l18.69,5.88,8.09,2.54a2.63,2.63,0,0,0,1,.23c.09.07.18.19.29.2,2.48.26,5,.52,7.45.76,2.05.19,4.12.27,6.17.54.87.11,1.74.11,2.6.24,2.87.43,5.75.68,8.64,1,.14.49.27,1,.45,1.48q2.51,6.94,5,13.9c.81,2.23,1.64,4.45,2.46,6.68a.87.87,0,0,1-.27.64l-1.71,2c-1.66,2-3.31,3.94-5,5.9s-3.37,3.79-4.89,5.82c-.3.4-.85.65-.81,1.26a.78.78,0,0,1-.51.27.65.65,0,0,0-.5-.29L152,336.08c-3.31-.68-6.62-1.33-9.93-2a9.38,9.38,0,0,1,.25-2.24c.34-1.64.69-3.27.93-4.92.52-3.58,1.19-7.13,1.85-10.68.37-2,.73-4,1-6,.39-2.51.81-5,1.3-7.51a27.82,27.82,0,0,0,.51-3.34.65.65,0,0,0-.64,0L144,301c-1.91.9-3.81,1.83-5.72,2.72-4.27,2-8.55,3.93-12.8,6-2.85,1.36-5.69,2.72-8.56,4a8.3,8.3,0,0,0-2.07,1.17c.31-2.33.6-4.65.93-7,.45-3.22.89-6.45,1.39-9.67C117.55,295.43,117.83,292.62,118.42,289.86Z"
    transform="translate(-99.12 -54.24)"
  />
  <path
    class="cls-7"
    d="M114.8,314.87a8.3,8.3,0,0,1,2.07-1.17c2.87-1.32,5.71-2.68,8.56-4,4.25-2,8.53-4,12.8-6,1.91-.89,3.81-1.82,5.72-2.72l3.36-1.57a.65.65,0,0,1,.64,0,27.82,27.82,0,0,1-.51,3.34c-.49,2.49-.91,5-1.3,7.51-.31,2-.67,4-1,6-.66,3.55-1.33,7.1-1.85,10.68-.24,1.65-.59,3.28-.93,4.92a9.38,9.38,0,0,0-.25,2.24c-1.45.18-2.9.34-4.35.53-1.6.21-3.2.46-4.8.66s-3.06.34-4.59.5a.83.83,0,0,0-.66.46,40.22,40.22,0,0,1-2.55-4q-5-8.11-9.92-16.27C115,315.61,114.63,315.33,114.8,314.87Z"
    transform="translate(-99.12 -54.24)"
  />
  <path
    class="cls-8"
    d="M168.24,339.65a.78.78,0,0,0,.51-.27c1,0,2.08,0,3.11-.09,2.42-.19,4.83-.46,7.25-.64,1.34-.1,2.7-.17,4-.3,2.86-.25,5.71-.43,8.57-.68l3.44-.31a.08.08,0,0,1,0,.1,5.21,5.21,0,0,1-2,2.29c-1,.83-1.87,1.74-2.79,2.63-1.34,1.31-2.59,2.74-4,4-2.4,2.06-4.51,4.41-6.79,6.59-.28.27-.64.5-.7.94-1.51-.08-3-.13-4.52-.24-.95-.07-1.9-.07-2.86-.13-3.65-.22-7.31-.32-11-.52-3.25-.18-6.51-.4-9.77-.49-1.58-.05-3.17-.22-4.75-.33.1-.36.45-.42.72-.57,2.06-1.12,4.14-2.22,6.2-3.35,4.15-2.26,8.31-4.51,12.43-6.83A12.26,12.26,0,0,0,168.24,339.65Z"
    transform="translate(-99.12 -54.24)"
  />
  <path
    class="cls-4"
    d="M168.24,339.65a12.26,12.26,0,0,1-3,1.76c-4.12,2.32-8.28,4.57-12.43,6.83-2.06,1.13-4.14,2.23-6.2,3.35-.27.15-.62.21-.72.57a2.57,2.57,0,0,1-2.38-.72c-1-1-2-1.92-3-2.88-2.25-2.16-4.48-4.32-6.73-6.47l-6.13-5.86a.83.83,0,0,1,.66-.46c1.53-.16,3.06-.31,4.59-.5s3.2-.45,4.8-.66c1.45-.19,2.9-.35,4.35-.53,3.31.67,6.62,1.32,9.93,2l15.74,3.28A.65.65,0,0,1,168.24,339.65Z"
    transform="translate(-99.12 -54.24)"
  />
  <path
    class="cls-7"
    d="M112.88,266.73c2.38-.63,4.76-1.28,7.15-1.89,4-1,8-2,11.92-3,2.9-.74,5.77-1.53,8.67-2.26,1.35-.34,2.72-.58,4-1a1,1,0,0,1,1.22.45c1.15,1.49,2.05,3.13,3.09,4.68,2.12,3.18,4.13,6.44,6.2,9.66a27.12,27.12,0,0,0,2.13,3.18c.17.2.41.48.25.75s-.56.12-.87.05c-3.27-.7-6.5-1.55-9.74-2.36-5-1.25-10-2.45-15.07-3.68-3.52-.85-7-1.71-10.56-2.54-2.09-.5-4.18-1-6.24-1.59a6.94,6.94,0,0,0-2.13-.29A.1.1,0,0,1,112.88,266.73Z"
    transform="translate(-99.12 -54.24)"
  />
  <path
    class="cls-10"
    d="M120.75,248.68a5.1,5.1,0,0,1-.73,1.83c-.31.67-.65,1.32-1,2L110.48,242q-3.53-4.31-7-8.63c-.27-.33-.65-.61-.7-1.08.66-.34,1.34-.67,2-1q4.81-2.64,9.63-5.32c.22.81.43,1.62.66,2.42.76,2.68,1.54,5.34,2.31,8q1.22,4.29,2.42,8.59A31.13,31.13,0,0,1,120.75,248.68Z"
    transform="translate(-99.12 -54.24)"
  />
  <path
    class="cls-9"
    d="M114.39,226q-4.81,2.67-9.63,5.32c-.66.37-1.34.7-2,1-.24-.12-.31-.27-.09-.47.87-.59,1.12-1.61,1.59-2.46,1.23-2.18,2.36-4.42,3.48-6.66a3.7,3.7,0,0,1,1.72-1.73c1.71-.84,3.39-1.76,5.08-2.64a2.9,2.9,0,0,1,1.09-.45c0,.23,0,.47-.07.7C115.18,221.07,114.65,223.5,114.39,226Z"
    transform="translate(-99.12 -54.24)"
  />
  <path
    class="cls-4"
    d="M295.31,252.5a31.15,31.15,0,0,1,2.19,4.31c.67,1.38,1.29,2.78,2,4.17.76,1.6,1.5,3.21,2.27,4.81.19.38.18.67-.19.91a40.49,40.49,0,0,1-4.62-1.15c-4.52-1.11-9-2.31-13.51-3.47l-9.93-2.57-3.82-.95c-.49-.12-.9-.15-1.22.39-2,3.39-4.35,6.57-6.38,9.95-1.54,2.56-3.25,5-4.88,7.52-.18.28-.6.44-.49.88a1,1,0,0,0,.92.08c5-1.22,10.05-2.41,15.05-3.68s9.75-2.33,14.59-3.63c3.61-1,7.29-1.63,10.88-2.66a10.12,10.12,0,0,1,3.28-.54c-.81,3.46-1.61,6.92-2.43,10.37s-1.7,7.07-2.52,10.61a6.57,6.57,0,0,0-.55,2,3.47,3.47,0,0,0-1.05.19l-15.41,4.83-12.56,3.9c-.72.09-1-.41-1.2-.95-1.06-2.63-2.47-5.09-3.63-7.68-1.37-3.06-2.9-6-4.38-9.05a30.86,30.86,0,0,1-1.58-3.46c-1.52-2.34-3-4.68-4.55-7q-5.88-9-11.77-18-5.24-8-10.48-16c-.16-.23-.37-.43-.32-.74a3.63,3.63,0,0,1,1.3.58c1.12.62,2.22,1.26,3.34,1.89,2.74,1.54,5.5,3.08,8.24,4.63l12.51,7.07c2.92,1.65,5.82,3.33,8.75,4.94,1.65.91,3.22,1.94,4.91,2.75.59.28.91.21,1-.45a2,2,0,0,0,.6-.73c2-3,3.91-6.11,5.89-9.15,2.42-3.71,4.9-7.37,7.28-11.1a30.77,30.77,0,0,0,2.32-3.75l.67-.05c.45.51.44,1.27,1,1.74.32.77.61,1.55,1,2.3,1.41,3,2.82,6,4.28,9a14.34,14.34,0,0,0,1.47,2.83A26.36,26.36,0,0,0,295.31,252.5Z"
    transform="translate(-99.12 -54.24)"
  />
  <path
    class="cls-3"
    d="M266.89,298.81l12.56-3.9,15.41-4.83a3.47,3.47,0,0,1,1.05-.19,22.2,22.2,0,0,1,.72,4.21c.74,4.88,1.43,9.76,2.11,14.64.28,2,.5,3.94.74,5.91a3.39,3.39,0,0,1-.45-.15c-2.56-1.22-5.11-2.46-7.66-3.69q-2.37-1.14-4.76-2.25c-4.33-2-8.67-4-13-6-2.13-1-4.25-2-6.38-3-.66-.32-.91-.13-.81.57s.26,1.32.38,2c.5,2.77,1,5.54,1.49,8.32.38,2.19.64,4.41,1.09,6.58.53,2.53.87,5.09,1.34,7.63.53,2.85.87,5.73,1.55,8.55a3.85,3.85,0,0,1,.11.95c-3.82.76-7.64,1.47-11.44,2.3s-7.47,1.53-11.2,2.32a14.81,14.81,0,0,0-3.51.94,1.1,1.1,0,0,1-.71-.29,1.3,1.3,0,0,0-.56-1.13c-1.2-1.12-2.06-2.51-3.16-3.72-1.82-2-3.52-4.1-5.27-6.16-1.06-1.23-2.12-2.47-3.21-3.69a1.45,1.45,0,0,1-.28-1.11L241,301.69a30.14,30.14,0,0,0,4-.33c1.57-.15,3.14-.43,4.71-.57,2.09-.19,4.17-.45,6.27-.6.94-.07,1.89-.14,2.84-.26,1.21-.15,2.43-.34,3.66-.38s2.19-.33,3.31-.32A1.46,1.46,0,0,0,266.89,298.81Z"
    transform="translate(-99.12 -54.24)"
  />
  <path
    class="cls-7"
    d="M272.38,334.07a3.41,3.41,0,0,0-.1-.95c-.68-2.82-1-5.7-1.55-8.55-.47-2.54-.81-5.1-1.34-7.63-.45-2.17-.71-4.39-1.09-6.58-.48-2.78-1-5.55-1.49-8.32-.12-.67-.29-1.33-.38-2s.15-.89.81-.57c2.13,1,4.25,2,6.38,3,4.32,2,8.66,4,13,6q2.38,1.11,4.76,2.25c2.55,1.23,5.1,2.47,7.66,3.69a3.39,3.39,0,0,0,.45.15c.26.42,0,.74-.19,1.09l-7.41,12.16q-2.37,3.89-4.76,7.75a3.37,3.37,0,0,1-.3.36,2.56,2.56,0,0,0-1-.25c-1.66-.09-3.31-.35-5-.56s-3.39-.33-5-.66A26.13,26.13,0,0,1,272.38,334.07Z"
    transform="translate(-99.12 -54.24)"
  />
  <path
    class="cls-8"
    d="M245.53,339.34a1.1,1.1,0,0,0,.71.29c.28.8,1.1.84,1.7,1.17,4.54,2.5,9.09,5,13.63,7.43,2.07,1.12,4.14,2.24,6.21,3.34a.84.84,0,0,1,.53.6l-7.75.41c-2.1.12-4.2.28-6.31.39-1.86.1-3.74.16-5.6.26-3,.16-6.05.24-9.06.49-1.3.11-2.61.09-3.92.13a22.67,22.67,0,0,0-3.47-3.59c-.35-.32-.74-.6-1.08-.94-1.81-1.8-3.53-3.7-5.44-5.39s-3.72-3.61-5.59-5.4c-.31-.29-.71-.54-.74-1a26.87,26.87,0,0,1,3.69.22c1.35,0,2.69.19,4.05.27,2.89.16,5.78.45,8.68.69l3,.25A44.07,44.07,0,0,0,245.53,339.34Z"
    transform="translate(-99.12 -54.24)"
  />
  <path
    class="cls-4"
    d="M268.31,352.17a.84.84,0,0,0-.53-.6c-2.07-1.1-4.14-2.22-6.21-3.34-4.54-2.47-9.09-4.93-13.63-7.43-.6-.33-1.42-.37-1.7-1.17a14.81,14.81,0,0,1,3.51-.94c3.73-.79,7.48-1.5,11.2-2.32s7.62-1.54,11.44-2.3a25.75,25.75,0,0,0,3.4.47c1.66.33,3.37.45,5,.66s3.29.47,5,.56a2.56,2.56,0,0,1,1,.25,26.92,26.92,0,0,1-2.75,2.8c-2.12,2.05-4.3,4-6.44,6.08s-4.38,4.19-6.55,6.31A3,3,0,0,1,268.31,352.17Z"
    transform="translate(-99.12 -54.24)"
  />
  <path
    class="cls-7"
    d="M301.41,266.87a10.12,10.12,0,0,0-3.28.54c-3.59,1-7.27,1.7-10.88,2.66-4.84,1.3-9.73,2.39-14.59,3.63s-10,2.46-15.05,3.68a1,1,0,0,1-.92-.08c-.11-.44.31-.6.49-.88,1.63-2.51,3.34-5,4.88-7.52,2-3.38,4.37-6.56,6.38-9.95.32-.54.73-.51,1.22-.39l3.82.95,9.93,2.57c4.5,1.16,9,2.36,13.51,3.47a40.49,40.49,0,0,0,4.62,1.15A.19.19,0,0,1,301.41,266.87Z"
    transform="translate(-99.12 -54.24)"
  />
  <path
    class="cls-10"
    d="M295.31,252.5a26.36,26.36,0,0,1-1.82-4.06,12.81,12.81,0,0,0,.47-1.22c.61-2.14,1.2-4.28,1.81-6.42.9-3.17,1.81-6.34,2.69-9.51.49-1.76,1-3.52,1.57-5.25q4.83,2.66,9.67,5.3a6.9,6.9,0,0,0,1.87,1c0,.49-.39.78-.66,1.11l-15,18.47C295.69,252.09,295.49,252.29,295.31,252.5Z"
    transform="translate(-99.12 -54.24)"
  />
  <path
    class="cls-9"
    d="M311.57,232.3a6.9,6.9,0,0,1-1.87-1q-4.84-2.64-9.67-5.3c0-.31-.1-.63-.14-.94-.36-2.4-.88-4.77-1.14-7.18a4.78,4.78,0,0,1,1.85.8c1.38.81,2.82,1.51,4.24,2.23a3.85,3.85,0,0,1,1.8,1.81c1.44,2.84,3,5.65,4.45,8.47.14.27.24.61.66.6C311.77,232,311.77,232.19,311.57,232.3Z"
    transform="translate(-99.12 -54.24)"
  />
  <path
    class="cls-7"
    d="M245.53,339.34a44.07,44.07,0,0,1-6.79-.42l-3-.25c-2.9-.24-5.79-.53-8.68-.69-1.36-.08-2.7-.28-4.05-.27a26.87,26.87,0,0,0-3.69-.22l-.24-.09a3.22,3.22,0,0,0-.41-1.72c-.32-.78-.67-1.53-1-2.3-1.8-4.08-3.62-8.15-5.38-12.25a17.41,17.41,0,0,1-1.38-3.55,1.5,1.5,0,0,1,.93.13c.78.27,1.57.53,2.37.75,5.23,1.49,10.45,3,15.68,4.44a7.86,7.86,0,0,0,3.14.63,1.45,1.45,0,0,0,.28,1.11c1.09,1.22,2.15,2.46,3.21,3.69,1.75,2.06,3.45,4.16,5.27,6.16,1.1,1.21,2,2.6,3.16,3.72A1.3,1.3,0,0,1,245.53,339.34Z"
    transform="translate(-99.12 -54.24)"
  />
  <path
    class="cls-3"
    d="M210.93,317.58a17.41,17.41,0,0,0,1.38,3.55c1.76,4.1,3.58,8.17,5.38,12.25.34.77.69,1.52,1,2.3a3.22,3.22,0,0,1,.41,1.72,3.57,3.57,0,0,1-1.41.19h-21c-.51,0-1-.09-1.54-.13a.08.08,0,0,0,0-.1,1.45,1.45,0,0,1,.21-.91q.94-2.13,1.87-4.25,1.88-4.32,3.73-8.63c.86-2,1.71-4,2.57-6l7.42,0Z"
    transform="translate(-99.12 -54.24)"
  />
  <path
    class="cls-7"
    d="M151,68.63a4.06,4.06,0,0,1,1,.87c4.8,4.79,9.54,9.65,14.41,14.36,3.1,3,6.15,6,9.22,9a1.48,1.48,0,0,0,.67.48c.26.1.47.28.63-.18q6.1-18.48,12.25-36.92c.16-.47.12-1.07.69-1.33a1.38,1.38,0,0,1,.52.78c1.76,4.19,3.5,8.39,5.28,12.57,1.33,3.16,2.7,6.3,4.06,9.45a6.26,6.26,0,0,0-.24,1.88c-.12,4.94.23,9.89-.21,14.84-.14,1.62,0,3.27,0,4.91l-.23.24a43.93,43.93,0,0,0-5.3-1.39l-4.4-1.06c-3.56-.85-7.15-1.61-10.64-2.67a3.09,3.09,0,0,0-3.77,1.19c-1.84,2.24-3.76,4.43-5.66,6.62-1.33,1.53-2.72,3-4,4.56a24.43,24.43,0,0,1-2.58,2.75,23.16,23.16,0,0,1-1-3.24c-1.05-3.67-2-7.36-3.14-11-1-3.28-1.84-6.59-2.78-9.88q-1.26-4.41-2.54-8.82c-.7-2.41-1.4-4.81-2.08-7.22A3.77,3.77,0,0,1,151,68.63Z"
    transform="translate(-99.12 -54.24)"
  />
  <path
    class="cls-7"
    d="M238,93.39a2.29,2.29,0,0,0,.92-.74c1.28-1.26,2.52-2.55,3.82-3.8,6.73-6.46,13.29-13.1,19.9-19.69.2-.19.43-.35.64-.53a17.8,17.8,0,0,1-.92,3.81c-1,3.64-2.08,7.27-3.12,10.9q-1.44,5-2.86,10-2,6.94-3.92,13.9c-.22.79-.49,1.56-.78,2.5-.71-.72-1.35-1.27-1.87-1.91-1.43-1.76-3-3.41-4.44-5.15-1.9-2.25-4-4.36-5.78-6.68-1.53-2-1.66-2-4.1-1.38l-14,3.46c-1.82.45-3.63.88-5.45,1.3a3.45,3.45,0,0,0-.78.28l-.24-.24c0-.48,0-1,0-1.44.12-3.43-.35-6.85-.25-10.28.07-2.68,0-5.36,0-8a5.74,5.74,0,0,0-.24-1.89c1-2,1.79-4.08,2.65-6.14,1.4-3.35,2.83-6.68,4.24-10,.74-1.77,1.49-3.53,2.22-5.29a3.21,3.21,0,0,1,.74-1.34c.5.2.5.7.63,1.09q3.9,11.67,7.77,23.34,1.83,5.49,3.59,11a22.89,22.89,0,0,1,1,2.92C237.48,93.68,237.78,93.46,238,93.39Z"
    transform="translate(-99.12 -54.24)"
  />
  <path
    class="cls-4"
    d="M214.56,77.75a5.74,5.74,0,0,1,.24,1.89c0,2.67.06,5.35,0,8-.1,3.43.37,6.85.25,10.28,0,.48,0,1,0,1.44H199.22c0-1.64-.13-3.29,0-4.91.44-5,.09-9.9.21-14.84a6.26,6.26,0,0,1,.24-1.88Z"
    transform="translate(-99.12 -54.24)"
  />
  <path
    class="cls-11"
    d="M288.74,192.7c-.1,2.94-.37,5.88-.67,8.81-.09,1-.12,1.91-.19,2.86a48.79,48.79,0,0,0-.36,6.15c.31.09.41-.1.53-.25q4.53-6,9.08-12a12.83,12.83,0,0,1,1.66-2c0,2.23.15,4.48,0,6.7-.27,3.15-.06,6.3-.23,9.44-.09,1.7-.17,3.4-.23,5.1-1.71-.66-3.42-1.3-5.11-2-1.51-.62-3-1.33-4.48-2-1.33-.58-1.61-.39-1.65,1,0,.6,0,1.2,0,1.79-.22,2.42-.53,4.82-.66,7.24s-.31,4.6-.59,6.89c-.64-.46-.5-1.21-.62-1.83-.86-4.33-1.67-8.67-2.51-13q-1.14-5.91-2.32-11.82c-.77-3.9-1.56-7.79-2.3-11.7a15.1,15.1,0,0,1-.45-2.78l2.95.86Z"
    transform="translate(-99.12 -54.24)"
  />
  <path
    class="cls-11"
    d="M298.75,217.92c.26,2.41.78,4.78,1.14,7.18,0,.31.09.63.14.94-.59,1.73-1.08,3.49-1.57,5.25-.88,3.17-1.79,6.34-2.69,9.51-.61,2.14-1.2,4.28-1.81,6.42a12.81,12.81,0,0,1-.47,1.22,14.34,14.34,0,0,1-1.47-2.83c-1.46-3-2.87-6-4.28-9-.36-.75-.65-1.53-1-2.3,2.11-3,4.22-6.05,6.31-9.09,1.72-2.52,3.39-5.08,5.24-7.5h.23C298.61,217.77,298.68,217.84,298.75,217.92Z"
    transform="translate(-99.12 -54.24)"
  />
  <path
    class="cls-12"
    d="M298.32,217.68c-1.85,2.42-3.52,5-5.24,7.5-2.09,3-4.2,6.06-6.31,9.09-.52-.47-.51-1.23-1-1.74,0-.69,0-1.39-.05-2.08.28-2.29.47-4.59.59-6.89s.44-4.82.66-7.24c.05-.59,0-1.19,0-1.79,0-1.43.32-1.62,1.65-1,1.5.64,3,1.35,4.48,2,1.69.7,3.4,1.34,5.11,2Z"
    transform="translate(-99.12 -54.24)"
  />
  <path
    class="cls-11"
    d="M115.7,196.28c1.84,2.41,3.67,4.81,5.5,7.23s3.6,4.76,5.41,7.15c0,.05.13.06.32.14,0-.38,0-.72,0-1.05-.41-3.44-.49-6.9-.87-10.35-.16-1.37-.27-2.77-.31-4.16,0-.84-.13-1.67-.2-2.5l6.62-2c1.3-.4,2.58-.82,3.88-1.21.62-.19.76-.07.66.5-.39,2.15-.78,4.3-1.2,6.44-.76,3.94-1.55,7.87-2.31,11.81-.68,3.51-1.33,7-2,10.53-.52,2.65-1,5.3-1.6,7.94a11.64,11.64,0,0,1-.91,3.67.5.5,0,0,1-.26-.5c.1-1.56-.37-3.08-.27-4.64a3.3,3.3,0,0,0,0-.83,37.72,37.72,0,0,1-.4-4.38c-.12-1.5-.26-3-.34-4.51a10.68,10.68,0,0,0-.31-2.62c-3.39,1.6-6.79,2.89-10.16,4.29a2.66,2.66,0,0,1-.91.27,2.56,2.56,0,0,0-.11-.24c0-3.35.14-6.7-.1-10-.13-1.87-.07-3.74-.11-5.61a19.58,19.58,0,0,0-.18-3.58A1.85,1.85,0,0,1,115.7,196.28Z"
    transform="translate(-99.12 -54.24)"
  />
  <path
    class="cls-11"
    d="M114.39,226c.26-2.47.79-4.9,1.17-7.35,0-.23,0-.47.07-.7a.6.6,0,0,1,.23,0c.43,0,.62.27.84.58,2,2.84,4,5.68,5.92,8.52,1.68,2.41,3.24,4.91,5,7.23-1.54,3.46-3.2,6.87-4.86,10.27-.5,1-.92,2.12-1.42,3.17a7.67,7.67,0,0,1-.64,1,31.13,31.13,0,0,0-1-3.68q-1.2-4.31-2.42-8.59c-.77-2.68-1.55-5.34-2.31-8C114.82,227.59,114.61,226.78,114.39,226Z"
    transform="translate(-99.12 -54.24)"
  />
  <path
    class="cls-12"
    d="M127.67,234.24c-1.81-2.32-3.37-4.82-5-7.23-2-2.84-4-5.68-5.92-8.52-.22-.31-.41-.59-.84-.58,0-.15.09-.29.13-.44a2.66,2.66,0,0,0,.91-.27c3.37-1.4,6.77-2.69,10.16-4.29a10.68,10.68,0,0,1,.31,2.62c.08,1.51.22,3,.34,4.51a37.72,37.72,0,0,0,.4,4.38,3.3,3.3,0,0,1,0,.83c-.1,1.56.37,3.08.27,4.64a.5.5,0,0,0,.26.5c.09.74-.26,1.42-.24,2.14A4.21,4.21,0,0,1,127.67,234.24Z"
    transform="translate(-99.12 -54.24)"
  />
  <path
    class="cls-5"
    d="M128.44,232.53c0-.72.33-1.4.24-2.14a11.64,11.64,0,0,0,.91-3.67c.56-2.64,1.08-5.29,1.6-7.94.68-3.51,1.33-7,2-10.53.76-3.94,1.55-7.87,2.31-11.81.42-2.14.81-4.29,1.2-6.44.1-.57,0-.69-.66-.5-1.3.39-2.58.81-3.88,1.21l-6.62,2c0-.2,0-.4-.07-.59a35.4,35.4,0,0,0,1.21-4.37q3.39-14,6.71-28.07c.7-2.91,1.37-5.83,2-8.75.22-.27.14-.61.2-.92a56.64,56.64,0,0,0,3.61-5.33c7.43-11,14.78-22.11,22.15-33.18a2.29,2.29,0,0,0,.6-1.15l.05-.1a1,1,0,0,1,.64-.14c-.1,1.17.42,2.25.52,3.4.12,1.38.4,2.75.6,4.12.28,1.88.54,3.77.82,5.65s.55,3.76.87,5.64c.45,2.61.89,5.23,1.1,7.89a2,2,0,0,1-.8.49c-4.58,2-9.14,4-13.72,6l-12.4,5.37-3.18,1.38c-.44.19-.54.45-.17.81l.35.34,4.17,3.76c1.77,1.6,3.58,3.17,5.29,4.84a51.41,51.41,0,0,1,4.08,3.87v.24a1.67,1.67,0,0,0-.44.7c-1.28,2.43-2.46,4.92-3.77,7.34-1.66,3-3.18,6.16-4.77,9.24-1.22,2.38-2.44,4.75-3.68,7.12-.28.53-.26.88.34,1.13a49.28,49.28,0,0,0,5.63,2.31V192c.15,2.83.34,5.66.44,8.49.12,3.39.32,6.78.46,10.17.16,3.83.34,7.65.52,11.48a34.28,34.28,0,0,0,.26,4.42v.23a2.3,2.3,0,0,0-1.15.27q-5.52,2-11,4a28.91,28.91,0,0,0-3.78,1.46Z"
    transform="translate(-99.12 -54.24)"
  />
  <path
    class="cls-4"
    d="M162,110.38a2.29,2.29,0,0,1-.6,1.15c-7.37,11.07-14.72,22.15-22.15,33.18a56.64,56.64,0,0,1-3.61,5.33q-3.26-6.48-6.52-12.95c-.63-1.25-1.3-2.47-1.95-3.7a21.47,21.47,0,0,1,1.68-3.44c.86-1.49,1.58-3,2.37-4.57q2.37-4.57,4.7-9.16a8.29,8.29,0,0,0,.86-1.57c.09-.34.34-.37.64-.42l5.76-1c2.11-.35,4.23-.66,6.34-1.06,1.83-.36,3.68-.58,5.53-.87,1.64-.26,3.3-.49,4.93-.82A19.81,19.81,0,0,1,162,110.38Z"
    transform="translate(-99.12 -54.24)"
  />
  <path
    class="cls-9"
    d="M150.23,163.67a51.41,51.41,0,0,0-4.08-3.87c-1.71-1.67-3.52-3.24-5.29-4.84l-4.17-3.76-.35-.34c-.37-.36-.27-.62.17-.81l3.18-1.38,12.4-5.37c4.58-2,9.14-4,13.72-6a2,2,0,0,0,.8-.49,1,1,0,0,0,.69-.44q3-3.72,5.95-7.47c1.87-2.37,3.69-4.78,5.59-7.14,2.54-3.16,5.15-6.27,7.67-9.45a5.79,5.79,0,0,0,1.43-2.17l.71-.17c.4,0,.8.07,1.19.07H224.4c.4,0,.79,0,1.19-.07l.72.16c0,.4.3.63.54.89s.65.69,1,1.08c1,1.33,2.06,2.63,3.1,3.93,1.76,2.21,3.53,4.42,5.28,6.63,1.88,2.37,3.74,4.76,5.61,7.13,1.51,1.9,3,3.81,4.55,5.68.39.48.68,1.09,1.33,1.31a26.65,26.65,0,0,0,4.43,2.07c7.57,3.29,15.14,6.55,22.71,9.85a26.08,26.08,0,0,1,3.51,1.64c-.1.42-.42.56-.65.77l-5.3,4.82c-1.85,1.69-3.73,3.36-5.54,5.09a15.72,15.72,0,0,0-2.59,2.63c-.48,0-1,0-1.44,0H214.46c-.44,0-.88,0-1.32.07a.66.66,0,0,1,.34-.58c2.27-1.75,4.53-3.52,6.79-5.28q7.59-5.9,15.19-11.79c3.56-2.74,7.15-5.45,10.72-8.18.25-.19.63-.35.57-.79H167.48c0,.13,0,.24.07.27,1.78,1.35,3.56,2.69,5.33,4,1.23.94,2.45,1.91,3.67,2.86,2.14,1.67,4.27,3.33,6.42,5l5.2,4,7.84,6.06c1.57,1.22,3.21,2.36,4.7,3.67a2.57,2.57,0,0,0,1.9.71c3.51,0,7,0,10.55,0,.21.51.45,1,.63,1.54l2.82,8.53h-17.5c-.43,0-.9.12-1.21-.33.93-3.25,2.26-6.38,3.06-9.67a3.34,3.34,0,0,0-1.38-.12H151.66C151.19,163.63,150.71,163.66,150.23,163.67Z"
    transform="translate(-99.12 -54.24)"
  />
  <path
    class="cls-6"
    d="M187.94,110.17a5.79,5.79,0,0,1-1.43,2.17c-2.52,3.18-5.13,6.29-7.67,9.45-1.9,2.36-3.72,4.77-5.59,7.14s-4,5-5.95,7.47a1,1,0,0,1-.69.44c-.21-2.66-.65-5.28-1.1-7.89-.32-1.88-.58-3.76-.87-5.64s-.54-3.77-.82-5.65c-.2-1.37-.48-2.74-.6-4.12-.1-1.15-.62-2.23-.52-3.4,1.76,0,3.51,0,5.26,0h18.55C187,110.1,187.46,110.15,187.94,110.17Z"
    transform="translate(-99.12 -54.24)"
  />
  <path
    class="cls-8"
    d="M225.59,110c-.4,0-.79.07-1.19.07H189.84c-.39,0-.79,0-1.19-.07a12.16,12.16,0,0,1,2.7-2.84c1.43-1.23,2.69-2.61,4.07-3.89a36,36,0,0,1,3.3-3.12.8.8,0,0,0,.27-.52l.23-.24H215l.24.24a1,1,0,0,0,.43.7,20,20,0,0,1,3,2.78c2,2.07,4.21,3.92,6.22,6C225.14,109.36,225.51,109.57,225.59,110Z"
    transform="translate(-99.12 -54.24)"
  />
  <path
    class="cls-4"
    d="M287.06,133.39c-.49.91-1,1.8-1.46,2.72q-3.5,6.93-7,13.87c-1.36-1.67-2.39-3.56-3.6-5.33-4-5.9-7.9-11.88-11.86-17.82-3-4.47-6-8.92-9-13.41a12.89,12.89,0,0,1-1.82-2.94l.1-.09a27.39,27.39,0,0,1,4.59.63c1.85.26,3.69.53,5.53.83,1.49.24,3,.56,4.46.8,1.87.31,3.76.58,5.64.88,1.41.22,2.81.48,4.22.71a.63.63,0,0,1,.52.41c.56,1.1,1.15,2.19,1.71,3.29,1.86,3.62,3.69,7.26,5.58,10.87C285.54,130.32,286.41,131.8,287.06,133.39Z"
    transform="translate(-99.12 -54.24)"
  />
  <path
    class="cls-4"
    d="M252.24,110.16l.25.23-.1.09a.65.65,0,0,1-.16-.09,1.69,1.69,0,0,0,0-.23Z"
    transform="translate(-99.12 -54.24)"
  />
  <path
    class="cls-5"
    d="M252.23,110.39a.65.65,0,0,0,.16.09,12.89,12.89,0,0,0,1.82,2.94c3,4.49,6,8.94,9,13.41,4,5.94,7.85,11.92,11.86,17.82,1.21,1.77,2.24,3.66,3.6,5.33a2,2,0,0,0,.27,1c.81,3.46,1.61,6.92,2.43,10.37q3.23,13.57,6.48,27.14c.29,1.2.68,2.38.9,3.6,0,.21,0,.42,0,.63l-8.23-2.52-2.95-.86a15.1,15.1,0,0,0,.45,2.78c.74,3.91,1.53,7.8,2.3,11.7s1.56,7.88,2.32,11.82c.84,4.33,1.65,8.67,2.51,13,.12.62,0,1.37.62,1.83,0,.69,0,1.39.05,2.08l-.67.05a7.45,7.45,0,0,0-.75-.37L270.08,227a1.69,1.69,0,0,0-1-.13c0-.07,0-.15,0-.22.3-.28.23-.66.25-1,.15-2.79.31-5.58.43-8.37.2-4.34.31-8.69.56-13,.15-2.63.14-5.26.39-7.89.11-1.23.06-2.47.09-3.71a.93.93,0,0,0-.28-.76l0-.14a1.68,1.68,0,0,0,.94-.06c1.61-.69,3.23-1.36,4.83-2.06.8-.36.87-.56.45-1.4-.52-1-1.11-2-1.64-3.06-1.49-2.94-2.92-5.92-4.46-8.84-2-3.81-4-7.62-5.93-11.46-.12-.24-.2-.53-.48-.66l0-.48a15.72,15.72,0,0,1,2.59-2.63c1.81-1.73,3.69-3.4,5.54-5.09l5.3-4.82c.23-.21.55-.35.65-.77a26.08,26.08,0,0,0-3.51-1.64c-7.57-3.3-15.14-6.56-22.71-9.85a26.65,26.65,0,0,1-4.43-2.07c.35-2.43.63-4.88,1.06-7.29.37-2.07.61-4.16,1-6.23.42-2.54.73-5.1,1.14-7.64.3-1.83.48-3.69.94-5.5H252A.25.25,0,0,0,252.23,110.39Z"
    transform="translate(-99.12 -54.24)"
  />
  <path
    class="cls-6"
    d="M251.76,110.15c-.46,1.81-.64,3.67-.94,5.5-.41,2.54-.72,5.1-1.14,7.64-.34,2.07-.58,4.16-1,6.23-.43,2.41-.71,4.86-1.06,7.29-.65-.22-.94-.83-1.33-1.31-1.54-1.87-3-3.78-4.55-5.68-1.87-2.37-3.73-4.76-5.61-7.13-1.75-2.21-3.52-4.42-5.28-6.63-1-1.3-2.1-2.6-3.1-3.93-.3-.39-.63-.72-1-1.08s-.54-.49-.54-.89c.48,0,1-.06,1.43-.06l23.8,0A.57.57,0,0,1,251.76,110.15Z"
    transform="translate(-99.12 -54.24)"
  />
  <path
    class="cls-7"
    d="M252.23,110.39a.25.25,0,0,1-.19-.25l.2,0A1.69,1.69,0,0,1,252.23,110.39Z"
    transform="translate(-99.12 -54.24)"
  />
  <path
    class="cls-1"
    d="M290.86,189.1c0,.1,0,.24,0,.3s-.17,0-.24-.08S290.69,189.08,290.86,189.1Z"
    transform="translate(-99.12 -54.24)"
  />
  <path
    class="cls-11"
    d="M145.2,226.79v-.23l1.18.07c.24.63.88.5,1.32.6,5.24,1.16,10.49,2.28,15.73,3.41l14.45,3.13,7.68,1.7,0,.27-.22.18a37.92,37.92,0,0,0-4.31,2.3c-2.9,1.6-5.77,3.25-8.65,4.88L161.94,249l-8.24,4.63c-2.36,1.33-4.71,2.68-7.08,4-.79.45-.8.42-1.39-.35.34-.38.19-.84.2-1.26,0-3.84-.05-7.68,0-11.51C145.53,238.6,145.06,232.7,145.2,226.79Z"
    transform="translate(-99.12 -54.24)"
  />
  <path
    class="cls-7"
    d="M173.47,301.72c-2.89-.27-5.77-.52-8.64-1-.86-.13-1.73-.13-2.6-.24-2-.27-4.12-.35-6.17-.54-2.49-.24-5-.5-7.45-.76-.11,0-.2-.13-.29-.2a8.89,8.89,0,0,1,1.1-2.86c1.72-3.63,3.56-7.2,5.25-10.84,1-2.23,2.15-4.43,3.22-6.65.12-.25.19-.52.29-.78a68,68,0,0,1,6.81.71c1.32.18,2.65.33,4,.49a1.49,1.49,0,0,0,.2.29c2,1.66,3.94,3.33,5.93,5,1.53,1.27,3,2.61,4.61,3.76a2.44,2.44,0,0,0,.36.47q2,1.65,4,3.28l-.05.69a1.21,1.21,0,0,0-.44.16c-1.25,1-2.52,2-3.7,3.17s-2.21,1.81-3.21,2.82A31.57,31.57,0,0,0,173.47,301.72Z"
    transform="translate(-99.12 -54.24)"
  />
  <path
    class="cls-3"
    d="M169,279.1c-1.33-.16-2.66-.31-4-.49a68,68,0,0,0-6.81-.71c1.79-2.78,3.57-5.57,5.38-8.34q6-9.17,12-18.33c2.73-4.17,5.49-8.33,8.16-12.53a9.41,9.41,0,0,0,1.6-2.78l.22-.18a2.33,2.33,0,0,1,.22,1.4q0,6.77,0,13.53l0,13.64c-1,.89-2,1.76-3.06,2.65-3.72,3.31-7.44,6.6-11.12,9.93a9,9,0,0,0-1.9,1.8Z"
    transform="translate(-99.12 -54.24)"
  />
  <path
    class="cls-12"
    d="M145.2,226.79c-.14,5.91.33,11.81.24,17.72-.06,3.83,0,7.67,0,11.51,0,.42.14.88-.2,1.26q-2.34-3.55-4.66-7.11c-1.27-1.93-2.5-3.89-3.79-5.81-2.06-3-4-6.13-6-9.24a13.76,13.76,0,0,1-1.53-2.56A28.91,28.91,0,0,1,133,231.1q5.5-2,11-4A2.3,2.3,0,0,1,145.2,226.79Z"
    transform="translate(-99.12 -54.24)"
  />
  <path
    class="cls-4"
    d="M173.47,301.72a31.57,31.57,0,0,1,3.21-3c1-1,2.17-1.84,3.21-2.82s2.45-2.13,3.7-3.17a1.21,1.21,0,0,1,.44-.16,1.16,1.16,0,0,1,.52.46q2.3,3,4.61,5.92c2.25,2.88,4.51,5.75,6.75,8.64,2,2.54,4,5.07,5.88,7.65.54.72,1.32,1.3,1.53,2.25-1.25.39-2.49.82-3.76,1.15-6.08,1.63-12.11,3.4-18.15,5.15-.82-2.23-1.65-4.45-2.46-6.68q-2.53-6.94-5-13.9C173.74,302.71,173.61,302.21,173.47,301.72Z"
    transform="translate(-99.12 -54.24)"
  />
  <path
    class="cls-7"
    d="M181.41,323.78c6-1.75,12.07-3.52,18.15-5.15,1.27-.33,2.51-.76,3.76-1.15a.81.81,0,0,1,.22.07c-.86,2-1.71,4-2.57,6q-1.86,4.32-3.73,8.63-.93,2.12-1.87,4.25a1.45,1.45,0,0,0-.21.91l-3.44.31c-2.86.25-5.71.43-8.57.68-1.34.13-2.7.2-4,.3-2.42.18-4.83.45-7.25.64-1,.08-2.08.07-3.11.09,0-.61.51-.86.81-1.26,1.52-2,3.25-3.89,4.89-5.82s3.32-3.93,5-5.9l1.71-2A.87.87,0,0,0,181.41,323.78Z"
    transform="translate(-99.12 -54.24)"
  />
  <path
    class="cls-11"
    d="M269,226.61c0,.07,0,.15,0,.22,0,1.2,0,2.4,0,3.6v26.88c-.11.66-.43.73-1,.45-1.69-.81-3.26-1.84-4.91-2.75-2.93-1.61-5.83-3.29-8.75-4.94L241.86,243c-2.74-1.55-5.5-3.09-8.24-4.63-1.12-.63-2.22-1.27-3.34-1.89a3.63,3.63,0,0,0-1.3-.58l0,0v-.26a1.48,1.48,0,0,1,.94-.46l6.52-1.43,13-2.81,11.52-2.5,6.28-1.4c.29-.06.56-.09.61-.45Z"
    transform="translate(-99.12 -54.24)"
  />
  <path
    class="cls-7"
    d="M266.89,298.81a1.46,1.46,0,0,1-1.09.42c-1.12,0-2.2.28-3.31.32s-2.45.23-3.66.38c-.95.12-1.9.19-2.84.26-2.1.15-4.18.41-6.27.6-1.57.14-3.14.42-4.71.57a28.56,28.56,0,0,1-4,.32,25.09,25.09,0,0,1-2.83-2.52c-2.27-2.11-4.77-3.94-6.94-6.15a1.1,1.1,0,0,0-.81-.45c0-.26-.15-.46-.24-.69a47.48,47.48,0,0,0,4.15-3.35,1.6,1.6,0,0,0,.25-.4,4.78,4.78,0,0,0,1.27-.87c1.77-1.49,3.57-2.93,5.3-4.45,1.4-1.24,2.94-2.32,4.23-3.68a21.2,21.2,0,0,1,3.28-.44c1.59-.27,3.21-.42,4.82-.57a6.31,6.31,0,0,0,2.64-.44,30.86,30.86,0,0,0,1.58,3.46c1.48,3,3,6,4.38,9.05,1.16,2.59,2.57,5.05,3.63,7.68C265.91,298.4,266.17,298.9,266.89,298.81Z"
    transform="translate(-99.12 -54.24)"
  />
  <path
    class="cls-3"
    d="M256.1,277.67a6.31,6.31,0,0,1-2.64.44c-1.61.15-3.23.3-4.82.57a21.2,21.2,0,0,0-3.28.44l-.74-.45a4,4,0,0,0-.82-.87c-3.37-3-6.72-6-10.1-9-1.73-1.54-3.48-3-5.23-4.56.08-4,.05-7.95.19-11.93.18-5.06.05-10.12.06-15.18,0-.42-.16-.89.24-1.24l0,0c0,.31.16.51.32.74q5.23,8,10.48,16,5.9,9,11.77,18C253.07,273,254.58,275.33,256.1,277.67Z"
    transform="translate(-99.12 -54.24)"
  />
  <path
    class="cls-12"
    d="M269.05,257.31V230.43c0-1.2,0-2.4,0-3.6a1.69,1.69,0,0,1,1,.13l14.31,5.25a7.45,7.45,0,0,1,.75.37,30.77,30.77,0,0,1-2.32,3.75c-2.38,3.73-4.86,7.39-7.28,11.1-2,3-3.93,6.1-5.89,9.15A2,2,0,0,1,269.05,257.31Z"
    transform="translate(-99.12 -54.24)"
  />
  <path
    class="cls-4"
    d="M230.4,292.56a1.1,1.1,0,0,1,.81.45c2.17,2.21,4.67,4,6.94,6.15a25.09,25.09,0,0,0,2.83,2.52q-4,10.94-7.93,21.85a7.86,7.86,0,0,1-3.14-.63c-5.23-1.45-10.45-2.95-15.68-4.44-.8-.22-1.59-.48-2.37-.75a1.5,1.5,0,0,0-.93-.13l0-.06a1.08,1.08,0,0,1,.29-.64c2.19-2.82,4.37-5.66,6.56-8.48,2.05-2.64,4.12-5.25,6.16-7.89,1.74-2.27,3.47-4.55,5.3-6.75C229.63,293.34,229.88,292.82,230.4,292.56Z"
    transform="translate(-99.12 -54.24)"
  />
  <path
    class="cls-8"
    d="M230.4,292.56c-.52.26-.77.78-1.13,1.2-1.83,2.2-3.56,4.48-5.3,6.75-2,2.64-4.11,5.25-6.16,7.89-2.19,2.82-4.37,5.66-6.56,8.48a1.08,1.08,0,0,0-.29.64l-7.42,0a.81.81,0,0,0-.22-.07c-.21-1-1-1.53-1.53-2.25-1.92-2.58-3.91-5.11-5.88-7.65-2.24-2.89-4.5-5.76-6.75-8.64q-2.31-3-4.61-5.92a1.16,1.16,0,0,0-.52-.46c0-.23,0-.46.05-.69q23-.93,46.08,0C230.25,292.1,230.42,292.3,230.4,292.56Z"
    transform="translate(-99.12 -54.24)"
  />
  <path
    class="cls-9"
    d="M146.38,226.63l-1.18-.07a34.28,34.28,0,0,1-.26-4.42c-.18-3.83-.36-7.65-.52-11.48-.14-3.39-.34-6.78-.46-10.17-.1-2.83-.29-5.66-.44-8.49.36,0,.71-.05,1.06-.05l4.75,0,16.76.16,6.94.06a2.63,2.63,0,0,0,.13.57c.88,1.93,1.75,3.85,2.64,5.76,1.48,3.14,3,6.26,4.43,9.42.61,1.34,1.27,2.66,1.89,4,1.39,3,2.77,6,4.17,9,.13.27.21.63.63.63V222c-.56,0-1.12,0-1.68.08-2.09.22-4.18.48-6.28.71-1.58.18-3.17.3-4.74.54-3.15.49-6.32.75-9.48,1.12-1.66.2-3.32.36-5,.55-2.53.29-5.06.57-7.58.89A48.82,48.82,0,0,0,146.38,226.63Z"
    transform="translate(-99.12 -54.24)"
  />
  <path
    class="cls-12"
    d="M150.23,163.67c.48,0,1,0,1.43,0h47.92a3.34,3.34,0,0,1,1.38.12c-.8,3.29-2.13,6.42-3.06,9.67-.5.49-.27,1.19-.48,1.76-.43.07-.52.39-.66.74-1.24,3.1-2.5,6.19-3.74,9.28-.11.27-.17.54-.53.54-2.16-1.8-4.33-3.59-6.49-5.4s-4.42-3.75-6.63-5.62a1.57,1.57,0,0,0-1.3-.48l-3.81.2c-2.18.12-4.37.22-6.55.35-3.57.21-7.15.44-10.72.67-.64-.37-.76-1.09-1.09-1.66-1.91-3.29-3.79-6.6-5.68-9.9Z"
    transform="translate(-99.12 -54.24)"
  />
  <path
    class="cls-11"
    d="M150.22,163.91c1.89,3.3,3.77,6.61,5.68,9.9.33.57.45,1.29,1.09,1.66,0,.14-.07.29-.1.43a1.31,1.31,0,0,0-1,.52,14.57,14.57,0,0,0-1.62,2c-.93,1.37-2.11,2.57-3.13,3.89q-3,4-6.23,7.83c-.44.54-.59,1.33-1.35,1.58a49.28,49.28,0,0,1-5.63-2.31c-.6-.25-.62-.6-.34-1.13,1.24-2.37,2.46-4.74,3.68-7.12,1.59-3.08,3.11-6.2,4.77-9.24,1.31-2.42,2.49-4.91,3.77-7.34A1.67,1.67,0,0,1,150.22,163.91Z"
    transform="translate(-99.12 -54.24)"
  />
  <path
    class="cls-10"
    d="M143.53,191.75c.76-.25.91-1,1.35-1.58q3.18-3.85,6.23-7.83c1-1.32,2.2-2.52,3.13-3.89a14.57,14.57,0,0,1,1.62-2,1.31,1.31,0,0,1,1-.52c.51,1.47,1,2.93,1.52,4.39-.25.26-.51.5-.73.78-2.33,2.93-4.67,5.86-7,8.81a5.14,5.14,0,0,0-1.38,2l-4.75,0c-.35,0-.7,0-1.06.05Z"
    transform="translate(-99.12 -54.24)"
  />
  <path
    class="cls-6"
    d="M197.42,175.19c.21-.57,0-1.27.48-1.76.31.45.78.33,1.21.33h17.5a6.39,6.39,0,0,1,.37,1.68c0,.4,0,.79,0,1.19.15,2.31.32,4.61.45,6.92.18,3.1.3,6.21.53,9.31.05.76,0,1.51.07,2.26.39,2.57.34,5.16.55,7.74.19,2.23.21,4.46.35,6.69.2,3.22.45,6.44.65,9.66.16,2.54.29,5.09.45,7.63a.9.9,0,0,1-.27.64c-.46.22-.94.42-1.4.65-3.48,1.78-7,3.55-10.42,5.36a1.43,1.43,0,0,1-1.54,0c-1.82-1-3.68-1.91-5.53-2.84l-6.19-3.11a1.39,1.39,0,0,1-.28-1c0-1.05.2-2.06.2-3.1,0-2.23.26-4.45.35-6.68.12-3.14.44-6.27.63-9.4.2-3.3.33-6.6.55-9.9.19-3,.35-5.94.59-8.91.28-3.37.45-6.75.56-10.13A13.81,13.81,0,0,0,197.42,175.19Z"
    transform="translate(-99.12 -54.24)"
  />
  <path
    class="cls-6"
    d="M213.16,163.69c-3.52,0-7,0-10.55,0a2.57,2.57,0,0,1-1.9-.71c-1.49-1.31-3.13-2.45-4.7-3.67l-7.84-6.06-5.2-4c-2.15-1.65-4.28-3.31-6.42-5-1.22-1-2.44-1.92-3.67-2.86-1.77-1.36-3.55-2.7-5.33-4,0,0,0-.14-.07-.27h79.27c.06.44-.32.6-.57.79-3.57,2.73-7.16,5.44-10.72,8.18q-7.62,5.88-15.19,11.79c-2.26,1.76-4.52,3.53-6.79,5.28a.66.66,0,0,0-.34.58Z"
    transform="translate(-99.12 -54.24)"
  />
  <path
    class="cls-12"
    d="M217,175.44a6.39,6.39,0,0,0-.37-1.68l-2.82-8.53c-.18-.53-.42-1-.63-1.54l0,0c.44,0,.88-.07,1.32-.07H262.8c.48,0,1,0,1.44,0l0,.48a11.81,11.81,0,0,0-2,3.19c-1.61,2.69-3.13,5.44-4.68,8.16l-.84-.07c-3.06-.17-6.13-.29-9.19-.51q-5.65-.42-11.33-.7a1.2,1.2,0,0,0-1,.38c-2,1.67-4,3.34-6,5l-7.46,6.17a3.43,3.43,0,0,1-.87-1.55c-.9-2.77-2.31-5.33-3.2-8.11C217.58,175.73,217.41,175.46,217,175.44Z"
    transform="translate(-99.12 -54.24)"
  />
  <path
    class="cls-9"
    d="M269,226.61h-1.17a45.15,45.15,0,0,0-5.67-.76c-1.74-.22-3.48-.37-5.22-.57l-9.6-1.11c-1.86-.21-3.72-.35-5.57-.61-3.08-.45-6.16-.74-9.24-1.09-1.43-.16-2.85-.34-4.27-.48-.48-.05-.62-.29-.58-.71a2.87,2.87,0,0,0,.81-1.3c.72-1.56,1.4-3.13,2.12-4.69q2.52-5.43,5.06-10.86,2.88-6.12,5.75-12.25l23.46-.26a46.86,46.86,0,0,0,5.56-.08.93.93,0,0,1,.28.76c0,1.24,0,2.48-.09,3.71-.25,2.63-.24,5.26-.39,7.89-.25,4.34-.36,8.69-.56,13-.12,2.79-.28,5.58-.43,8.37C269.26,226,269.33,226.33,269,226.61Z"
    transform="translate(-99.12 -54.24)"
  />
  <path
    class="cls-11"
    d="M257.51,175.51c1.55-2.72,3.07-5.47,4.68-8.16a11.81,11.81,0,0,1,2-3.19c.28.13.36.42.48.66,1.94,3.84,3.92,7.65,5.93,11.46,1.54,2.92,3,5.9,4.46,8.84.53,1,1.12,2,1.64,3.06.42.84.35,1-.45,1.4-1.6.7-3.22,1.37-4.83,2.06a1.68,1.68,0,0,1-.94.06,1.35,1.35,0,0,0-.34-.62l-4.49-5.68c-.93-1.18-1.89-2.34-2.8-3.54-1.07-1.42-2.33-2.68-3.32-4.18a3.85,3.85,0,0,0-2-1.76C257.52,175.78,257.51,175.65,257.51,175.51Z"
    transform="translate(-99.12 -54.24)"
  />
  <path
    class="cls-10"
    d="M257.53,175.92a3.85,3.85,0,0,1,2,1.76c1,1.5,2.25,2.76,3.32,4.18.91,1.2,1.87,2.36,2.8,3.54l4.49,5.68a1.35,1.35,0,0,1,.34.62l0,.14a46.86,46.86,0,0,1-5.56.08c.18-.43-.15-.66-.37-.93l-8.46-10.71A26.86,26.86,0,0,1,257.53,175.92Z"
    transform="translate(-99.12 -54.24)"
  />
  <path
    class="cls-7"
    d="M185.79,264.31l0-13.64q0-6.76,0-13.53a2.33,2.33,0,0,0-.22-1.4l0-.27.24-.05c.25,0,.51,0,.66.29A2.31,2.31,0,0,0,187,237q5.16,7.83,10.29,15.67c2.63,4,5.3,7.94,7.86,12a9.07,9.07,0,0,1,1.52,2.53c-2.27-.14-4.5-.64-6.75-.91-2.69-.32-5.38-.72-8.06-1.09Z"
    transform="translate(-99.12 -54.24)"
  />
  <path
    class="cls-5"
    d="M185.8,235.42l-.24.05-7.68-1.7-14.45-3.13c-5.24-1.13-10.49-2.25-15.73-3.41-.44-.1-1.08,0-1.32-.6a48.82,48.82,0,0,1,5.79-.78c2.52-.32,5.05-.6,7.58-.89,1.66-.19,3.32-.35,5-.55,3.16-.37,6.33-.63,9.48-1.12,1.57-.24,3.16-.36,4.74-.54,2.1-.23,4.19-.49,6.28-.71.56-.06,1.12-.06,1.68-.08-.07,1.14-.11,2.29-.21,3.43-.21,2.29-.46,4.58-.67,6.87-.08.9-.11,1.81-.16,2.72Z"
    transform="translate(-99.12 -54.24)"
  />
  <path
    class="cls-6"
    d="M244.62,278.67l.74.45c-1.29,1.36-2.83,2.44-4.23,3.68-1.73,1.52-3.53,3-5.3,4.45a4.78,4.78,0,0,1-1.27.87,5.27,5.27,0,0,0-1.43-.08h-52a5.29,5.29,0,0,0-1.43.08c-1.62-1.15-3.08-2.49-4.61-3.76-2-1.64-3.95-3.31-5.93-5a1.49,1.49,0,0,1-.2-.29l.74-.42c.46-.12.93-.23,1.38-.37,3.64-1.19,7.28-2.4,10.93-3.58a8.71,8.71,0,0,1,2.79-.62q22.35,0,44.71,0a5.15,5.15,0,0,1,1.65.24q4.83,1.59,9.68,3.16A30.92,30.92,0,0,0,244.62,278.67Z"
    transform="translate(-99.12 -54.24)"
  />
  <path
    class="cls-11"
    d="M179.71,288.12a5.29,5.29,0,0,1,1.43-.08h52a5.27,5.27,0,0,1,1.43.08,1.6,1.6,0,0,1-.25.4,47.48,47.48,0,0,1-4.15,3.35q-23-1-46.08,0-2-1.64-4-3.28A2.44,2.44,0,0,1,179.71,288.12Z"
    transform="translate(-99.12 -54.24)"
  />
  <path
    class="cls-12"
    d="M244.62,278.67a30.92,30.92,0,0,1-3.77-1.15q-4.86-1.56-9.68-3.16a5.15,5.15,0,0,0-1.65-.24q-22.36,0-44.71,0a8.71,8.71,0,0,0-2.79.62c-3.65,1.18-7.29,2.39-10.93,3.58-.45.14-.92.25-1.38.37a9.24,9.24,0,0,1,1.9-1.79c3.68-3.33,7.4-6.62,11.12-9.93,1-.89,2-1.76,3.06-2.65l6,.87c2.68.37,5.37.77,8.06,1.09,2.25.27,4.48.77,6.75.91a.71.71,0,0,0,1,0,37.81,37.81,0,0,0,4.85-.61c3.35-.41,6.69-.91,10-1.39,2-.28,4-.46,6-.91,1.75,1.52,3.5,3,5.23,4.56,3.38,3,6.73,6,10.1,9A4,4,0,0,1,244.62,278.67Z"
    transform="translate(-99.12 -54.24)"
  />
  <path
    class="cls-5"
    d="M227.71,221.28c0,.42.1.66.58.71,1.42.14,2.84.32,4.27.48,3.08.35,6.16.64,9.24,1.09,1.85.26,3.71.4,5.57.61l9.6,1.11c1.74.2,3.48.35,5.22.57a45.15,45.15,0,0,1,5.67.76c-.05.36-.32.39-.61.45l-6.28,1.4L249.45,231l-13,2.81-6.52,1.43a1.48,1.48,0,0,0-.94.46l-.45-.24c0-.15,0-.3-.05-.45a5.77,5.77,0,0,0,0-.72c-.15-1.7-.36-3.4-.45-5.11-.07-1.44-.25-2.86-.34-4.29a7.91,7.91,0,0,0-.26-2.6,10.63,10.63,0,0,1-.55-3c-.29-2.09-.36-4.21-.58-6.31-.13-1.23-.17-2.46-.29-3.69-.19-2.06-.42-4.11-.64-6.17-.12-1.11-.2-2.22-.3-3.33-.23-2.5-.64-5-.72-7.49a43.21,43.21,0,0,0,3.45-3c.33-.33.6-.76,1.12-.83a18.33,18.33,0,0,1,0,2.87c-.35,2.42-.24,4.85-.37,7.28s-.43,5.09-.31,7.64a1.85,1.85,0,0,1,0,.24c-.41,2.45-.15,4.94-.43,7.39-.17,1.46,0,2.94-.21,4.42A5.8,5.8,0,0,0,227.71,221.28Z"
    transform="translate(-99.12 -54.24)"
  />
  <path
    class="cls-7"
    d="M228.5,235.42l.45.24c0,.09,0,.17,0,.26-.4.35-.24.82-.24,1.24,0,5.06.12,10.12-.06,15.18-.14,4-.11,8-.19,11.93-2,.45-4,.63-6,.91-3.34.48-6.68,1-10,1.39a37.81,37.81,0,0,1-4.85.61l9.47-14.47,10.47-16a2.15,2.15,0,0,0,.47-1.08A.69.69,0,0,1,228.5,235.42Z"
    transform="translate(-99.12 -54.24)"
  />
  <path
    class="cls-13"
    d="M185.87,235c0-.91.08-1.82.16-2.72.21-2.29.46-4.58.67-6.87.1-1.14.14-2.29.21-3.43,0-.15,0-.3,0-.44.34-.15.22-.46.24-.72.3-.18.25-.48.26-.75,0-.48,0-1,.08-1.44.21-2.25.46-4.51.67-6.77.19-2,.27-4.05.54-6.06.48-3.63.69-7.29,1.12-10.93a10.41,10.41,0,0,0,.25-2.61,2.94,2.94,0,0,0,.34-.47c.45-1.31,1-2.58,1.53-3.85a4.5,4.5,0,0,0,.54-2.17c.36,0,.42-.27.53-.54,1.24-3.09,2.5-6.18,3.74-9.28.14-.35.23-.67.66-.74a13.81,13.81,0,0,1-.15,3.21c-.11,3.38-.28,6.76-.56,10.13-.24,3-.4,5.94-.59,8.91-.22,3.3-.35,6.6-.55,9.9-.19,3.13-.51,6.26-.63,9.4-.09,2.23-.34,4.45-.35,6.68,0,1-.24,2.05-.2,3.1a1.39,1.39,0,0,0,.28,1,1.28,1.28,0,0,0-1.07.44c-1.49,1.55-3.22,2.85-4.68,4.44-.65.71-1.36,1.36-2,2A1.35,1.35,0,0,1,185.87,235Z"
    transform="translate(-99.12 -54.24)"
  />
  <path
    class="cls-14"
    d="M149.33,191.91a5.14,5.14,0,0,1,1.38-2c2.3-2.95,4.64-5.88,7-8.81.22-.28.48-.52.73-.78l6.07-.22c2.79-.1,5.57-.16,8.35-.29a21.75,21.75,0,0,0,3.32-.19,1,1,0,0,0,.15.19q4.15,3.85,8.32,7.7c.21.19.43.36.42.68-.49.16-1,.34-1.48.49-3.16,1-6.32,2-9.47,3-.37.11-.8.13-1.06.5l-6.94-.06Z"
    transform="translate(-99.12 -54.24)"
  />
  <path
    class="cls-6"
    d="M173,192.13c.26-.37.69-.39,1.06-.5,3.15-1,6.31-2,9.47-3,.5-.15,1-.33,1.48-.49h.23c.48,2.19.26,4.43.42,6.65.24,3.52.28,7.07.53,10.6.11,1.58.14,3.18.19,4.76.08,2.66.33,5.32.31,8,0,.47,0,1,0,1.43a1.53,1.53,0,0,0,.43,1.2c0,.26.1.57-.24.72-.42,0-.5-.36-.63-.63-1.4-3-2.78-6-4.17-9-.62-1.34-1.28-2.66-1.89-4-1.43-3.16-2.95-6.28-4.43-9.42-.89-1.91-1.76-3.83-2.64-5.76A2.63,2.63,0,0,1,173,192.13Z"
    transform="translate(-99.12 -54.24)"
  />
  <path
    class="cls-15"
    d="M185.27,188.17H185c0-.32-.21-.49-.42-.68q-4.17-3.84-8.32-7.7a1,1,0,0,1-.15-.19c.2-.52.44-1,.6-1.55.39-1.28,1.18-2.43,1.32-3.79a1.57,1.57,0,0,1,1.3.48c2.21,1.87,4.41,3.75,6.63,5.62s4.33,3.6,6.49,5.4a4.5,4.5,0,0,1-.54,2.17c-.53,1.27-1.08,2.54-1.53,3.85a2.94,2.94,0,0,1-.34.47c-.5,0-.74-.41-1.05-.7A24.55,24.55,0,0,0,185.27,188.17Z"
    transform="translate(-99.12 -54.24)"
  />
  <path
    class="cls-6"
    d="M178.07,174.25c-.14,1.36-.93,2.51-1.32,3.79-.16.53-.4,1-.6,1.55a21.75,21.75,0,0,1-3.32.19c-2.78.13-5.56.19-8.35.29l-6.07.22c-.51-1.46-1-2.92-1.52-4.39,0-.14.07-.29.1-.43,3.57-.23,7.15-.46,10.72-.67,2.18-.13,4.37-.23,6.55-.35Z"
    transform="translate(-99.12 -54.24)"
  />
  <path
    class="cls-12"
    d="M185.87,235a1.35,1.35,0,0,0,1-.55c.67-.68,1.38-1.33,2-2,1.46-1.59,3.19-2.89,4.68-4.44a1.28,1.28,0,0,1,1.07-.44l6.19,3.11c1.85.93,3.71,1.85,5.53,2.84a1.43,1.43,0,0,0,1.54,0c3.46-1.81,6.94-3.58,10.42-5.36.46-.23.94-.43,1.4-.65a1.72,1.72,0,0,1,1.33.67c1.87,1.89,3.75,3.76,5.63,5.64a4.25,4.25,0,0,0,1.74,1.18c0,.15,0,.3.05.45a.69.69,0,0,0-.5.25,1.59,1.59,0,0,0-.87.37c-1.64,1.21-3.41,2.22-5.11,3.33-4.71,3.06-9.44,6.1-14.15,9.18a1.09,1.09,0,0,1-1.39,0c-1.16-.78-2.34-1.52-3.51-2.28-4.38-2.84-8.74-5.71-13.15-8.51a23,23,0,0,0-3.36-2c-.15-.25-.41-.25-.66-.29C185.83,235.27,185.85,235.12,185.87,235Z"
    transform="translate(-99.12 -54.24)"
  />
  <path
    class="cls-13"
    d="M228.45,235a4.25,4.25,0,0,1-1.74-1.18c-1.88-1.88-3.76-3.75-5.63-5.64a1.72,1.72,0,0,0-1.33-.67.9.9,0,0,0,.27-.64c-.16-2.54-.29-5.09-.45-7.63-.2-3.22-.45-6.44-.65-9.66-.14-2.23-.16-4.46-.35-6.69-.21-2.58-.16-5.17-.55-7.74-.11-.75,0-1.5-.07-2.26-.23-3.1-.35-6.21-.53-9.31-.13-2.31-.3-4.61-.45-6.92,0-.4,0-.79,0-1.19.43,0,.6.29.72.67.89,2.78,2.3,5.34,3.2,8.11a3.43,3.43,0,0,0,.87,1.55,16.47,16.47,0,0,0,1.43,4,6.55,6.55,0,0,0,1.14,2.45c.08,2.51.49,5,.72,7.49.1,1.11.18,2.22.3,3.33.22,2.06.45,4.11.64,6.17.12,1.23.16,2.46.29,3.69.22,2.1.29,4.22.58,6.31a10.63,10.63,0,0,0,.55,3,7.91,7.91,0,0,1,.26,2.6c.09,1.43.27,2.85.34,4.29.09,1.71.3,3.41.45,5.11A5.77,5.77,0,0,1,228.45,235Z"
    transform="translate(-99.12 -54.24)"
  />
  <path
    class="cls-15"
    d="M224.34,192.24a6.55,6.55,0,0,1-1.14-2.45,16.47,16.47,0,0,1-1.43-4l7.46-6.17c2-1.65,4-3.32,6-5a1.2,1.2,0,0,1,1-.38c.08.23.16.45.23.68a35.43,35.43,0,0,1,1.69,4.69,3.19,3.19,0,0,1-.88,1c-2.35,2.21-4.72,4.4-7.07,6.6-.31.29-.74.52-.72,1-.18,0-.37,0-.49.19-.52.07-.79.5-1.12.83A43.21,43.21,0,0,1,224.34,192.24Z"
    transform="translate(-99.12 -54.24)"
  />
  <path
    class="cls-6"
    d="M238.07,179.6a35.43,35.43,0,0,0-1.69-4.69c-.07-.23-.15-.45-.23-.68q5.67.28,11.33.7c3.06.22,6.13.34,9.19.51l.84.07c0,.14,0,.27,0,.41a26.86,26.86,0,0,0-1.45,4.36c-.44,0-.88,0-1.31,0l-5.73-.22Z"
    transform="translate(-99.12 -54.24)"
  />
  <path
    class="cls-14"
    d="M238.07,179.6l11,.46,5.73.22c.43,0,.87,0,1.31,0L264.54,191c.22.27.55.5.37.93l-23.46.26a2.79,2.79,0,0,0-1.39-.62c-3.55-1.14-7.1-2.25-10.66-3.37,0-.52.41-.75.72-1,2.35-2.2,4.72-4.39,7.07-6.6A3.19,3.19,0,0,0,238.07,179.6Z"
    transform="translate(-99.12 -54.24)"
  />
  <path
    class="cls-6"
    d="M229.4,188.19c3.56,1.12,7.11,2.23,10.66,3.37a2.79,2.79,0,0,1,1.39.62q-2.88,6.12-5.75,12.25-2.53,5.43-5.06,10.86c-.72,1.56-1.4,3.13-2.12,4.69a2.87,2.87,0,0,1-.81,1.3,5.8,5.8,0,0,1-.13-3.06c.21-1.48,0-3,.21-4.42.28-2.45,0-4.94.43-7.39a1.85,1.85,0,0,0,0-.24c-.12-2.55.18-5.1.31-7.64s0-4.86.37-7.28a18.33,18.33,0,0,0,0-2.87C229,188.19,229.22,188.21,229.4,188.19Z"
    transform="translate(-99.12 -54.24)"
  />
  <path
    class="cls-4"
    d="M186.46,235.71a23,23,0,0,1,3.36,2c4.41,2.8,8.77,5.67,13.15,8.51,1.17.76,2.35,1.5,3.51,2.28a1.09,1.09,0,0,0,1.39,0c4.71-3.08,9.44-6.12,14.15-9.18,1.7-1.11,3.47-2.12,5.11-3.33a1.59,1.59,0,0,1,.87-.37,2.15,2.15,0,0,1-.47,1.08l-10.47,16-9.47,14.47a.71.71,0,0,1-1,0,9.07,9.07,0,0,0-1.52-2.53c-2.56-4-5.23-8-7.86-12Q192.12,244.86,187,237A2.31,2.31,0,0,1,186.46,235.71Z"
    transform="translate(-99.12 -54.24)"
  />
  <path
    class="cls-5"
    d="M185.27,188.17a24.55,24.55,0,0,1,3.76,3.37c.31.29.55.7,1.05.7a10.41,10.41,0,0,1-.25,2.61c-.43,3.64-.64,7.3-1.12,10.93-.27,2-.35,4-.54,6.06-.21,2.26-.46,4.52-.67,6.77-.05.48-.05,1-.08,1.44,0,.27,0,.57-.26.75a1.53,1.53,0,0,1-.43-1.2c0-.48,0-1,0-1.43,0-2.67-.23-5.33-.31-8,0-1.58-.08-3.18-.19-4.76-.25-3.53-.29-7.08-.53-10.6C185.53,192.6,185.75,190.36,185.27,188.17Z"
    transform="translate(-99.12 -54.24)"
  />
</svg>
